<ttFont>
<head>
    <!-- Most of this table will be recalculated by the compiler -->
    <tableVersion value="1.0"/>
    <fontRevision value="1.0"/>
    <checkSumAdjustment value="0xa313c39b"/>
    <magicNumber value="0x5f0f3cf5"/>
    <flags value="00000000 00000011"/>
    <unitsPerEm value="2048"/>
    <created value="Thu Aug 15 19:16:47 2019"/>
    <modified value="Fri Aug 16 02:18:58 2019"/>
    <xMin value="-400"/>
    <yMin value="-557"/>
    <xMax value="3040"/>
    <yMax value="1950"/>
<macStyle value="00000000 00000010"/>
    <lowestRecPPEM value="3"/>
    <fontDirectionHint value="2"/>
    <indexToLocFormat value="0"/>
    <glyphDataFormat value="0"/>
  </head>
          <CharString index="0">
            7 36 rlineto
            -28 -30 -48 -15 -34 hhcurveto
            -45 -22 29 63 return
          </CharString>
          <CharString index="1">
            84 97 40 58 42 hvcurveto
            return
          </CharString>
          <CharString index="2">
            117 100 183 61 vhcurveto
            -1 -1 -17 -84 -1 vvcurveto
            -132 -29 47 -62 99 hhcurveto
            return
          </CharString>
          <CharString index="3">
            rmoveto
            -330 -41 -7 -33 61 -13 rlineto
            return
          </CharString>
          <CharString index="4">
            rmoveto
            178 callsubr
            17 -142 -31 -46 -129 -16 rlinecurve
            -7 -34 502 0 7 34 -86 13 -33 30 -22 160 rlinecurve
            return
          </CharString>
          <CharString index="5">
            rmoveto
            -211 104 -139 149 141 return
          </CharString>
          <CharString index="6">
            rmoveto
            59 45 44 56 hvcurveto
            53 -1 -42 40 -57 hhcurveto
            -57 -47 -44 -55 1 hvcurveto
            -53 43 -41 56 vhcurveto
            endchar
          </CharString>
          <CharString index="7">
            rmoveto
            -54 -42 -42 -52 -50 39 -40 51 53 43 42 53 50 -40 39 -50 hvcurveto
            endchar
          </CharString>
          <CharString index="8">
            33 callsubr
            endchar
          </CharString>
          <CharString index="9">
            23 callsubr
            endchar
          </CharString>
          <CharString index="10">
            115 -13 13 -21 -20 return
          </CharString>
          <CharString index="11">
            111 callsubr
            endchar
          </CharString>
          <CharString index="12">
            rmoveto
            -38 callsubr
            248 -150 181 83 callsubr
            -39 callsubr
            hvcurveto
            2 46 rmoveto
            42 callsubr
            28 callsubr
            endchar
          </CharString>
          <CharString index="13">
            1805 31 callsubr
            return
          </CharString>
          <CharString index="14">
            -93 rlinecurve
            -239 -1122 -20 88 callsubr
            return
          </CharString>
          <CharString index="15">
            51 -14 10 -18 -11 -50 return
          </CharString>
          <CharString index="16">
            1440 -105 callgsubr
            return
          </CharString>
          <CharString index="17">
            104 hhcurveto
            -106 callsubr
            return
          </CharString>
          <CharString index="18">
            rmoveto
            -958 hlineto
            -26 callsubr
            1010 -30 callsubr
            endchar
          </CharString>
          <CharString index="19">
            51 -14 9 -18 -10 -50 -132 -619 rcurveline
            -144 -31 48 -62 return
          </CharString>
          <CharString index="20">
            83 -42 callsubr
            9 callsubr
            endchar
          </CharString>
          <CharString index="21">
            -104 -492 rcurveline
            0 callsubr
            return
          </CharString>
          <CharString index="22">
            1579 7 callsubr
            return
          </CharString>
          <CharString index="23">
            22 callsubr
            endchar
          </CharString>
          <CharString index="24">
            rmoveto
            330 201 221 342 78 hvcurveto
            146 641 39 169 24 39 126 19 rlinecurve
            7 34 -366 0 -7 -34 rlineto
            132 -20 8 -38 -33 -169 -128 -631 rcurveline
            -320 -64 -191 -177 69 callsubr
            -73 callgsubr
            endchar
          </CharString>
          <CharString index="25">
            rmoveto
            238 1122 20 93 23 20 120 14 rlinecurve
            7 34 -478 0 -7 -34 return
          </CharString>
          <CharString index="26">
            rmoveto
            458 hlineto
            23 107 rlineto
            -459 hlineto
            endchar
          </CharString>
          <CharString index="27">
            -12 callsubr
            endchar
          </CharString>
          <CharString index="28">
            1825 129 callsubr
            return
          </CharString>
          <CharString index="29">
            -107 callsubr
            14 hvcurveto
            endchar
          </CharString>
          <CharString index="30">
            rmoveto
            123 89 63 98 99 -73 57 -78 -62 -49 -23 -42 -35 hvcurveto
            -7 -30 rlineto
            5 14 25 4 23 hhcurveto
            54 40 -28 -51 -52 -43 -29 -63 -51 -40 23 23 -23 hvcurveto
            -7 -32 rlineto
            -47 29 58 -38 76 hhcurveto
            endchar
          </CharString>
          <CharString index="31">
            1088 rmoveto
            256 208 162 -208 40 0 -122 352 -111 0 -269 -352 rlineto
            return
          </CharString>
          <CharString index="32">
            1537 130 callsubr
            return
          </CharString>
          <CharString index="33">
            1161 70 callsubr
            return
          </CharString>
          <CharString index="34">
            178 332 -102 callsubr
            return
          </CharString>
          <CharString index="35">
            rmoveto
            237 188 152 -188 37 0 -115 317 -104 0 -248 -317 rlineto
            endchar
          </CharString>
          <CharString index="36">
            rmoveto
            267 107 220 -107 8 38 -187 197 -31 0 -269 -197 rlineto
            return
          </CharString>
          <CharString index="37">
            1167 rmoveto
            -31 callgsubr
            375 hmoveto
            -31 callgsubr
            return
          </CharString>
          <CharString index="38">
            -6 -35 rlineto
            2 4 16 2 9 hhcurveto
            64 41 -32 -53 -50 return
          </CharString>
          <CharString index="39">
            1459 -63 callgsubr
            return
          </CharString>
          <CharString index="40">
            225 112 247 189 3 hvcurveto
            157 2 -73 158 -166 hhcurveto
            -220 -115 -236 -199 -3 hvcurveto
            -162 -3 76 -154 162 hhcurveto
            return
          </CharString>
          <CharString index="41">
            1439 rmoveto
            -193 -6 hlineto
            258 -345 rlineto
            37 hlineto
            return
          </CharString>
          <CharString index="42">
            98 379 rlineto
            -30 hlineto
            return
          </CharString>
          <CharString index="43">
            rmoveto
            118 556 684 0 -118 -556 -19 -93 -24 -21 -116 -13 rlinecurve
            -7 -34 476 0 7 34 -113 14 -16 22 20 93 rlinecurve
            238 1118 20 93 25 22 119 14 rlinecurve
            7 34 -477 0 -7 -34 111 -13 15 -21 -20 -93 rlinecurve
            -111 -521 -685 0 111 521 20 93 26 21 114 13 rlinecurve
            7 34 -476 0 -7 -34 114 -14 15 -22 -20 -93 rlinecurve
            -238 -1118 -21 -93 -23 -22 -120 -14 rlinecurve
            -7 -34 return
          </CharString>
          <CharString index="44">
            1151 rmoveto
            86 62 62 192 24 hvcurveto
            -37 hlineto
            -100 -19 -28 -38 -44 hhcurveto
            -30 -22 15 29 -35 hvcurveto
            -32 27 rlineto
            32 -40 -36 21 -49 hhcurveto
            -85 -63 -63 -191 -23 hvcurveto
            37 hlineto
            99 19 27 38 45 hhcurveto
            29 23 -14 -30 35 hvcurveto
            32 -26 rlineto
            -32 39 37 -21 48 hhcurveto
            return
          </CharString>
          <CharString index="45">
            rmoveto
            46 44 36 46 10 hvcurveto
            47 10 -28 37 -47 hhcurveto
            -5 hlineto
            -47 -45 -37 -47 -9 hvcurveto
            -46 -10 28 -36 47 hhcurveto
            304 hmoveto
            47 44 36 46 10 hvcurveto
            47 10 -28 37 -47 hhcurveto
            -6 hlineto
            -46 -45 -37 -47 -10 hvcurveto
            -46 -10 29 -36 47 hhcurveto
            return
          </CharString>
          <CharString index="46">
            rmoveto
            45 41 30 40 8 hvcurveto
            39 9 -28 31 -44 hhcurveto
            -6 hlineto
            -44 -41 -31 -39 -9 -94 callgsubr
            45 40 30 40 9 hvcurveto
            39 9 -28 31 -45 hhcurveto
            -5 hlineto
            -45 -41 -31 -39 -9 hvcurveto
            -40 -8 28 -30 45 hhcurveto
            return
          </CharString>
          <CharString index="47">
            rmoveto
            -330 -41 -8 -33 62 -13 50 -14 10 -18 -11 -50 rlinecurve
            -162 -764 -57 -266 -62 -152 -181 -78 rlinecurve
            11 -30 306 92 111 143 55 260 rlinecurve
            endchar
          </CharString>
          <CharString index="48">
            rmoveto
            191 -526 -110 -518 -19 -87 -24 -23 -142 -14 rlinecurve
            -7 -34 527 0 8 34 -139 16 161 callsubr
            endchar
          </CharString>
          <CharString index="49">
            -85 -341 rlineto
            32 hlineto
            88 218 83 64 275 16 rrcurveto
            55 3 return
          </CharString>
          <CharString index="50">
            1198 rmoveto
            493 hlineto
            25 119 rlineto
            -493 hlineto
            return
          </CharString>
          <CharString index="51">
            1622 -92 callgsubr
            return
          </CharString>
          <CharString index="52">
            1582 10 callsubr
            return
          </CharString>
          <CharString index="53">
            rmoveto
            152 callsubr
          </CharString>
          <CharString index="54">
            1156 rmoveto
            -32 callgsubr
            return
          </CharString>
          <CharString index="55">
            -329 -32 -7 -33 61 -13 51 -15 10 -17 -11 -50 rlinecurve
            -280 -1316 return
          </CharString>
          <CharString index="56">
            -265 -1246 -18 -87 -25 -23 -142 -14 rlinecurve
            -7 -34 return
          </CharString>
          <CharString index="57">
            -325 -41 -8 -33 62 -13 50 -14 10 -18 -11 -50 rlinecurve
            return
          </CharString>
          <CharString index="58">
            528 0 7 34 -138 16 -16 21 19 87 rlinecurve
            return
          </CharString>
          <CharString index="59">
            1128 rmoveto
            167 104 123 194 9 hvcurveto
            -35 hlineto
            -112 -22 -75 -67 -142 hhcurveto
            -109 -74 60 85 12 2 13 2 9 hvcurveto
            -35 hlineto
            -13 -31 -7 -36 -34 vvcurveto
            -124 92 -92 136 vhcurveto
            return
          </CharString>
          <CharString index="60">
            1446 rmoveto
            -80 -72 -42 -64 -38 hvcurveto
            -7 -32 rlineto
            28 32 40 16 46 hhcurveto
            66 36 -32 -51 -59 -57 -60 -99 -56 hvcurveto
            45 hlineto
            157 52 89 74 91 vvcurveto
            78 -63 57 -95 vhcurveto
            return
          </CharString>
          <CharString index="61">
            14 hvcurveto
            277 1308 -12 callgsubr
            -90 -425 rcurveline
            46 -24 -60 48 -118 hhcurveto
            -303 -194 -323 -330 hvcurveto
            return
          </CharString>
          <CharString index="62">
            1432 rmoveto
            29 132 -526 -183 -8 -37 rlineto
            return
          </CharString>
          <CharString index="63">
            -233 22 78 callsubr
            133 callsubr
            return
          </CharString>
          <CharString index="64">
            656 1476 123 callsubr
            return
          </CharString>
          <CharString index="65">
            98 40 58 41 hvcurveto
            7 36 rlineto
            -28 return
          </CharString>
          <CharString index="66">
            1804 -102 callgsubr
            return
          </CharString>
          <CharString index="67">
            1590 100 callsubr
            return
          </CharString>
          <CharString index="68">
            -248 150 -182 229 return
          </CharString>
          <CharString index="69">
            321 189 273 301 return
          </CharString>
          <CharString index="70">
            rmoveto
            82 67 49 99 22 hvcurveto
            return
          </CharString>
          <CharString index="71">
            rmoveto
            224 228 115 195 130 -77 87 -193 41 hvcurveto
            -161 34 -89 19 -28 32 -1 39 rlinecurve
            40 34 38 81 18 vhcurveto
            -7 30 32 -4 35 hhcurveto
            247 -2 148 166 195 vvcurveto
            84 -31 77 -61 55 vhcurveto
            235 -16 14 67 -299 -15 rlineto
            31 -53 -67 18 -81 hhcurveto
            -247 -148 -163 -195 -126 73 -110 135 -45 hvcurveto
            -158 -30 -67 -67 1 -84 rrcurveto
            -69 45 -57 94 -31 vhcurveto
            -201 -32 -121 -80 -114 vvcurveto
            -146 185 -88 242 vhcurveto
            -43 1036 rmoveto
            184 80 180 132 104 52 -93 -128 -185 -80 -180 -133 -104 -51 93 129 vhcurveto
            -229 -789 rmoveto
            98 68 69 140 35 vhcurveto
            2 3 -1 2 hhcurveto
            156 -32 rlineto
            148 -31 52 -57 -83 vvcurveto
            -120 -126 -81 -165 -164 -116 86 117 vhcurveto
            endchar
          </CharString>
          <CharString index="72">
            rmoveto
            221 1040 20 94 22 21 119 12 rlinecurve
            8 34 -477 0 -8 -34 115 -12 13 -21 -19 -94 rlinecurve
            -215 -1011 -74 -346 -99 -136 -227 -150 rlinecurve
            10 -30 334 151 186 151 71 331 rlinecurve
            endchar
          </CharString>
          <CharString index="73">
            rmoveto
            146 123 86 132 21 hvcurveto
            -37 hlineto
            -61 -17 -94 -40 -117 hhcurveto
            -116 -78 40 61 8 hvcurveto
            -36 hlineto
            -132 -36 87 -86 146 hhcurveto
            return
          </CharString>
          <CharString index="74">
            -37 hlineto
            -47 -11 -33 -18 -44 hhcurveto
            -27 -27 7 12 -37 hvcurveto
            -27 10 rlineto
            12 -37 -38 9 -45 hhcurveto
            -82 -68 -49 -99 -21 hvcurveto
            38 hlineto
            47 11 32 18 return
          </CharString>
          <CharString index="75">
            1439 rmoveto
            -177 -4 hlineto
            261 -347 rlineto
            41 hlineto
            196 351 rmoveto
            -168 -4 hlineto
            200 -347 rlineto
            39 hlineto
            return
          </CharString>
          <CharString index="76">
            rmoveto
            468 240 351 344 214 136 -114 -292 7 vhcurveto
            30 -2 60 318 rlineto
            72 -26 callgsubr
            return
          </CharString>
          <CharString index="77">
            0 -65 callsubr
            169 callsubr
            59 -49 11 -232 rlinecurve
            30 hlineto
            return
          </CharString>
          <CharString index="78">
            1432 rmoveto
            468 -88 8 37 -448 183 rlineto
            return
          </CharString>
          <CharString index="79">
            1013 hmoveto
            29 callsubr
            60 callsubr
            return
          </CharString>
          <CharString index="80">
            190 0 123 578 rlineto
            64 callsubr
            return
          </CharString>
          <CharString index="81">
            -7 -34 114 -14 14 -20 -20 -93 callsubr
            return
          </CharString>
          <CharString index="82">
            657 1444 rmoveto
            -91 callgsubr
            return
          </CharString>
          <CharString index="83">
            rmoveto
            81 67 57 117 25 hvcurveto
            -36 hlineto
            return
          </CharString>
          <CharString index="84">
            14 rlinecurve
            7 34 -476 0 -7 -34 return
          </CharString>
          <CharString index="85">
            1444 rmoveto
            -1120 hlineto
            return
          </CharString>
          <CharString index="86">
            -173 -810 190 0 return
          </CharString>
          <CharString index="87">
            rmoveto
            80 57 56 173 21 hvcurveto
            -34 hlineto
            -90 -17 -26 -35 -41 hhcurveto
            -28 -21 14 26 -32 hvcurveto
            -30 24 rlineto
            29 -38 -33 19 -46 hhcurveto
            -79 -58 -57 -172 -20 hvcurveto
            34 hlineto
            89 17 25 35 42 hhcurveto
            27 21 -13 -27 33 hvcurveto
            30 -23 rlineto
            -29 37 34 -19 45 hhcurveto
            endchar
          </CharString>
          <CharString index="88">
            rmoveto
            -150 -93 -106 -170 -7 hvcurveto
            34 hlineto
            98 19 66 59 128 hhcurveto
            97 66 -52 -75 -11 -1 -11 -2 -8 hvcurveto
            34 hlineto
            11 28 7 32 29 vvcurveto
            108 -1 -85 79 -123 hhcurveto
            return
          </CharString>
          <CharString index="89">
            -56 -13 -33 -20 -27 callgsubr
            -79 -69 -57 -117 -25 hvcurveto
            37 hlineto
            56 13 32 20 44 hhcurveto
            26 26 -7 -15 36 hvcurveto
            25 -10 rlineto
            -15 36 36 -11 44 hhcurveto
            return
          </CharString>
          <CharString index="90">
            rmoveto
            -427 -3 309 -244 334 hhcurveto
            175 170 50 77 98 hvcurveto
            87 403 18 85 22 25 110 -96 callgsubr
            165 callsubr
            endchar
          </CharString>
          <CharString index="91">
            rmoveto
            150 123 73 112 16 hvcurveto
            -37 hlineto
            -52 -16 -95 -34 -120 hhcurveto
            -119 -80 34 52 6 hvcurveto
            -38 hlineto
            -112 -32 93 -73 149 hhcurveto
            return
          </CharString>
          <CharString index="92">
            44 hhcurveto
            27 27 -6 -13 37 hvcurveto
            27 -9 rlineto
            -13 38 37 -9 45 hhcurveto
            return
          </CharString>
          <CharString index="93">
            -437 -3 292 -234 334 116 callsubr
          </CharString>
          <CharString index="94">
            rmoveto
            -290 92 callsubr
            153 callsubr
            endchar
          </CharString>
          <CharString index="95">
            478 0 7 34 -115 14 -13 20 20 93 rlinecurve
            return
          </CharString>
          <CharString index="96">
            1506 828 27 callsubr
            return
          </CharString>
          <CharString index="97">
            rmoveto
            487 hlineto
            21 97 rlineto
            -487 hlineto
            return
          </CharString>
          <CharString index="98">
            1847 112 callsubr
            return
          </CharString>
          <CharString index="99">
            1584 107 callsubr
            return
          </CharString>
          <CharString index="100">
            198 -17 75 callsubr
            return
          </CharString>
          <CharString index="101">
            -177 -104 callsubr
            return
          </CharString>
          <CharString index="102">
            rmoveto
            122 571 133 -2 304 -730 286 0 7 32 -62 21 -41 43 -88 209 rlinecurve
            -238 569 364 329 145 131 77 57 103 19 rlinecurve
            7 34 -395 0 -7 -34 135 -14 -6 -55 -112 -109 rlinecurve
            -470 -458 -134 -2 109 511 19 93 24 21 113 13 rlinecurve
            7 34 -472 0 76 callsubr
            -19 88 callsubr
            472 0 7 34 -109 13 -14 21 20 93 rlinecurve
            endchar
          </CharString>
          <CharString index="103">
            1422 rmoveto
            -167 -103 -123 -194 -9 hvcurveto
            34 hlineto
            112 23 74 67 142 hhcurveto
            110 73 -60 -85 -12 -1 -13 -3 -9 hvcurveto
            35 hlineto
            13 31 8 36 34 vvcurveto
            124 -93 92 -136 vhcurveto
            return
          </CharString>
          <CharString index="104">
            1367 -24 callsubr
            -55 -13 -33 -21 -27 callgsubr
            -80 -68 -57 -117 -25 hvcurveto
            37 hlineto
            56 13 32 21 44 hhcurveto
            26 26 -8 -15 36 hvcurveto
            25 -10 rlineto
            -15 36 36 -11 44 hhcurveto
            return
          </CharString>
          <CharString index="105">
            1262 rmoveto
            -106 100 -59 107 144 101 79 112 105 -100 59 -107 -143 -102 -78 -112 vhcurveto
            132 -29 rmoveto
            94 52 86 61 49 26 -35 -62 -94 -51 -86 -62 -49 -26 35 62 vhcurveto
            return
          </CharString>
          <CharString index="106">
            rmoveto
            120 -1214 82 0 628 1211 103 -1211 83 0 621 1185 100 189 41 28 103 15 rlinecurve
            7 34 -370 0 -7 -34 160 callsubr
            endchar
          </CharString>
          <CharString index="107">
            -206 -44 72 87 callsubr
            108 196 71 hvcurveto
            -1 -23 -105 -1 vvcurveto
            -132 -28 46 -62 100 hhcurveto
            return
          </CharString>
          <CharString index="108">
            rmoveto
            128 123 61 86 62 hvcurveto
            7 38 rlineto
            101 callsubr
            -266 165 -134 191 hvcurveto
            endchar
          </CharString>
          <CharString index="109">
            -446 rmoveto
            74 callsubr
            return
          </CharString>
          <CharString index="110">
            rmoveto
            -322 81 callsubr
            -21 callsubr
            114 callsubr
            endchar
          </CharString>
          <CharString index="111">
            264 1246 55 -3 260 -15 61 -52 2 -231 rlinecurve
            32 hlineto
            return
          </CharString>
          <CharString index="112">
            -37 -33 -62 -51 -50 19 31 -30 hvcurveto
            -8 -34 rlineto
            -55 36 60 -42 88 hhcurveto
            return
          </CharString>
          <CharString index="113">
            -101 -476 rlineto
            -186 -46 -102 -108 -98 hhcurveto
            -91 -52 69 177 hvcurveto
            return
          </CharString>
          <CharString index="114">
            rmoveto
            53 42 42 52 50 -39 40 -51 -53 -43 -42 -53 -50 40 -39 51 hvcurveto
            return
          </CharString>
          <CharString index="115">
            1545 rmoveto
            -75 -58 -38 -34 -34 hvcurveto
            -7 -32 rlineto
            14 22 38 13 return
          </CharString>
          <CharString index="116">
            -30 -47 -15 -34 hhcurveto
            -46 -22 29 63 13 hvcurveto
            -68 callgsubr
            return
          </CharString>
          <CharString index="117">
            rmoveto
            -50 callgsubr
            291 hmoveto
            -50 callgsubr
            return
          </CharString>
          <CharString index="118">
            1388 rmoveto
            487 hlineto
            21 96 rlineto
            -487 hlineto
            return
          </CharString>
          <CharString index="119">
            588 432 161 -82 callsubr
            return
          </CharString>
          <CharString index="120">
            -14 rlinecurve
            -7 -34 476 0 7 34 return
          </CharString>
          <CharString index="121">
            1492 32 callsubr
            return
          </CharString>
          <CharString index="122">
            1077 -39 callgsubr
            return
          </CharString>
          <CharString index="123">
            rmoveto
            -152 -188 -49 -28 -102 -14 rrcurveto
            -7 -34 381 0 7 34 -137 21 -1 33 123 165 rlinecurve
            316 418 180 -470 40 -102 -9 -42 -133 -23 rlinecurve
            -7 -34 492 0 7 34 -80 22 -34 24 -50 130 rlinecurve
            -209 546 352 429 149 182 48 29 102 14 rlinecurve
            7 34 -381 0 -7 -34 137 -21 2 -33 -124 -165 rlinecurve
            -301 -395 -171 447 -43 111 15 36 130 20 rlinecurve
            7 34 -497 0 -7 -34 rlineto
            89 -19 31 -27 49 -130 201 -523 rcurveline
            endchar
          </CharString>
          <CharString index="124">
            262 hlineto
            6 32 rlineto
            -67 21 -36 46 -81 214 -144 382 rcurveline
            220 53 160 124 215 vvcurveto
            222 -176 135 -316 vhcurveto
            -463 hlineto
            -7 -34 113 -14 15 -19 -20 -94 rlinecurve
            -239 -1122 -20 -94 -22 -19 -120 -14 rlinecurve
            -7 -34 473 0 7 34 rlineto
            -110 13 -13 20 20 94 106 503 rcurveline
            111 hlineto
            34 33 1 2 33 hvcurveto
            355 417 rmoveto
            -234 -167 -134 -281 -9 vhcurveto
            -110 -4 151 701 103 -3 rlineto
            194 -7 110 -122 -188 vvcurveto
            return
          </CharString>
          <CharString index="125">
            rmoveto
            -387 1 252 -256 367 hhcurveto
            436 314 383 453 284 -139 207 -211 96 hvcurveto
            -6 36 40 -4 47 hhcurveto
            174 147 68 137 78 -46 68 -65 31 hvcurveto
            -31 hlineto
            9 -17 5 -30 -31 vvcurveto
            -145 -108 -115 -188 vhcurveto
            -99 -65 23 -125 hhcurveto
            -436 -316 -384 -453 1 hvcurveto
            226 -73 rmoveto
            417 215 442 329 90 callsubr
            -464 -236 -395 -309 -226 -148 182 338 vhcurveto
            endchar
          </CharString>
          <CharString index="126">
            7 34 rlineto
            -134 13 -16 29 18 87 91 427 rcurveline
            121 hlineto
            348 336 134 327 223 -166 170 -352 hvcurveto
            -449 hlineto
            -7 -34 rlineto
            114 -14 15 -22 -20 -93 -238 -1118 rcurveline
            -21 -93 -23 -22 -120 -14 -7 -34 rcurveline
            642 1404 rmoveto
            95 -3 rlineto
            216 -8 106 -136 -192 vvcurveto
            -254 -174 -168 -305 -10 vhcurveto
            -103 -3 rlineto
            endchar
          </CharString>
          <CharString index="127">
            rmoveto
            -333 hlineto
            -7 -34 102 -16 20 -38 -28 -111 rlinecurve
            -243 -993 -40 -160 -30 -38 -124 -20 rlinecurve
            -7 -34 367 0 7 34 -130 20 -10 37 36 161 rlinecurve
            229 1036 212 -1288 77 0 130 234 604 1054 -206 -1130 -16 -89 -24 -19 -121 -16 rlinecurve
            -7 -34 477 0 7 34 -81 callgsubr
            endchar
          </CharString>
          <CharString index="128">
            rmoveto
            45 -40 106 145 1 1 61 -39 rlineto
            -86 133 66 -21 87 hhcurveto
            118 115 74 155 75 hvcurveto
            -24 19 rlineto
            -84 -48 -56 -30 -61 hhcurveto
            -78 -55 22 72 -122 hvcurveto
            -91 55 586 669 7 33 -652 0 -76 -276 rlineto
            29 hlineto
            104 43 27 16 97 hhcurveto
            353 hlineto
            return
          </CharString>
          <CharString index="129">
            rmoveto
            130 118 61 86 63 hvcurveto
            7 38 rlineto
            105 callsubr
            -259 159 -138 192 vhcurveto
            137 959 rmoveto
            75 30 -42 -75 -150 -130 -122 -208 -66 hvcurveto
            -56 -18 rlineto
            242 18 109 231 162 hhcurveto
            return
          </CharString>
          <CharString index="130">
            13 hvcurveto
            172 800 -88 0 -107 -93 rlineto
            53 -22 -64 57 -129 hhcurveto
            -303 -194 -323 -330 hvcurveto
            198 -17 rmoveto
            271 1 112 343 226 hhcurveto
            81 55 -41 -49 15 hvcurveto
            6 callsubr
            return
          </CharString>
          <CharString index="131">
            -115 -265 -111 -52 -319 -12 rrcurveto
            -278 -10 1035 1372 6 32 -946 0 -88 -341 rlineto
            31 hlineto
            97 218 88 58 268 12 rrcurveto
            299 13 -1033 -1372 -6 -32 rlineto
            return
          </CharString>
          <CharString index="132">
            rmoveto
            -331 -40 80 callsubr
            -104 -493 rcurveline
            -205 -43 71 87 callsubr
            107 196 71 hvcurveto
            -1 -22 -101 -1 vvcurveto
            -132 -29 46 -62 151 callsubr
            endchar
          </CharString>
          <CharString index="133">
            119 hlineto
            36 170 111 0 21 97 -112 0 98 461 -63 0 -505 -522 -7 -36 rlineto
            338 hlineto
            21 97 rmoveto
            -246 hlineto
            317 330 rlineto
            endchar
          </CharString>
          <CharString index="134">
            rmoveto
            371 -1 -274 245 -445 hhcurveto
            -424 82 callsubr
            39 callsubr
            -120 -14 -7 -34 rcurveline
            451 hlineto
            554 446 328 500 hvcurveto
            return
          </CharString>
          <CharString index="135">
            276 2 103 324 203 hhcurveto
            118 65 -104 -209 -2 hvcurveto
            -275 -2 -103 -324 -203 hhcurveto
            return
          </CharString>
          <CharString index="136">
            104 395 rlineto
            -32 hlineto
            -109 -257 -109 -79 -247 -11 rrcurveto
            -211 -8 return
          </CharString>
          <CharString index="137">
            rmoveto
            -432 -93 244 -181 298 hhcurveto
            149 callsubr
            endchar
          </CharString>
          <CharString index="138">
            rmoveto
            -204 -268 39 0 361 263 rlineto
            5 vlineto
            return
          </CharString>
          <CharString index="139">
            rmoveto
            -135 -359 48 0 290 353 rlineto
            6 vlineto
            return
          </CharString>
          <CharString index="140">
            -683 329 rmoveto
            347 649 78 -649 rlineto
            return
          </CharString>
          <CharString index="141">
            rmoveto
            58 hlineto
            1216 1444 rlineto
            -58 hlineto
            return
          </CharString>
          <CharString index="142">
            1834 rmoveto
            483 -75 6 32 -466 return
          </CharString>
          <CharString index="143">
            1833 93 callsubr
            -7 -32 rlineto
            return
          </CharString>
          <CharString index="144">
            611 413 -16 59 callsubr
            return
          </CharString>
          <CharString index="145">
            rmoveto
            499 hlineto
            17 82 rlineto
            -499 hlineto
            return
          </CharString>
          <CharString index="146">
            -239 -1122 rcurveline
            -20 -93 -22 -20 return
          </CharString>
          <CharString index="147">
            -87 107 -168 -93 callgsubr
            return
          </CharString>
          <CharString index="148">
            1804 121 callsubr
            return
          </CharString>
          <CharString index="149">
            -118 -65 104 208 2 hvcurveto
            return
          </CharString>
          <CharString index="150">
            rmoveto
            -57 41 -42 59 72 52 46 189 108 vhcurveto
            99 174 56 -185 rlineto
            -160 49 49 -62 103 hhcurveto
            82 66 42 56 32 hvcurveto
            8 36 rlineto
            -25 -21 -34 -16 -32 hhcurveto
            -47 -38 31 125 -38 hvcurveto
            -89 295 119 199 44 74 33 49 28 31 rlinecurve
            -54 44 -44 54 54 44 45 57 57 -41 42 -59 -72 -54 -46 -189 -106 vhcurveto
            -100 -180 -123 408 -275 -40 -6 -33 60 -10 51 -11 15 -16 17 -57 rlinecurve
            114 -377 -117 -194 -45 -74 -32 -48 -28 -31 rlinecurve
            53 -43 44 -55 -54 -44 -45 -57 vhcurveto
            endchar
          </CharString>
          <CharString index="151">
            rmoveto
            253 244 150 273 152 -71 119 -170 121 hvcurveto
            -114 85 rlineto
            -132 93 -49 83 105 vvcurveto
            156 111 99 175 187 113 -132 -253 8 vhcurveto
            30 hlineto
            48 320 rlineto
            64 -74 -136 51 -183 hhcurveto
            -277 -195 -151 -244 -149 85 -116 157 -112 hvcurveto
            114 -85 rlineto
            133 -94 47 -91 -117 vvcurveto
            -177 -144 -100 -168 -194 -145 113 264 -3 vhcurveto
            -30 hlineto
            -52 -319 rlineto
            -61 82 187 -47 163 hhcurveto
            return
          </CharString>
          <CharString index="152">
            rmoveto
            248 209 223 395 73 hvcurveto
            242 42 -71 143 -126 hhcurveto
            -75 -60 -63 -98 9 hvcurveto
            145 -39 60 -138 -36 -196 rrcurveto
            -233 -43 -109 -146 -172 hhcurveto
            -143 -53 93 167 35 hvcurveto
            12 56 75 315 9 44 rrcurveto
            159 34 -60 71 -123 hhcurveto
            -75 -73 -26 -36 -41 hvcurveto
            -8 -34 rlineto
            12 20 20 5 24 hhcurveto
            71 39 -40 -118 -25 hvcurveto
            -14 -66 -74 -315 -10 -48 rrcurveto
            -193 -41 84 -136 223 hhcurveto
            endchar
          </CharString>
          <CharString index="153">
            rmoveto
            2 -120 -157 -33 -104 -14 -5 -29 rcurveline
            1 10 16 2 17 hhcurveto
            115 57 -70 -81 hvcurveto
            -106 1 -74 -73 -100 hhcurveto
            -48 -41 14 21 -27 hvcurveto
            33 3 21 26 31 vvcurveto
            34 -26 28 -36 -35 -28 -27 -36 -77 96 -58 113 148 140 87 145 vhcurveto
            -1 91 -66 76 -108 20 99 13 124 55 -1 110 rrcurveto
            100 -97 53 -99 -105 -100 -57 -116 -41 vhcurveto
            20 -9 rlineto
            72 37 56 34 69 hhcurveto
            77 47 -49 -61 1 hvcurveto
            endchar
          </CharString>
          <CharString index="154">
            rmoveto
            -56 64 115 -39 124 hhcurveto
            185 162 115 175 hvcurveto
            1 112 -45 80 -116 84 -77 58 rcurveline
            -82 59 -34 51 73 vvcurveto
            91 57 60 107 146 54 -137 -140 -4 vhcurveto
            30 hlineto
            52 248 rlineto
            42 -56 -96 32 -126 hhcurveto
            -205 -127 -113 -159 -100 51 -85 109 -79 hvcurveto
            77 -58 rlineto
            89 -65 28 -57 -80 vvcurveto
            -107 -78 -54 -102 -133 -94 105 197 -1 vhcurveto
            -30 hlineto
            return
          </CharString>
          <CharString index="155">
            rmoveto
            211 -104 139 -149 -141 -116 -99 -182 -61 vhcurveto
            59 275 -326 81 callsubr
            -241 -1137 -14 -63 -19 -16 -114 -19 rlinecurve
            -7 -35 467 0 7 35 rlineto
            -128 21 -15 14 13 66 85 402 rcurveline
            -46 24 61 -50 118 139 callsubr
            -113 -344 -226 -81 -55 41 49 -15 vhcurveto
            101 -38 callgsubr
          </CharString>
          <CharString index="156">
            123 573 rlineto
            186 46 117 141 121 hhcurveto
            103 31 -83 -113 -24 hvcurveto
            -151 -704 190 0 122 573 rlineto
            186 46 116 141 122 hhcurveto
            102 32 -83 -119 -25 hvcurveto
            -110 -507 rlineto
            -144 -31 48 -62 104 hhcurveto
            84 -42 callsubr
            -29 -49 -15 -34 hhcurveto
            -45 -22 29 63 14 hvcurveto
            174 callsubr
            endchar
          </CharString>
          <CharString index="157">
            1647 934 -23 rmoveto
            414 348 336 475 366 -284 314 -392 -421 -341 -336 -475 -367 276 -313 400 hvcurveto
            -1 37 rmoveto
            -370 -262 297 346 455 329 319 391 362 270 -298 -345 -456 -337 -318 -383 hvcurveto
            return
          </CharString>
          <CharString index="158">
            1442 757 -21 rmoveto
            330 201 221 342 78 hvcurveto
            146 641 39 169 24 39 126 19 rlinecurve
            7 34 -366 0 -7 -34 rlineto
            132 -20 8 -38 -33 -169 -128 -631 rcurveline
            -320 -64 -191 -177 69 callsubr
            -73 callgsubr
            return
          </CharString>
          <CharString index="159">
            26 119 -378 0 201 136 rlineto
            182 126 77 73 112 vvcurveto
            109 -88 63 -112 -122 -90 -67 -110 -42 vhcurveto
            20 -10 rlineto
            73 38 54 38 71 hhcurveto
            82 48 -51 -77 1 hvcurveto
            1 -98 -67 -80 -163 -131 rrcurveto
            -168 -137 -19 -88 rlineto
            endchar
          </CharString>
          <CharString index="160">
            1357 rmoveto
            47 44 36 47 10 hvcurveto
            46 10 -28 37 -47 hhcurveto
            -5 hlineto
            -47 -45 -37 -46 -9 hvcurveto
            -47 -10 28 -36 47 hhcurveto
            304 hmoveto
            47 44 36 47 10 hvcurveto
            46 10 -28 37 -47 hhcurveto
            -6 hlineto
            -46 -45 -37 -46 -10 hvcurveto
            -47 -10 29 -36 47 hhcurveto
            return
          </CharString>
          <CharString index="161">
            1890 rmoveto
            -73 -56 -33 -29 -33 hvcurveto
            -6 -27 rlineto
            13 21 39 10 40 hhcurveto
            54 31 -22 -35 -8 hvcurveto
            -7 -35 -35 -24 -61 -16 rrcurveto
            25 -20 116 22 68 32 14 64 rlinecurve
            64 14 -66 36 -77 hhcurveto
            -544 -386 68 callsubr
            return
          </CharString>
          <CharString index="162">
            1143 rmoveto
            142 128 77 170 55 hvcurveto
            -38 15 rlineto
            -152 -51 -105 -69 -128 hhcurveto
            -66 -50 25 38 -30 hvcurveto
            -5 12 12 -2 13 hhcurveto
            49 41 44 53 57 -43 41 -54 -60 -41 -47 -59 -110 89 -76 125 hvcurveto
            return
          </CharString>
          <CharString index="163">
            rmoveto
            144 125 81 162 50 hvcurveto
            -38 13 rlineto
            -141 -45 -109 -74 -124 hhcurveto
            -57 -45 21 31 -29 hvcurveto
            -2 8 8 -1 8 hhcurveto
            47 39 39 50 54 -40 40 -50 -56 -38 -44 -55 -93 78 -81 124 hvcurveto
            return
          </CharString>
          <CharString index="164">
            rmoveto
            176 -145 138 -253 16 vhcurveto
            210 18 254 88 2 240 rrcurveto
            193 2 -177 131 -329 hhcurveto
            -443 82 callsubr
            39 callsubr
            155 callsubr
            endchar
          </CharString>
          <CharString index="165">
            rmoveto
            -141 -710 rlineto
            -172 -35 63 -104 150 hhcurveto
            113 95 65 55 52 hvcurveto
            6 32 rlineto
            -36 -37 -62 -10 -51 hhcurveto
            -98 -45 53 160 36 hvcurveto
            32 133 104 438 24 96 rrcurveto
            endchar
          </CharString>
          <CharString index="166">
            rmoveto
            96 94 40 74 45 hvcurveto
            6 36 rlineto
            -36 -31 -51 -24 -59 hhcurveto
            -92 -40 60 141 30 hvcurveto
            132 619 124 callsubr
            -124 -590 rlineto
            -198 -41 79 -113 149 hhcurveto
            return
          </CharString>
          <CharString index="167">
            264 1243 20 93 24 20 124 14 rlinecurve
            7 34 -483 0 -7 -34 rlineto
            -97 callsubr
            -96 -239 -1119 rcurveline
            -19 -92 -22 -21 -120 -14 -8 -34 rcurveline
            return
          </CharString>
          <CharString index="168">
            1764 rmoveto
            83 67 49 99 21 hvcurveto
            -33 callsubr
            45 hhcurveto
            27 27 -6 -13 37 hvcurveto
            26 -9 rlineto
            -13 38 37 -9 45 hhcurveto
            -415 -260 68 callsubr
            return
          </CharString>
          <CharString index="169">
            1439 rmoveto
            -108 -359 45 0 255 353 rlineto
            6 vlineto
            -440 -305 rmoveto
            -30 callgsubr
            486 hmoveto
            -30 callgsubr
            return
          </CharString>
          <CharString index="170">
            1440 rmoveto
            -175 -352 45 0 314 347 rlineto
            5 vlineto
            153 hmoveto
            -227 -352 46 0 379 347 rlineto
            5 vlineto
            return
          </CharString>
          <CharString index="171">
            193 51 132 129 115 -74 callgsubr
            -48 -15 -35 hhcurveto
            -45 -22 29 63 14 hvcurveto
            108 505 rlineto
            205 44 return
          </CharString>
          <CharString index="172">
            42 hhcurveto
            55 132 callsubr
            17 75 rlinecurve
            75 16 -65 42 -79 hhcurveto
            -517 -476 -71 callsubr
            return
          </CharString>
          <CharString index="173">
            1812 rmoveto
            483 -75 6 32 -466 155 rlineto
            -89 -420 68 callsubr
            return
          </CharString>
          <CharString index="174">
            1334 rmoveto
            49 38 37 49 47 -39 38 -49 -49 -38 -38 -47 -49 39 -37 49 hvcurveto
            return
          </CharString>
          <CharString index="175">
            rmoveto
            268 90 231 -90 6 32 -198 167 -32 0 -268 -167 rlineto
            return
          </CharString>
          <CharString index="176">
            -229 hhcurveto
            -240 -157 157 374 80 hvcurveto
            147 689 21 return
          </CharString>
          <CharString index="177">
            rmoveto
            63 49 49 62 59 -45 45 -61 -62 -50 -49 -62 -58 46 -46 60 hvcurveto
            return
          </CharString>
          <CharString index="178">
            rmoveto
            47 35 31 41 41 -39 32 -47 -46 -35 -32 -41 -41 39 -31 46 hvcurveto
            return
          </CharString>
          <CharString index="179">
            1092 559 979 rmoveto
            -50 callsubr
            102 callsubr
            return
          </CharString>
          <CharString index="180">
            1812 -98 callgsubr
            -50 -233 68 callsubr
            return
          </CharString>
          <CharString index="181">
            128 81 70 97 100 -74 64 -110 hvcurveto
            -2 -2 0 -3 hhcurveto
            return
          </CharString>
          <CharString index="182">
            rmoveto
            271 113 343 226 81 55 -41 -49 15 vhcurveto
            return
          </CharString>
          <CharString index="183">
            -7 -34 115 -14 13 -20 -20 -93 rlinecurve
            -239 -1122 return
          </CharString>
          <CharString index="184">
            477 0 7 34 -109 13 -17 21 20 93 rlinecurve
            return
          </CharString>
          <CharString index="185">
            rmoveto
            -394 -242 -390 -522 -22 vhcurveto
            -103 -4 return
          </CharString>
          <CharString index="186">
            rmoveto
            258 393 -168 0 -123 -393 rlineto
            return
          </CharString>
          <CharString index="187">
            -7 -33 62 -13 rlineto
            50 -14 10 -18 -11 -50 return
          </CharString>
          <CharString index="188">
            -41 -7 -33 61 -13 -92 callsubr
            rlinecurve
            return
          </CharString>
          <CharString index="189">
            hlineto
            -7 -34 rlineto
            114 -14 14 -20 -20 -93 return
          </CharString>
          <CharString index="190">
            -229 -321 -189 -272 -301 return
          </CharString>
          <CharString index="191">
            996 876 -15 98 callsubr
            return
          </CharString>
          <CharString index="192">
            652 1445 109 callsubr
            return
          </CharString>
          <CharString index="193">
            rmoveto
            934 hlineto
            14 63 rlineto
            -935 hlineto
            return
          </CharString>
          <CharString index="194">
            -130 184 hhcurveto
            149 139 return
          </CharString>
          <CharString index="195">
            -93 -22 -20 -120 -14 rlinecurve
            -7 -34 return
          </CharString>
          <CharString index="196">
            1834 93 callsubr
            return
          </CharString>
          <CharString index="197">
            226 149 -181 -339 return
          </CharString>
          <CharString index="198">
            0 547 -45 callsubr
            return
          </CharString>
          <CharString index="199">
            -41 -7 -33 58 -11 rlineto
            50 -12 return
          </CharString>
          <CharString index="200">
            rmoveto
            24 113 -532 -156 return
          </CharString>
          <CharString index="201">
            rmoveto
            -55 45 -42 53 55 43 44 53 54 -42 41 -50 1 vhcurveto
            29 43 60 19 70 hhcurveto
            212 17 -175 -155 -22 hvcurveto
            -10 -64 -151 -17 rlineto
            -294 -33 -160 -103 -182 vvcurveto
            -124 105 -93 158 149 120 84 223 54 vhcurveto
            -203 30 138 -105 170 hhcurveto
            130 116 57 89 68 hvcurveto
            7 37 rlineto
            -53 -52 -78 -46 -95 hhcurveto
            -175 -74 142 210 27 1 27 3 26 hvcurveto
            75 5 366 25 135 116 2 138 rlinecurve
            135 2 -123 69 -152 hhcurveto
            -119 -120 -55 -101 -94 hvcurveto
            102 -47 -104 54 -141 hhcurveto
            -185 -139 -91 -110 hvcurveto
            943 156 rmoveto
            92 33 -66 -75 -3 hvcurveto
            -4 -107 -80 -126 -262 -25 -71 -6 rcurveline
            224 30 116 181 149 hhcurveto
            -879 -709 rmoveto
            133 98 93 204 25 vhcurveto
            102 12 -16 -110 rlineto
            -240 -44 -94 -71 -103 hhcurveto
            -84 -63 53 105 hvcurveto
            endchar
          </CharString>
          <CharString index="202">
            rmoveto
            -882 hlineto
            -856 -1199 -120 -167 -43 -29 -105 -15 rlinecurve
            -8 -34 389 0 7 34 -142 19 -7 38 107 154 rlinecurve
            275 398 424 0 -95 -472 -20 -102 -13 -20 -147 -15 rlinecurve
            -7 -34 1018 0 99 379 rlineto
            -29 hlineto
            -106 -250 -100 -67 -283 -12 rrcurveto
            -232 -10 132 677 229 -4 126 -4 20 -48 -3 -154 rlinecurve
            29 hlineto
            93 450 rlineto
            -29 hlineto
            -58 -148 -41 -39 -126 -4 rrcurveto
            -231 -4 125 642 209 -10 259 -12 44 -49 15 -230 rlinecurve
            29 hlineto
            -810 296 rmoveto
            55 hlineto
            -142 -706 rlineto
            -400 hlineto
            endchar
          </CharString>
          <CharString index="203">
            1274 435 161 rmoveto
            122 571 133 -2 304 -730 286 0 7 32 -62 21 -41 43 -88 209 rlinecurve
            -238 569 364 329 145 131 77 57 103 19 rlinecurve
            7 34 -395 0 -7 -34 135 -14 -6 -55 -112 -109 rlinecurve
            -470 -458 -134 -2 109 511 19 93 24 21 113 13 rlinecurve
            7 34 -472 0 76 callsubr
            -19 88 callsubr
            472 0 7 34 -109 13 -14 21 20 93 rlinecurve
            return
          </CharString>
          <CharString index="204">
            rmoveto
            -113 61 -71 83 77 63 50 90 31 vhcurveto
            -1 -3 -6 -32 -4 vvcurveto
            -67 -11 28 -32 58 hhcurveto
            55 56 25 35 25 hvcurveto
            6 27 rlineto
            -12 -15 -23 -6 -18 hhcurveto
            -24 -12 15 35 8 hvcurveto
            82 387 -75 0 -60 -53 rlineto
            32 -13 -39 31 -70 hhcurveto
            -162 -105 -157 -177 1 hvcurveto
            139 -12 rmoveto
            126 -1 52 174 110 hhcurveto
            38 27 -17 -22 8 hvcurveto
            -52 -241 rlineto
            -81 -19 -47 -46 -46 hhcurveto
            -43 -26 29 78 -1 hvcurveto
            endchar
          </CharString>
          <CharString index="205">
            rmoveto
            82 58 38 58 32 hvcurveto
            7 36 rlineto
            -24 -21 -28 -15 -29 hhcurveto
            -51 -37 40 143 -51 hvcurveto
            -132 373 168 134 152 122 65 31 85 17 rlinecurve
            6 30 -362 0 -6 -30 118 -14 5 -33 -112 -98 rlinecurve
            -370 -323 215 1006 -52 callsubr
            190 0 90 421 115 93 102 -292 rlineto
            -164 56 58 -73 100 hhcurveto
            return
          </CharString>
          <CharString index="206">
            rmoveto
            179 109 134 159 -1 hvcurveto
            131 -88 93 -133 -179 -108 -134 -158 -131 89 -94 132 vhcurveto
            3 35 rmoveto
            -54 -31 44 90 -1 hvcurveto
            132 -1 50 182 98 hhcurveto
            54 31 -44 -90 1 hvcurveto
            -132 1 -50 -182 -98 hhcurveto
            endchar
          </CharString>
          <CharString index="207">
            rmoveto
            72 1 52 51 19 158 rrcurveto
            -33 hlineto
            -80 -15 -22 -30 -36 hhcurveto
            -25 -19 12 23 -29 hvcurveto
            -26 21 rlineto
            26 -33 -31 16 -40 hhcurveto
            -72 -52 -52 -157 -19 hvcurveto
            33 hlineto
            80 14 23 30 36 hhcurveto
            25 19 -12 -24 29 hvcurveto
            26 -21 rlineto
            -25 33 30 -17 41 hhcurveto
            return
          </CharString>
          <CharString index="208">
            -58 -55 -92 -41 -84 hhcurveto
            -148 -100 116 205 271 121 274 214 56 45 -18 -30 30 hvcurveto
            1 -4 -5 0 -5 hhcurveto
            -55 -47 -44 -57 -56 43 -45 57 58 46 46 58 112 -93 85 -154 -1 hvcurveto
            -276 -228 -251 -352 return
          </CharString>
          <CharString index="209">
            -173 -810 191 0 122 573 rlineto
            186 47 123 141 127 -74 callgsubr
            -49 -15 -34 hhcurveto
            -45 -22 29 63 14 hvcurveto
            108 505 rlineto
            205 44 -88 107 -167 hhcurveto
            -158 -138 -111 -203 -73 hvcurveto
            return
          </CharString>
          <CharString index="210">
            rmoveto
            -94 2 102 -53 107 hhcurveto
            143 101 71 99 -3 hvcurveto
            94 -3 -101 53 -107 hhcurveto
            -144 -100 -71 -99 3 hvcurveto
            132 -25 rmoveto
            82 -2 49 75 62 hhcurveto
            48 28 -30 -54 2 hvcurveto
            -82 2 -50 -75 -61 hhcurveto
            -49 -27 30 54 -2 hvcurveto
            endchar
          </CharString>
          <CharString index="211">
            rmoveto
            155 96 111 175 7 hvcurveto
            -32 hlineto
            -101 -20 -69 -61 -132 hhcurveto
            -102 -69 54 77 -1 hvcurveto
            11 2 11 2 9 vhcurveto
            -33 hlineto
            -12 -28 -6 -33 -30 vvcurveto
            -112 1 86 -83 127 hhcurveto
            endchar
          </CharString>
          <CharString index="212">
            -58 -56 -88 -41 -85 hhcurveto
            -141 -103 113 216 11 0 10 1 11 hvcurveto
            57 17 rlineto
            337 100 161 98 150 vvcurveto
            119 -101 72 -155 -272 -224 -268 -338 return
          </CharString>
          <CharString index="213">
            rmoveto
            55 43 41 53 -1 hvcurveto
            49 -40 38 -53 -54 -44 -41 -52 1 vhcurveto
            -49 41 -39 52 vhcurveto
            349 hmoveto
            55 42 41 53 49 -40 38 -53 -54 -44 -41 -52 hvcurveto
            -49 1 40 -39 53 hhcurveto
            endchar
          </CharString>
          <CharString index="214">
            rmoveto
            150 93 106 170 7 hvcurveto
            -34 hlineto
            -98 -19 -67 -60 -127 hhcurveto
            -97 -66 53 75 10 1 12 2 8 hvcurveto
            -34 hlineto
            -11 -28 -7 -32 -29 vvcurveto
            -109 1 85 -78 123 hhcurveto
            return
          </CharString>
          <CharString index="215">
            rmoveto
            147 97 61 89 66 hvcurveto
            8 37 rlineto
            -77 -75 -93 -35 -106 hhcurveto
            -109 -83 55 92 98 47 56 148 63 hvcurveto
            58 27 rlineto
            149 61 112 72 161 vvcurveto
            158 return
          </CharString>
          <CharString index="216">
            rmoveto
            -43 hlineto
            -220 -86 -6 -27 105 21 5 1 3 -3 -1 -4 rlinecurve
            -113 -532 -11 -53 -24 -11 -85 -9 rlinecurve
            -5 -26 345 0 5 26 -80 9 -21 12 12 53 rlinecurve
            return
          </CharString>
          <CharString index="217">
            rmoveto
            -95 90 -54 96 129 92 71 100 96 -90 54 -96 -130 -91 -72 -100 vhcurveto
            119 -25 rmoveto
            84 46 77 55 44 24 -32 -55 -84 -46 -77 -55 -44 -24 31 56 vhcurveto
            return
          </CharString>
          <CharString index="218">
            rmoveto
            437 314 384 453 134 callsubr
            hvcurveto
            -388 1 252 -257 366 hhcurveto
            -19 51 rmoveto
            -226 -103 callgsubr
            -24 callgsubr
            return
          </CharString>
          <CharString index="219">
            rmoveto
            -70 -64 -36 -52 -33 hvcurveto
            -6 -27 rlineto
            23 29 35 14 41 hhcurveto
            59 33 -28 -43 -50 -50 -51 -88 -48 hvcurveto
            39 hlineto
            137 44 78 63 77 vvcurveto
            66 -55 48 -85 vhcurveto
            return
          </CharString>
          <CharString index="220">
            rmoveto
            -221 hlineto
            -5 -26 58 -9 10 -21 -15 -59 rlinecurve
            -115 -470 -22 -86 -15 -20 -66 -10 rlinecurve
            -6 -26 201 0 6 26 -67 10 -7 19 20 87 rlinecurve
            105 return
          </CharString>
          <CharString index="221">
            137 658 rlineto
            96 65 108 70 110 hhcurveto
            36 28 -6 -6 16 hvcurveto
            10 13 11 28 29 vvcurveto
            58 -30 38 -58 -81 -71 -68 -218 -141 vhcurveto
            return
          </CharString>
          <CharString index="222">
            9 44 -264 0 41 186 -194 -14 -37 -172 -153 0 -9 -44 153 0 -263 -1238 190 0 123 578 rlineto
            return
          </CharString>
          <CharString index="223">
            hhcurveto
            177 149 40 66 94 hvcurveto
            67 321 -31 -1 rlineto
            -231 -90 -157 -144 -197 hhcurveto
            -240 -166 248 317 hvcurveto
            endchar
          </CharString>
          <CharString index="224">
            rmoveto
            180 13 142 139 174 vvcurveto
            97 -50 58 -73 -75 -47 -67 -76 -2 vhcurveto
            73 -15 48 -44 -73 vvcurveto
            -92 -86 -69 -102 -12 vhcurveto
            return
          </CharString>
          <CharString index="225">
            -61 -35 56 145 1 hvcurveto
            232 2 78 246 117 hhcurveto
            61 36 -61 -144 -2 hvcurveto
            -242 -3 -78 -232 -116 hhcurveto
            return
          </CharString>
          <CharString index="226">
            rmoveto
            -140 -268 37 0 269 265 rlineto
            4 vlineto
            127 -1 rmoveto
            -184 -268 37 0 324 265 rlineto
            4 vlineto
            return
          </CharString>
          <CharString index="227">
            1790 38 callsubr
            202 -308 rmoveto
            47 35 31 42 40 -39 32 -47 -47 -34 -32 -40 -42 38 -31 47 hvcurveto
            return
          </CharString>
          <CharString index="228">
            rmoveto
            -159 -4 hlineto
            235 -264 rlineto
            33 hlineto
            170 268 rmoveto
            -153 -4 hlineto
            184 -264 rlineto
            31 hlineto
            return
          </CharString>
          <CharString index="229">
            44 41 30 40 9 hvcurveto
            40 8 -27 30 -45 hhcurveto
            -5 hlineto
            -45 -41 -30 -40 -9 hvcurveto
            -40 -8 28 -30 44 hhcurveto
            return
          </CharString>
          <CharString index="230">
            rmoveto
            -12 callgsubr
            -239 -1125 rcurveline
            -144 -31 48 -62 -90 callsubr
            -18 callgsubr
            return
          </CharString>
          <CharString index="231">
            249 -9 14 64 -254 -13 51 242 -198 -33 -41 -200 -136 -29 -6 -31 128 0 return
          </CharString>
          <CharString index="232">
            hlineto
            -7 -34 112 -14 15 -19 -20 -94 rlinecurve
            -238 -1122 -20 -94 -22 -19 -119 -14 rlinecurve
            -7 -34 return
          </CharString>
          <CharString index="233">
            738 553 979 rmoveto
            -322 81 callsubr
            -21 callsubr
            114 callsubr
            return
          </CharString>
          <CharString index="234">
            1411 rmoveto
            468 -88 8 38 -448 182 rlineto
            -87 -410 -10 callsubr
            return
          </CharString>
          <CharString index="235">
            183 -369 rmoveto
            50 38 38 48 47 -39 38 -49 -49 -38 -38 -47 -48 38 -38 49 hvcurveto
            return
          </CharString>
          <CharString index="236">
            rmoveto
            -223 -155 -153 155 -37 0 121 -267 100 0 231 267 rlineto
            return
          </CharString>
          <CharString index="237">
            rmoveto
            227 154 157 -154 36 0 -122 268 -104 0 -233 -268 rlineto
            return
          </CharString>
          <CharString index="238">
            461 1283 rmoveto
            -239 -1122 rlineto
            -20 -95 -24 -18 -117 -14 -7 -34 rcurveline
            return
          </CharString>
          <CharString index="239">
            31 -26 -42 -10 hvcurveto
            -8 -40 -36 -28 -63 -19 rrcurveto
            25 -24 119 26 70 38 return
          </CharString>
          <CharString index="240">
            290 1364 89 -4 rlineto
            339 -17 149 -237 -296 vvcurveto
            return
          </CharString>
          <CharString index="241">
            388 -253 256 -365 -437 -316 -384 -452 1 return
          </CharString>
          <CharString index="242">
            68 55 55 69 67 -55 55 -69 -68 -55 -55 -70 -66 55 -55 69 hvcurveto
            return
          </CharString>
          <CharString index="243">
            1411 -99 callgsubr
            -40 -190 -10 callsubr
            return
          </CharString>
          <CharString index="244">
            156 rlineto
            -74 -352 rmoveto
            499 hlineto
            17 83 rlineto
            -499 hlineto
            return
          </CharString>
          <CharString index="245">
            -6 -32 rlineto
            -35 -164 rmoveto
            499 hlineto
            17 83 rlineto
            -499 hlineto
            return
          </CharString>
          <CharString index="246">
            hhcurveto
            303 194 323 330 hvcurveto
            -198 18 rmoveto
            -271 return
          </CharString>
          <CharString index="247">
            173 -50 147 -89 110 hvcurveto
            159 162 -33 32 -156 -160 rlineto
            115 -109 -156 65 -185 hhcurveto
            -437 -316 -384 -452 2 hvcurveto
            -173 51 -147 88 -109 vhcurveto
            -159 -163 33 -32 156 160 rlineto
            -115 110 156 -65 185 hhcurveto
            -394 570 rmoveto
            417 215 442 329 151 116 -80 -154 61 vhcurveto
            -842 -861 rlineto
            -20 68 -10 78 90 vvcurveto
            374 -520 rmoveto
            -150 -117 81 155 -60 hvcurveto
            842 860 rlineto
            19 -67 11 -79 -91 vvcurveto
            -464 -236 -395 -309 vhcurveto
            endchar
          </CharString>
          <CharString index="248">
            rmoveto
            -237 -23 117 -163 195 hhcurveto
            133 105 100 160 62 hvcurveto
            -168 3 118 -92 153 hhcurveto
            250 170 250 321 25 hvcurveto
            272 23 -114 160 -132 hhcurveto
            -80 -56 -65 -101 13 hvcurveto
            164 -34 109 -142 -19 -228 rrcurveto
            -187 -14 -107 -161 -142 hhcurveto
            -138 -80 109 276 58 hvcurveto
            51 241 -195 0 -56 -268 rlineto
            -264 -56 -60 -94 -109 hhcurveto
            -111 -65 106 206 19 hvcurveto
            20 267 114 220 175 85 rrcurveto
            -14 23 -305 -75 -180 -249 -21 -268 rlinecurve
            endchar
          </CharString>
          <CharString index="249">
            rmoveto
            140 117 89 193 113 hvcurveto
            -5 vlineto
            -216 18 52 -55 110 hhcurveto
            72 81 49 43 33 hvcurveto
            7 32 rlineto
            -16 -19 -37 -14 -30 hhcurveto
            -84 -22 26 231 -31 hvcurveto
            -16 116 292 513 rlineto
            -217 hlineto
            -15 -60 -53 -156 -44 -125 rrcurveto
            254 -26 -72 104 -177 hhcurveto
            -250 -196 -248 -334 -24 hvcurveto
            -252 -24 88 -169 214 hhcurveto
            -73 464 rmoveto
            308 23 104 183 140 hhcurveto
            115 18 -123 -353 28 hvcurveto
            8 -108 rlineto
            -213 -92 -90 -75 -101 hhcurveto
            -120 -57 132 249 24 hvcurveto
            endchar
          </CharString>
          <CharString index="250">
            rmoveto
            208 158 88 124 90 hvcurveto
            8 37 rlineto
            -81 -71 -138 -60 -142 hhcurveto
            -149 -92 64 115 6 hvcurveto
            119 4 109 62 244 hhcurveto
            73 hlineto
            1 142 rlineto
            -70 hlineto
            -225 -64 72 101 8 hvcurveto
            106 8 89 67 165 hhcurveto
            110 78 -26 -43 43 hvcurveto
            1 -5 -6 1 -6 hhcurveto
            -57 -37 -47 -51 -48 40 -47 59 53 46 41 63 106 -80 98 -249 -297 -128 -131 -142 -8 hvcurveto
            -9 -113 66 -98 160 -27 -194 -19 -118 -85 -9 -138 rrcurveto
            -151 -12 124 -100 216 hhcurveto
            endchar
          </CharString>
          <CharString index="251">
            hmoveto
            569 hlineto
            51 243 -176 72 -109 162 2 256 rlinecurve
            406 2 206 275 349 hhcurveto
            282 159 -191 -313 -2 hvcurveto
            -2 -309 -177 -267 -321 -95 rrcurveto
            -52 -239 597 0 105 313 rlineto
            -27 hlineto
            -162 -113 -118 -25 -375 hhcurveto
            17 81 459 89 238 292 2 297 rlinecurve
            327 1 -274 252 -389 hhcurveto
            -487 -311 -314 -363 -2 hvcurveto
            -1 -273 167 -219 301 -78 -19 -91 rcurveline
            -373 -78 23 164 -46 hvcurveto
            -28 hlineto
            return
          </CharString>
          <CharString index="252">
            rmoveto
            319 188 274 300 106 -28 94 -50 73 hvcurveto
            108 112 -32 30 -103 -107 rlineto
            75 -65 -94 45 -113 hhcurveto
            -319 -188 -274 -300 -107 28 -95 51 -73 hvcurveto
            -104 -108 32 -30 99 103 rlineto
            -74 66 93 -44 112 hhcurveto
            -182 360 rmoveto
            276 2 104 322 204 hhcurveto
            90 60 -60 -122 23 hvcurveto
            -480 -499 rlineto
            -2 26 -1 27 30 vvcurveto
            183 -315 rmoveto
            -89 -60 59 118 -23 hvcurveto
            479 499 rlineto
            2 -25 1 -26 -28 vvcurveto
            -275 -2 -104 -322 -204 hhcurveto
            endchar
          </CharString>
          <CharString index="253">
            rmoveto
            -24 -129 -128 -28 -7 -31 124 0 -170 -983 rlineto
            -256 -45 -64 -69 -103 hhcurveto
            -11 -11 1 3 -10 hvcurveto
            44 7 34 37 50 vvcurveto
            54 -42 41 -52 -52 -43 -40 -56 -81 66 -66 105 176 157 141 432 76 vhcurveto
            139 795 216 -10 15 65 -224 -12 34 187 rlineto
            227 40 63 79 91 hhcurveto
            14 12 -2 -3 12 hvcurveto
            -41 -9 -32 -36 -48 vvcurveto
            -55 43 -42 52 54 44 43 56 84 -71 63 -125 -170 -134 -126 -283 -52 vhcurveto
            endchar
          </CharString>
          <CharString index="254">
            201 hlineto
            127 614 rlineto
            179 38 109 110 128 hhcurveto
            105 63 -77 -180 -36 hvcurveto
            -46 -223 -134 -602 -63 -281 rrcurveto
            199 hlineto
            32 147 168 806 34 171 rrcurveto
            214 44 -100 107 -181 hhcurveto
            -181 -116 -128 -139 -45 hvcurveto
            199 41 -75 60 -111 hhcurveto
            -74 -68 -28 -27 -41 hvcurveto
            -7 -33 rlineto
            8 20 24 4 26 hhcurveto
            72 37 -44 -129 -25 hvcurveto
            -39 -196 -83 -350 -43 -182 rrcurveto
            endchar
          </CharString>
          <CharString index="255">
            rmoveto
            -70 54 -56 82 168 120 120 341 235 vhcurveto
            530 771 99 144 47 39 117 18 rlinecurve
            7 34 -383 0 -7 -34 147 -13 -7 -41 -89 -137 rlinecurve
            -461 -708 -179 732 -34 134 2 17 170 16 rlinecurve
            7 34 -544 0 -7 -34 109 -18 29 -20 30 -114 rlinecurve
            261 -962 -95 -131 -87 -91 -95 -36 rlinecurve
            14 19 9 24 27 vvcurveto
            68 -53 53 -69 -70 -57 -56 -70 vhcurveto
            endchar
          </CharString>
          <CharString index="256">
            330 203 221 342 76 hvcurveto
            199 889 rlineto
            -2 14 17 -2 19 hhcurveto
            134 1 97 66 115 vvcurveto
            73 -43 65 -63 30 vhcurveto
            -31 hlineto
            9 -17 5 -30 -30 vvcurveto
            -146 -113 -110 -196 vhcurveto
            -67 hlineto
            -7 -34 rlineto
            130 -20 10 -38 -35 -167 -130 -635 rcurveline
            -319 -65 -191 -176 69 callsubr
            98 25 22 128 15 rlinecurve
            7 34 -489 0 -7 -34 113 -15 16 -22 -21 -98 rlinecurve
            return
          </CharString>
          <CharString index="257">
            rmoveto
            77 69 43 57 31 hvcurveto
            7 37 rlineto
            -26 -31 -28 -12 -29 hhcurveto
            -47 -31 30 91 -49 hvcurveto
            -218 390 133 131 85 85 49 52 38 30 rlinecurve
            -1 -4 0 -4 -5 vvcurveto
            -57 42 -44 60 55 45 44 58 56 -38 48 -67 -79 -55 -59 -169 -163 vhcurveto
            -250 -259 190 -337 rlineto
            -136 73 45 -40 87 hhcurveto
            -293 994 -104 callsubr
            50 -14 10 -18 -10 -50 -174 -810 rcurveline
            191 hlineto
            endchar
          </CharString>
          <CharString index="258">
            99 hhcurveto
            83 101 41 52 43 hvcurveto
            8 36 rlineto
            -29 -33 -52 -13 -31 hhcurveto
            -44 -24 28 64 14 hvcurveto
            167 785 rlineto
            -1 10 10 0 10 hhcurveto
            103 89 58 109 73 -46 62 -57 29 hvcurveto
            -31 hlineto
            7 -16 5 -28 -28 vvcurveto
            -138 -86 -93 -239 -31 vhcurveto
            -99 -13 -7 -30 61 -13 rlineto
            51 -15 9 -17 -11 -50 -91 -431 rcurveline
            -178 -46 -108 -131 -132 hhcurveto
            -114 -30 85 136 30 hvcurveto
            return
          </CharString>
          <CharString index="259">
            -290 -41 -6 -33 57 -11 50 -12 14 -16 6 -55 rlinecurve
            97 -861 -126 -132 -182 -166 -131 -105 rlinecurve
            -7 195 vlineto
            96 142 92 123 94 122 47 60 46 61 42 58 rrcurveto
            279 381 118 234 151 vvcurveto
            69 -47 45 -60 -61 -47 -45 -60 vhcurveto
            -58 1 45 -43 58 hhcurveto
            16 15 3 6 13 hvcurveto
            -36 -164 -118 -209 -202 -280 rrcurveto
            endchar
          </CharString>
          <CharString index="260">
            12 -16 6 -54 86 -819 rcurveline
            92 hlineto
            187 286 130 253 45 164 65 -703 rcurveline
            91 hlineto
            289 362 198 360 153 vvcurveto
            73 -45 44 -62 -62 -46 -44 -60 -58 45 -43 58 14 12 2 4 12 vhcurveto
            -49 -191 -139 -238 -156 -211 rrcurveto
            -73 831 -176 -28 9 -97 -1 -184 -149 -273 -128 -235 rlinecurve
            return
          </CharString>
          <CharString index="261">
            rmoveto
            211 -104 139 -148 -141 -116 -98 -182 -61 vhcurveto
            168 771 -328 -32 -8 -33 62 -13 51 -15 9 -17 -11 -50 rlinecurve
            -279 -1316 88 0 107 93 rlineto
            -54 22 63 -57 129 139 callsubr
            -112 -344 -226 -81 -56 41 49 -15 vhcurveto
            102 477 rlineto
            186 46 102 108 98 hhcurveto
            90 53 -70 -176 -1 hvcurveto
            return
          </CharString>
          <CharString index="262">
            -119 -14 -7 -34 rcurveline
            467 hlineto
            457 261 184 260 hvcurveto
            -148 678 rmoveto
            -184 -130 -151 -237 -2 vhcurveto
            -162 -1 132 620 103 -3 rlineto
            197 -7 97 -105 -167 vvcurveto
            -77 -681 rmoveto
            -211 -153 -175 -353 -12 vhcurveto
            -103 -3 149 705 161 -2 rlineto
            193 -2 106 -129 -171 vvcurveto
            return
          </CharString>
          <CharString index="263">
            rmoveto
            74 59 38 53 29 hvcurveto
            7 34 rlineto
            -19 -20 -27 -12 -30 hhcurveto
            -60 -42 53 94 72 27 80 48 63 hvcurveto
            310 10 182 269 295 vvcurveto
            248 -150 181 83 callsubr
            -241 141 -178 218 -11 vhcurveto
            -116 -90 -72 -105 -102 vvcurveto
            -93 67 -66 94 vhcurveto
            49 502 rmoveto
            42 callsubr
            28 callsubr
            endchar
          </CharString>
          <CharString index="264">
            388 -253 256 -366 -437 -316 -384 -452 2 hvcurveto
            1 -376 236 -251 348 -16 rrcurveto
            -124 -93 -80 -105 -104 vvcurveto
            -91 71 -36 callgsubr
            -39 59 91 72 27 74 57 66 hvcurveto
            -19 50 rmoveto
            -225 -103 callgsubr
            329 90 callsubr
            -464 -236 -395 -309 hvcurveto
            endchar
          </CharString>
          <CharString index="265">
            476 hlineto
            7 34 -109 13 -18 20 20 94 rlinecurve
            8 38 901 958 -211 -996 -20 -95 -22 -18 -119 13 callsubr
            -110 13 -18 20 20 94 rlinecurve
            239 1122 -106 callgsubr
            15 -18 -20 -95 rlinecurve
            -9 -44 -901 -957 212 1001 -106 callgsubr
            -28 callgsubr
            endchar
          </CharString>
          <CharString index="266">
            178 -80 147 -147 66 vhcurveto
            -11 44 56 -10 53 hhcurveto
            174 122 66 126 73 -46 64 -57 29 hvcurveto
            -31 hlineto
            6 -16 6 -28 -28 vvcurveto
            -129 -93 -113 -181 vhcurveto
            -66 -55 16 -76 hhcurveto
            -322 -196 -260 -314 hvcurveto
            200 -72 rmoveto
            28 callsubr
            42 callsubr
            return
          </CharString>
          <CharString index="267">
            131 -19 11 -37 -86 -174 rlinecurve
            -460 -934 -65 958 -11 160 17 29 123 17 rlinecurve
            7 34 -474 0 -7 -34 127 -22 12 -31 -84 -171 rlinecurve
            -460 -940 -76 960 -11 144 24 44 129 16 rlinecurve
            8 34 -498 0 -7 -34 86 -13 37 -29 16 -161 rlinecurve
            return
          </CharString>
          <CharString index="268">
            -15 21 18 87 rlinecurve
            112 525 387 487 151 192 38 31 102 17 rlinecurve
            7 34 -363 0 -7 -34 129 -16 6 -43 -130 -175 rlinecurve
            -334 -451 -165 480 -49 142 19 46 131 17 rlinecurve
            7 34 -496 0 -7 -34 84 -14 29 -25 61 -169 rlinecurve
            return
          </CharString>
          <CharString index="269">
            -6 -32 rlineto
            225 -207 rmoveto
            115 83 33 52 10 hvcurveto
            52 11 -67 33 -116 hhcurveto
            -40 hlineto
            -113 -85 -33 -52 -11 hvcurveto
            -52 -11 70 -33 113 hhcurveto
            44 29 rmoveto
            -34 hlineto
            -42 -20 23 33 7 hvcurveto
            33 6 31 23 42 hhcurveto
            35 hlineto
            44 18 -23 -33 -7 hvcurveto
            -33 -6 -29 -23 -45 hhcurveto
            return
          </CharString>
          <CharString index="270">
            165 -1214 84 0 667 1185 106 186 36 31 103 15 rlinecurve
            7 34 -376 0 -7 -34 135 -20 19 -36 -94 -174 rlinecurve
            -508 -950 -119 976 -17 142 31 46 129 16 rlinecurve
            7 34 -502 0 -7 -34 86 -13 33 -30 22 -160 rlinecurve
            return
          </CharString>
          <CharString index="271">
            1232 476 rmoveto
            231 -194 138 -337 4 vhcurveto
            -124 2 92 435 -97 callgsubr
            -485 0 -7 -34 rlineto
            112 -14 16 -19 -20 -94 -239 -1122 rcurveline
            -20 -94 -21 -19 -120 -14 -7 -34 rcurveline
            474 hlineto
            438 266 200 276 hvcurveto
            return
          </CharString>
          <CharString index="272">
            129 -16 9 -23 -18 -85 -89 -422 rcurveline
            -39 -48 -89 -19 -89 hhcurveto
            -257 -176 224 342 468 240 351 346 216 137 -114 -292 7 hvcurveto
            30 -2 60 318 rlineto
            72 -91 -181 69 -217 hhcurveto
            -449 -324 -326 -489 -3 hvcurveto
            return
          </CharString>
          <CharString index="273">
            207 -274 rmoveto
            122 88 45 69 15 hvcurveto
            69 14 -69 45 -121 hhcurveto
            -43 hlineto
            -119 -91 -45 -69 -15 hvcurveto
            -69 -14 71 -45 120 hhcurveto
            47 39 rmoveto
            -36 hlineto
            -44 -20 32 43 9 hvcurveto
            43 10 33 32 44 hhcurveto
            36 hlineto
            46 18 -32 -43 -9 hvcurveto
            -43 -9 -32 -32 -46 hhcurveto
            return
          </CharString>
          <CharString index="274">
            -16 21 19 87 rlinecurve
            118 554 222 -4 117 -4 20 -48 -4 -156 rlinecurve
            28 hlineto
            95 449 rlineto
            -28 hlineto
            -58 -148 -40 -40 -121 -4 rrcurveto
            -223 -4 138 651 193 -8 239 -11 65 -54 9 -228 rlinecurve
            31 hlineto
            endchar
          </CharString>
          <CharString index="275">
            -228 -321 -190 -273 -300 -248 150 -182 228 hvcurveto
            3 46 rmoveto
            -119 -63 104 209 1 hvcurveto
            276 2 109 323 197 hhcurveto
            119 63 -104 -209 -1 hvcurveto
            -276 -2 -109 -323 -197 hhcurveto
            endchar
          </CharString>
          <CharString index="276">
            -109 -259 -94 -60 -293 -11 rrcurveto
            -230 -9 144 680 241 -5 126 -3 19 -49 -3 -155 rlinecurve
            29 hlineto
            95 449 rlineto
            -29 hlineto
            -59 -149 -42 -40 -127 -4 rrcurveto
            -242 -4 137 644 212 -9 255 -11 return
          </CharString>
          <CharString index="277">
            484 106 -626 67 0 89 178 270 456 -98 -545 -8 -44 -13 -10 -65 -8 rlinecurve
            -5 -27 290 0 6 27 -61 8 -7 9 8 45 rlinecurve
            98 548 8 43 13 12 64 9 rlinecurve
            5 26 -232 0 -301 -544 rlineto
            return
          </CharString>
          <CharString index="278">
            1940 rmoveto
            -76 -58 -33 -29 -34 hvcurveto
            -6 -27 rlineto
            12 22 39 11 42 hhcurveto
            56 33 -22 -36 -8 hvcurveto
            -7 -35 -36 -24 -64 -16 rrcurveto
            26 -20 121 23 72 31 13 64 rlinecurve
            64 14 -68 37 -81 hhcurveto
            -61 -396 -16 callsubr
            return
          </CharString>
          <CharString index="279">
            1238 1241 444 rmoveto
            176 -145 138 -253 16 vhcurveto
            210 18 254 88 2 240 rrcurveto
            193 2 -177 131 -329 hhcurveto
            -443 82 callsubr
            39 callsubr
            155 callsubr
            return
          </CharString>
          <CharString index="280">
            -197 -26 -120 -569 rlineto
            -180 -47 -120 -138 -128 hhcurveto
            -106 -23 87 131 28 hvcurveto
            148 695 -196 -25 -122 -578 rlineto
            -177 -48 -119 -133 -128 hhcurveto
            -105 -23 87 131 28 hvcurveto
            148 return
          </CharString>
          <CharString index="281">
            109 507 rlineto
            205 44 -90 105 -163 hhcurveto
            -150 -135 -114 -200 -68 hvcurveto
            1 1 9 44 1 vvcurveto
            175 26 -83 93 -155 hhcurveto
            -151 -131 -107 -207 -71 hvcurveto
            66 308 -50 callsubr
            return
          </CharString>
          <CharString index="282">
            1782 rmoveto
            44 41 30 40 8 hvcurveto
            40 9 -27 30 -45 hhcurveto
            -5 hlineto
            -45 -41 -30 -40 -9 hvcurveto
            -40 -9 29 -30 44 hhcurveto
            289 hmoveto
            122 callsubr
            -403 -187 rmoveto
            463 hlineto
            17 83 rlineto
            -462 hlineto
            return
          </CharString>
          <CharString index="283">
            11 -16 6 -54 86 -819 rcurveline
            93 hlineto
            305 368 204 356 155 vvcurveto
            69 -47 44 -60 -61 -46 -44 -60 -58 45 -43 58 14 13 2 4 11 vhcurveto
            -50 -188 -149 -239 -164 -213 rrcurveto
            return
          </CharString>
          <CharString index="284">
            -472 rmoveto
            77 62 37 47 37 hvcurveto
            7 34 rlineto
            -20 -27 -33 -11 -32 hhcurveto
            -60 -39 30 68 80 49 96 173 104 hvcurveto
            57 35 -36 0 -58 -33 rlineto
            -242 -140 -83 -91 -97 vvcurveto
            -85 63 -54 85 vhcurveto
            endchar
          </CharString>
          <CharString index="285">
            -165 1214 -84 0 -667 -1186 -105 -185 -37 -31 -103 -15 rlinecurve
            -7 -34 377 0 7 34 -136 20 -18 36 93 173 rlinecurve
            136 254 457 0 34 -279 return
          </CharString>
          <CharString index="286">
            0 -7 -34 rlineto
            130 -17 31 -46 -28 -124 -47 -206 -36 -144 -60 -210 -83 -298 -75 -204 -100 -89 rrcurveto
            4 12 2 14 14 vvcurveto
            71 -51 54 -73 -73 -56 -57 -71 return
          </CharString>
          <CharString index="287">
            rrcurveto
            236 16 144 84 144 hhcurveto
            59 55 -17 -28 38 hvcurveto
            -51 -45 -36 -59 -51 38 -46 59 53 44 43 55 103 -116 91 -170 -208 -241 -129 -298 -21 hvcurveto
            return
          </CharString>
          <CharString index="288">
            966 248 302 rmoveto
            52 -39 98 -38 127 -6 rrcurveto
            -47 -219 37 0 46 218 rlineto
            211 170 113 174 110 -64 86 -123 85 hvcurveto
            return
          </CharString>
          <CharString index="289">
            -106 -502 rcurveline
            -198 -42 57 -128 182 hhcurveto
            137 145 93 204 83 hvcurveto
            -194 -31 63 -103 169 hhcurveto
            139 148 99 213 82 hvcurveto
            -1 return
          </CharString>
        <CharString name=".notdef">
          2048 65 -494 rmoveto
          67 hlineto
          519 2444 rlineto
          -67 hlineto
          -108 -2444 rmoveto
          66 hlineto
          519 2444 rlineto
          -66 hlineto
          -110 -107 callgsubr
          -109 -107 callgsubr
          -109 -107 callgsubr
          endchar
        </CharString>
        <CharString name=".null">
          0 endchar
        </CharString>
        <CharString name="A">
          1287 1160 237 -103 callsubr
          -99 callsubr
        </CharString>
        <CharString name="AE">
          1857 2005 1444 95 callsubr
        </CharString>
        <CharString name="AEacute">
          1857 1618 -94 callsubr
          191 -361 95 callsubr
        </CharString>
        <CharString name="AEmacron">
          1857 1287 -56 callsubr
          696 -281 95 callsubr
        </CharString>
        <CharString name="Aacute">
          1287 1092 -94 callsubr
          -128 -1568 -103 callsubr
          -99 callsubr
        </CharString>
        <CharString name="Abreve">
          1287 1003 -8 callsubr
          157 -1347 -103 callsubr
          -99 callsubr
        </CharString>
        <CharString name="Abreveacute">
          1287 1278 1834 -98 callgsubr
          203 -215 -16 callsubr
          193 -1307 -103 callsubr
          -99 callsubr
        </CharString>
        <CharString name="Abrevecyrillic">
          1287 965 1605 56 callsubr
          195 -1368 -103 callsubr
          -99 callsubr
        </CharString>
        <CharString name="Abrevedotbelow">
          1287 1003 -8 callsubr
          157 -1347 -103 callsubr
          33 callsubr
          -353 -764 -100 callsubr
        </CharString>
        <CharString name="Abrevegrave">
          1287 780 35 callsubr
          155 rlineto
          164 -402 -16 callsubr
          193 -1307 -103 callsubr
          -99 callsubr
        </CharString>
        <CharString name="Abrevehookabove">
          1287 1028 171 callsubr
          193 -1307 -103 callsubr
          -99 callsubr
        </CharString>
        <CharString name="Abrevetilde">
          1287 1129 1786 -37 callsubr
          -38 hlineto
          -47 -10 -33 -18 -45 hhcurveto
          -27 -26 7 12 -37 hvcurveto
          -27 10 rlineto
          12 -37 -39 9 -44 hhcurveto
          -82 -68 -49 -99 -21 hvcurveto
          37 hlineto
          47 12 -6 callgsubr
          37 38 -9 45 hhcurveto
          -162 -242 -16 callsubr
          193 -1307 -103 callsubr
          -99 callsubr
        </CharString>
        <CharString name="Acaron">
          1287 1214 -79 callsubr
          -93 -1588 -103 callsubr
          -99 callsubr
        </CharString>
        <CharString name="Acircumflex">
          1287 779 -75 callsubr
          420 -1300 -103 callsubr
          -99 callsubr
        </CharString>
        <CharString name="Acircumflexacute">
          1287 1273 73 callsubr
          444 -1299 -103 callsubr
          -99 callsubr
        </CharString>
        <CharString name="Acircumflexdotbelow">
          1287 779 -75 callsubr
          420 -1300 -103 callsubr
          33 callsubr
          -353 -764 -100 callsubr
        </CharString>
        <CharString name="Acircumflexgrave">
          1287 775 66 callsubr
          444 -1299 -103 callsubr
          -99 callsubr
        </CharString>
        <CharString name="Acircumflexhookabove">
          1287 1253 54 callsubr
          444 -1299 -103 callsubr
          -99 callsubr
        </CharString>
        <CharString name="Acircumflextilde">
          1287 1124 61 callsubr
          444 -1299 -103 callsubr
          -99 callsubr
        </CharString>
        <CharString name="Acyrillic">
          1287 1160 237 -103 callsubr
          -99 callsubr
        </CharString>
        <CharString name="Adblgrave">
          1287 779 41 callsubr
          40 -1299 -103 callsubr
          -99 callsubr
        </CharString>
        <CharString name="Adieresis">
          1287 846 -55 callsubr
          23 -1345 -103 callsubr
          -99 callsubr
        </CharString>
        <CharString name="Adieresismacron">
          1287 775 1811 38 callsubr
          33 -327 -61 callsubr
          56 -1329 -103 callsubr
          -99 callsubr
        </CharString>
        <CharString name="Adotaccent">
          1287 992 -85 callsubr
          168 -1342 -103 callsubr
          -99 callsubr
        </CharString>
        <CharString name="Adotbelow">
          1287 1160 237 -103 callsubr
          33 callsubr
          -353 -764 -100 callsubr
        </CharString>
        <CharString name="Adotmacron">
          1287 770 120 callsubr
          171 -1327 -103 callsubr
          -99 callsubr
        </CharString>
        <CharString name="Agrave">
          1287 933 -41 callsubr
          126 -1299 -103 callsubr
          -99 callsubr
        </CharString>
        <CharString name="Ahookabove">
          1287 1021 -9 callsubr
          139 -1610 -103 callsubr
          -99 callsubr
        </CharString>
        <CharString name="Ainvertedbreve">
          1287 1006 1860 -19 callsubr
          154 -1623 -103 callsubr
          -99 callsubr
        </CharString>
        <CharString name="Alphagreek">
          1287 1160 237 -103 callsubr
          -99 callsubr
        </CharString>
        <CharString name="Alphatonosgreek">
          1287 1160 237 -103 callsubr
          -642 1207 32 callsubr
          -244 -878 rmoveto
          347 649 78 -649 rlineto
          endchar
        </CharString>
        <CharString name="Amacron">
          1287 761 -56 callsubr
          377 -1488 -103 callsubr
          -99 callsubr
        </CharString>
        <CharString name="Aogonek">
          1287 990 -57 callgsubr
          95 76 29 80 61 70 hvcurveto
          228 hlineto
          7 34 -86 13 -33 30 -22 160 rlinecurve
          178 callsubr
          rlineto
          17 -142 -31 -46 -129 -16 -7 -34 rcurveline
          241 hlineto
          -128 -97 -83 -112 -110 vvcurveto
          -91 71 -65 97 vhcurveto
          -513 1041 rmoveto
          347 649 78 -649 rlineto
          endchar
        </CharString>
        <CharString name="Aring">
          1287 801 1710 110 callsubr
          240 -1448 -103 callsubr
          -99 callsubr
        </CharString>
        <CharString name="Aringacute">
          1287 1274 1817 93 callsubr
          162 callsubr
          172 -1327 -103 callsubr
          -99 callsubr
        </CharString>
        <CharString name="Aringbelow">
          1287 1160 237 -103 callsubr
          33 callsubr
          -582 -867 103 callsubr
        </CharString>
        <CharString name="Atilde">
          1287 1081 -40 callsubr
          79 -1353 -103 callsubr
          -99 callsubr
        </CharString>
        <CharString name="B">
          1238 1241 444 57 callsubr
        </CharString>
        <CharString name="Bdotaccent">
          1238 891 -85 callsubr
          350 -1135 57 callsubr
        </CharString>
        <CharString name="Bdotbelow">
          172 callsubr
          -485 -639 -100 callsubr
        </CharString>
        <CharString name="Becyrillic">
          1220 1242 457 rmoveto
          222 -190 140 -344 vhcurveto
          -129 hlineto
          124 585 203 -8 285 -11 50 -54 3 -216 rlinecurve
          29 hlineto
          54 329 -967 0 -7 -34 rlineto
          121 -15 15 -18 -20 -94 -238 -1122 rcurveline
          -20 -94 -24 -18 -126 -15 -7 -34 rcurveline
          483 hlineto
          412 293 178 279 hvcurveto
          -222 7 rmoveto
          -246 -177 -164 -323 -11 vhcurveto
          -108 -3 157 735 115 -2 rlineto
          215 -4 121 -105 -200 vvcurveto
          endchar
        </CharString>
        <CharString name="Betagreek">
          1238 1241 444 57 callsubr
        </CharString>
        <CharString name="Blinebelow">
          172 callsubr
          -727 -782 -81 callsubr
        </CharString>
        <CharString name="C">
          1365 476 595 -31 callsubr
          -14 callsubr
        </CharString>
        <CharString name="Cacute">
          1365 1246 -94 callsubr
          -966 -1210 -31 callsubr
          -14 callsubr
        </CharString>
        <CharString name="Ccaron">
          1365 1368 -79 callsubr
          -931 -1230 -31 callsubr
          -14 callsubr
        </CharString>
        <CharString name="Ccedilla">
          1365 476 595 -31 callsubr
          -3 -416 264 -232 313 -21 rrcurveto
          -128 -147 -69 callsubr
          5 callsubr
          74 callsubr
          82 94 rlineto
          1 1 0 1 116 callsubr
        </CharString>
        <CharString name="Ccedillaacute">
          1365 1246 -94 callsubr
          -966 -1210 -31 callsubr
          -3 -416 264 -232 313 -21 rrcurveto
          -128 -147 -69 callsubr
          5 callsubr
          74 callsubr
          82 94 rlineto
          1 1 0 1 116 callsubr
        </CharString>
        <CharString name="Ccircumflex">
          1365 933 -75 callsubr
          -418 -942 -31 callsubr
          -14 callsubr
        </CharString>
        <CharString name="Cdotaccent">
          1365 1146 -85 callsubr
          -670 -984 -31 callsubr
          -14 callsubr
        </CharString>
        <CharString name="Checyrillic">
          1447 1085 158 rmoveto
          -19 -89 -24 -21 -133 -14 rrcurveto
          -7 -34 491 0 7 34 -110 13 -17 19 20 95 rlinecurve
          238 1122 20 95 25 18 117 -23 callsubr
          rlineto
          111 -14 16 -19 -20 -94 -122 -572 rcurveline
          -36 -93 -95 -25 -121 hhcurveto
          -234 -96 135 257 55 hvcurveto
          51 241 21 95 24 19 116 13 rlinecurve
          7 34 -476 0 -7 -34 rlineto
          112 -14 15 -18 -19 -95 -50 -237 rcurveline
          -307 -65 178 -147 321 hhcurveto
          144 98 30 45 105 hvcurveto
          endchar
        </CharString>
        <CharString name="Chigreek">
          1244 306 264 16 callsubr
        </CharString>
        <CharString name="D">
          1438 -11 callsubr
          -44 callsubr
          endchar
        </CharString>
        <CharString name="Dbar">
          1438 208 718 rmoveto
          135 hlineto
          -119 -557 rlineto
          -20 -93 -22 -20 -120 -14 -7 -34 rcurveline
          451 hlineto
          554 446 328 500 371 -275 245 -445 hvcurveto
          -424 82 callsubr
          -111 -521 rcurveline
          -135 hlineto
          1056 88 78 callsubr
          144 678 277 0 9 44 -276 0 136 642 89 -4 rlineto
          339 -17 149 -237 -296 vvcurveto
          endchar
        </CharString>
        <CharString name="Dcaron">
          1438 1206 -79 callsubr
          261 -997 27 callsubr
          -44 callsubr
          endchar
        </CharString>
        <CharString name="Dcircumflexbelow">
          1438 -11 callsubr
          -44 callsubr
          -919 -1296 -72 callsubr
        </CharString>
        <CharString name="Dcommaaccent">
          1438 -11 callsubr
          -44 callsubr
          -712 -1296 -77 callsubr
        </CharString>
        <CharString name="Ddotaccent">
          1438 984 -85 callsubr
          522 -751 27 callsubr
          -44 callsubr
          endchar
        </CharString>
        <CharString name="Ddotbelow">
          1438 -11 callsubr
          -44 callsubr
          -691 -1048 -100 callsubr
        </CharString>
        <CharString name="Decyrillic">
          1405 640 1001 rmoveto
          28 104 54 241 12 52 rrcurveto
          541 hlineto
          -288 -1352 rlineto
          -741 hlineto
          122 106 146 297 126 552 rrcurveto
          750 -955 rmoveto
          -196 hlineto
          263 1237 20 95 25 18 117 14 rlinecurve
          7 34 -1115 0 -7 -34 rlineto
          133 -18 31 -44 -31 -138 -15 -67 -24 -96 -12 -44 -123 -534 -147 -321 -145 -102 rrcurveto
          -131 hlineto
          -85 -368 rlineto
          39 hlineto
          256 130 34 66 223 hhcurveto
          651 hlineto
          211 25 -53 -269 19 hvcurveto
          39 hlineto
          endchar
        </CharString>
        <CharString name="Deltagreek">
          1232 57 hmoveto
          1065 hlineto
          7 36 -193 1415 -79 0 -792 -1415 rlineto
          63 10 rmoveto
          636 1154 142 -1154 rlineto
          endchar
        </CharString>
        <CharString name="Djecyrillic">
          1646 1637 420 rmoveto
          258 -160 145 -289 -126 -93 -20 -34 -88 vhcurveto
          -33 callgsubr
          57 341 -1129 0 -83 -341 rlineto
          31 hlineto
          95 225 72 57 -90 callgsubr
          26 77 81 14 98 hhcurveto
          199 103 -109 -217 -328 -160 -297 -292 -159 hvcurveto
          12 -30 rlineto
          373 132 275 312 353 vvcurveto
          endchar
        </CharString>
        <CharString name="Dlinebelow">
          1438 -11 callsubr
          -44 callsubr
          -933 -1191 -81 callsubr
        </CharString>
        <CharString name="Dzecyrillic">
          1082 570 -21 44 callsubr
          endchar
        </CharString>
        <CharString name="Dzhecyrillic">
          1468 131 callsubr
          478 hlineto
          115 16 -38 -289 -17 hvcurveto
          39 hlineto
          289 105 32 38 114 hhcurveto
          479 hlineto
          7 34 -113 14 -16 19 20 94 rlinecurve
          238 1122 20 95 23 18 120 -23 callsubr
          108 -100 callgsubr
          -675 0 263 1238 20 95 23 -29 callgsubr
        </CharString>
        <CharString name="E">
          1158 1337 1444 -89 callsubr
        </CharString>
        <CharString name="Eacute">
          1158 1041 -94 callsubr
          100 -361 -89 callsubr
        </CharString>
        <CharString name="Ebreve">
          1158 952 -8 callsubr
          385 -140 -89 callsubr
        </CharString>
        <CharString name="Ecaron">
          1158 1163 -79 callsubr
          135 -381 -89 callsubr
        </CharString>
        <CharString name="Ecedilla">
          1158 511 2 callsubr
          94 108 1 7 458 -30 callsubr
          57 341 -958 0 -26 callsubr
          510 0 -145 -166 -69 callsubr
          5 callsubr
          endchar
        </CharString>
        <CharString name="Ecedillabreve">
          1158 952 -8 callsubr
          -441 -2030 rmoveto
          74 callsubr
          94 108 1 7 458 -30 callsubr
          57 341 -958 0 -26 callsubr
          510 0 -145 -166 -69 callsubr
          5 callsubr
          endchar
        </CharString>
        <CharString name="Ecircumflex">
          1158 728 -75 callsubr
          648 -93 -89 callsubr
        </CharString>
        <CharString name="Ecircumflexacute">
          1158 1221 73 callsubr
          673 -92 -89 callsubr
        </CharString>
        <CharString name="Ecircumflexbelow">
          1158 1337 1444 rmoveto
          -958 hlineto
          -26 callsubr
          1010 -30 callsubr
          -978 -1549 -72 callsubr
        </CharString>
        <CharString name="Ecircumflexdotbelow">
          1158 728 -75 callsubr
          648 -93 rmoveto
          -958 hlineto
          -26 callsubr
          1010 -30 callsubr
          -750 -1301 -100 callsubr
        </CharString>
        <CharString name="Ecircumflexgrave">
          1158 723 66 callsubr
          673 -92 -89 callsubr
        </CharString>
        <CharString name="Ecircumflexhookabove">
          1158 1201 54 callsubr
          673 -92 -89 callsubr
        </CharString>
        <CharString name="Ecircumflextilde">
          1158 1072 61 callsubr
          673 -92 -89 callsubr
        </CharString>
        <CharString name="Ecyrillic">
          1379 481 595 rmoveto
          41 2 41 4 39 vhcurveto
          683 -10 13 66 -692 -11 rlineto
          382 50 222 271 302 hhcurveto
          214 136 -114 -292 7 hvcurveto
          30 -2 60 318 rlineto
          72 -26 callgsubr
          -14 callsubr
        </CharString>
        <CharString name="Edblgrave">
          1158 728 41 callsubr
          268 -92 -89 callsubr
        </CharString>
        <CharString name="Edieresis">
          1158 795 -55 callsubr
          251 -138 -89 callsubr
        </CharString>
        <CharString name="Edotaccent">
          1158 941 -85 callsubr
          396 -135 -89 callsubr
        </CharString>
        <CharString name="Edotbelow">
          1158 1337 1444 rmoveto
          -958 hlineto
          -26 callsubr
          1010 -30 callsubr
          -750 -1301 -100 callsubr
        </CharString>
        <CharString name="Efcyrillic">
          1786 206 671 rmoveto
          -277 250 -169 370 -20 vhcurveto
          -14 -68 -19 -88 -22 -23 -126 -12 rlinecurve
          -7 -34 490 0 7 34 rlineto
          -117 14 -19 21 19 88 14 66 rcurveline
          535 13 309 213 344 vvcurveto
          278 -252 169 -373 19 vhcurveto
          14 68 18 88 24 23 124 12 rlinecurve
          7 34 -490 0 -7 -34 rlineto
          119 -14 17 -21 -19 -88 -14 -66 rcurveline
          -531 -16 -307 -212 -342 vvcurveto
          234 -8 rmoveto
          320 205 192 390 22 vhcurveto
          -199 -947 rlineto
          -269 27 -127 163 223 vvcurveto
          1202 118 rmoveto
          -321 -207 -191 -394 -22 vhcurveto
          200 947 rlineto
          271 -26 130 -163 -224 vvcurveto
          endchar
        </CharString>
        <CharString name="Egrave">
          1158 882 -41 callsubr
          354 -92 -89 callsubr
        </CharString>
        <CharString name="Ehookabove">
          1158 970 -9 callsubr
          367 -403 -89 callsubr
        </CharString>
        <CharString name="Einvertedbreve">
          1158 955 1860 -19 callsubr
          382 -416 -89 callsubr
        </CharString>
        <CharString name="Elcyrillic">
          1406 187 -22 rmoveto
          189 107 223 457 126 hvcurveto
          70 249 50 193 65 300 rrcurveto
          514 hlineto
          -264 -1239 -20 -95 -22 -18 -118 13 callsubr
          -110 13 -19 20 20 94 rlinecurve
          239 1122 20 95 25 18 117 14 rlinecurve
          7 34 -1088 179 callsubr
          -74 53 -57 85 vhcurveto
          endchar
        </CharString>
        <CharString name="Emacron">
          1158 710 -56 callsubr
          605 -281 -89 callsubr
        </CharString>
        <CharString name="Emacronacute">
          1158 1226 89 callsubr
          138 callsubr
          643 -234 -89 callsubr
        </CharString>
        <CharString name="Emacrongrave">
          1158 728 35 callsubr
          137 callsubr
          643 -234 -89 callsubr
        </CharString>
        <CharString name="Emcyrillic">
          1693 718 1444 20 callsubr
        </CharString>
        <CharString name="Encyrillic">
          1480 432 161 -64 callsubr
          77 callsubr
          endchar
        </CharString>
        <CharString name="Eogonek">
          1158 861 -475 rmoveto
          75 56 39 53 26 hvcurveto
          7 34 rlineto
          -19 -19 -27 -12 -31 hhcurveto
          -62 -38 59 95 76 29 80 61 70 hvcurveto
          144 hlineto
          -65 callsubr
          169 callsubr
          60 -49 10 -232 rlinecurve
          30 hlineto
          57 341 -958 0 -7 -34 rlineto
          114 -14 14 -20 -20 -93 39 callsubr
          -120 -14 -7 -34 rcurveline
          833 hlineto
          -128 -97 -83 -112 -110 vvcurveto
          -91 70 -65 97 vhcurveto
          endchar
        </CharString>
        <CharString name="Epsilongreek">
          1158 1337 1444 -89 callsubr
        </CharString>
        <CharString name="Epsilontonosgreek">
          1465 1644 1444 rmoveto
          -958 hlineto
          -26 callsubr
          1010 -30 callsubr
          -1221 341 32 callsubr
          endchar
        </CharString>
        <CharString name="Ercyrillic">
          1199 557 hmoveto
          19 callsubr
        </CharString>
        <CharString name="Ereversedcyrillic">
          1413 436 1358 rmoveto
          -79 -328 rlineto
          30 hlineto
          291 106 167 96 177 hhcurveto
          282 128 -269 -324 -21 -1 -21 -1 -21 hvcurveto
          -690 11 -14 -68 701 10 rlineto
          -363 -36 -212 -326 -343 hhcurveto
          -264 -103 178 196 -11 hvcurveto
          -30 hlineto
          -41 -300 rlineto
          -73 92 169 -48 189 hhcurveto
          471 352 343 464 388 -231 293 -406 -148 -152 -41 -67 -102 hvcurveto
          endchar
        </CharString>
        <CharString name="Escyrillic">
          1365 476 595 -31 callsubr
          -14 callsubr
        </CharString>
        <CharString name="Etagreek">
          1480 432 161 -64 callsubr
          77 callsubr
          endchar
        </CharString>
        <CharString name="Etatonosgreek">
          1804 756 161 -64 callsubr
          77 callsubr
          -390 1283 32 callsubr
          endchar
        </CharString>
        <CharString name="Etilde">
          1158 1030 -40 callsubr
          307 -146 -89 callsubr
        </CharString>
        <CharString name="Etildebelow">
          1158 1337 1444 rmoveto
          -958 hlineto
          -26 callsubr
          1010 -30 callsubr
          -658 -1498 -20 callsubr
        </CharString>
        <CharString name="F">
          1078 1306 1444 rmoveto
          -927 hlineto
          76 callsubr
          -20 -93 -21 -20 -120 -14 rlinecurve
          -7 -34 504 0 8 34 -139 16 167 callsubr
        </CharString>
        <CharString name="Fdotaccent">
          1078 912 -85 callsubr
          394 -135 rmoveto
          -927 hlineto
          76 callsubr
          -20 -93 -21 -20 -120 -14 rlinecurve
          -7 -34 504 0 8 34 -139 16 167 callsubr
        </CharString>
        <CharString name="G">
          1478 250 650 -17 callsubr
        </CharString>
        <CharString name="Gacute">
          1478 1232 -94 callsubr
          -1178 -1155 -17 callsubr
        </CharString>
        <CharString name="Gammagreek">
          1090 1317 1444 rmoveto
          -951 hlineto
          -7 -34 121 -15 16 -18 -20 -94 rlinecurve
          -239 -1122 -20 -94 -23 -18 -127 -15 rlinecurve
          -7 -34 520 0 7 34 -144 18 -17 19 19 87 rlinecurve
          264 1246 202 -8 273 -11 47 -54 3 -216 rlinecurve
          29 hlineto
          endchar
        </CharString>
        <CharString name="Gbreve">
          1478 1143 -8 callsubr
          -893 -934 -17 callsubr
        </CharString>
        <CharString name="Gcaron">
          1478 1354 -79 callsubr
          -1143 -1175 -17 callsubr
        </CharString>
        <CharString name="Gcircumflex">
          1478 919 -75 callsubr
          -630 -887 -17 callsubr
        </CharString>
        <CharString name="Gcommaaccent">
          1478 250 650 rmoveto
          -427 -3 309 -244 334 hhcurveto
          175 170 50 77 98 hvcurveto
          87 403 18 85 22 25 110 -96 callgsubr
          165 callsubr
          514 -1096 -77 callsubr
        </CharString>
        <CharString name="Gdotaccent">
          1478 1132 -85 callsubr
          -882 -929 -17 callsubr
        </CharString>
        <CharString name="Geacutecyrillic">
          1071 984 -94 callsubr
          132 -361 rmoveto
          -951 125 callsubr
          -84 callgsubr
        </CharString>
        <CharString name="Gecyrillic">
          1071 1312 1444 rmoveto
          -951 125 callsubr
          -84 callgsubr
        </CharString>
        <CharString name="Germandbls">
          1344 411 hmoveto
          298 1404 182 -7 rlineto
          228 -10 98 -94 -172 vvcurveto
          -168 -111 -111 -181 -34 vhcurveto
          -28 -127 rlineto
          180 -88 77 -114 -168 vvcurveto
          -169 -102 -114 -146 -132 -113 108 230 10 vhcurveto
          -32 hlineto
          -60 -298 rlineto
          -51 60 121 -38 143 hhcurveto
          225 208 163 252 194 -109 144 -177 84 hvcurveto
          189 14 167 107 196 vvcurveto
          192 -158 119 -285 vhcurveto
          -590 hlineto
          -8 -34 rlineto
          116 -14 16 -19 -20 -94 -239 -1122 rcurveline
          -19 -95 -23 -18 -122 -14 -7 -34 rcurveline
          endchar
        </CharString>
        <CharString name="Geupturncyrillic">
          1050 1281 1400 rmoveto
          87 369 rlineto
          -40 hlineto
          -271 -127 -49 -54 -212 hhcurveto
          -579 125 callsubr
          502 0 8 34 rlineto
          -136 17 -18 20 19 87 264 1242 rcurveline
          endchar
        </CharString>
        <CharString name="Gmacron">
          1478 901 -56 callsubr
          -673 -1075 -17 callsubr
        </CharString>
        <CharString name="H">
          1480 432 161 -64 callsubr
          77 callsubr
          endchar
        </CharString>
        <CharString name="Hacyrillic">
          1244 306 264 16 callsubr
        </CharString>
        <CharString name="Hardsigncyrillic">
          1429 1494 476 rmoveto
          231 -195 138 -336 4 vhcurveto
          -125 2 92 435 -97 callgsubr
          -734 0 -83 -329 rlineto
          30 hlineto
          95 230 58 44 235 12 rrcurveto
          41 2 -265 -1245 rlineto
          -19 -89 -23 -21 -133 -14 -7 -34 rcurveline
          488 hlineto
          438 267 200 276 hvcurveto
          -221 18 rmoveto
          -262 -181 -178 -320 -11 vhcurveto
          -107 -3 164 767 110 -3 rlineto
          218 -8 116 -105 -197 vvcurveto
          endchar
        </CharString>
        <CharString name="Hbar">
          1480 432 161 rmoveto
          118 556 684 0 -118 -556 -19 -93 -22 -21 -116 -13 rlinecurve
          -7 -34 473 0 7 34 -113 14 -15 20 20 93 rlinecurve
          193 904 135 0 9 43 -135 0 37 175 19 93 24 20 118 14 rlinecurve
          7 34 -473 0 -7 -34 111 -13 13 -21 -20 -93 rlinecurve
          -37 -175 -685 0 37 175 20 93 24 21 114 13 rlinecurve
          7 34 -473 0 -7 -34 115 -14 13 -20 -20 -93 rlinecurve
          -37 -175 -135 0 -10 -43 136 0 -193 -904 -20 88 callsubr
          474 0 7 34 -109 13 -15 21 20 93 rlinecurve
          127 601 rmoveto
          65 303 685 0 -65 -303 rlineto
          endchar
        </CharString>
        <CharString name="Hbrevebelow">
          1480 432 161 -64 callsubr
          77 callsubr
          242 -592 104 callsubr
        </CharString>
        <CharString name="Hcaron">
          1480 1313 -79 callsubr
          -920 -1664 -64 callsubr
          77 callsubr
          endchar
        </CharString>
        <CharString name="Hcedilla">
          1480 432 161 -64 callsubr
          207 -62 callgsubr
          -52 -49 20 30 -30 hvcurveto
          -8 -34 rlineto
          -55 35 60 -42 89 hhcurveto
          -43 callgsubr
          223 0 7 34 -109 13 -17 21 20 93 rlinecurve
          endchar
        </CharString>
        <CharString name="Hcircumflex">
          1480 878 -75 callsubr
          -407 -1376 -64 callsubr
          77 callsubr
          endchar
        </CharString>
        <CharString name="Hdieresis">
          1480 945 -55 callsubr
          -804 -1421 -64 callsubr
          77 callsubr
          endchar
        </CharString>
        <CharString name="Hdotaccent">
          1480 1091 -85 callsubr
          -659 -1418 -64 callsubr
          77 callsubr
          endchar
        </CharString>
        <CharString name="Hdotbelow">
          1480 432 161 -64 callsubr
          77 callsubr
          246 -359 -100 callsubr
        </CharString>
        <CharString name="I">
          12 callsubr
          -97 callsubr
          -93 callsubr
          -80 callsubr
        </CharString>
        <CharString name="IAcyrillic">
          1305 388 991 rmoveto
          -172 121 -97 157 -38 vhcurveto
          -281 -331 -147 -171 -114 -121 -97 -29 rlinecurve
          -7 -32 290 0 552 655 rlineto
          13 14 -1 14 hhcurveto
          146 hlineto
          -105 -493 -21 -95 -24 -18 -116 13 callsubr
          rlineto
          -112 14 -16 18 20 95 238 1122 rcurveline
          20 94 23 19 119 14 7 34 rcurveline
          -476 hlineto
          -427 -267 -166 -287 hvcurveto
          213 -4 rmoveto
          248 173 155 327 11 vhcurveto
          107 3 -150 -706 -133 3 rlineto
          -206 3 -118 98 185 vvcurveto
          endchar
        </CharString>
        <CharString name="IJ">
          1177 432 161 -82 callsubr
          -97 callsubr
          -93 callsubr
          -12 callsubr
          606 82 -35 callsubr
        </CharString>
        <CharString name="IJacute">
          1177 749 1806 31 callsubr
          383 -1 31 callsubr
          -1092 -1644 -82 callsubr
          -97 callsubr
          -93 callsubr
          -12 callsubr
          606 82 -35 callsubr
        </CharString>
        <CharString name="IUcyrillic">
          2074 54 hmoveto
          476 hlineto
          7 34 rlineto
          -109 13 -18 20 20 94 118 554 rcurveline
          253 hlineto
          -2 -27 -1 -27 -27 vvcurveto
          -397 245 -256 341 424 328 361 469 396 -244 258 -341 -1 vhcurveto
          -385 -2 -307 -297 -53 -406 rrcurveto
          -249 hlineto
          111 524 -106 callgsubr
          -28 callgsubr
          1327 -5 rmoveto
          -271 -94 261 266 413 183 447 341 270 94 -261 -267 -413 -183 -446 -340 hvcurveto
          endchar
        </CharString>
        <CharString name="Iacute">
          588 749 1806 31 callsubr
          -513 -1645 -82 callsubr
          -97 callsubr
          -93 callsubr
          -80 callsubr
        </CharString>
        <CharString name="Ibreve">
          588 660 1585 107 callsubr
          -228 -1424 -82 callsubr
          -97 callsubr
          -93 callsubr
          -80 callsubr
        </CharString>
        <CharString name="Icaron">
          588 871 1826 129 callsubr
          -478 -1665 -82 callsubr
          -97 callsubr
          -93 callsubr
          -80 callsubr
        </CharString>
        <CharString name="Icircumflex">
          588 436 1538 130 callsubr
          35 -1377 -82 callsubr
          -97 callsubr
          -93 callsubr
          -80 callsubr
        </CharString>
        <CharString name="Icyrillic">
          12 callsubr
          -97 callsubr
          -93 callsubr
          -80 callsubr
        </CharString>
        <CharString name="Idblgrave">
          588 436 1805 121 callsubr
          -345 -1376 -82 callsubr
          -97 callsubr
          -93 callsubr
          -80 callsubr
        </CharString>
        <CharString name="Idieresis">
          588 503 1583 10 callsubr
          -362 -1422 -82 callsubr
          -97 callsubr
          -93 callsubr
          -80 callsubr
        </CharString>
        <CharString name="Idieresisacute">
          588 934 89 callsubr
          -7 -32 rlineto
          62 -192 -61 callsubr
          -328 -1406 -82 callsubr
          -97 callsubr
          -93 callsubr
          -80 callsubr
        </CharString>
        <CharString name="Idotaccent">
          588 649 1580 7 callsubr
          -217 -1419 -82 callsubr
          -97 callsubr
          -93 callsubr
          -80 callsubr
        </CharString>
        <CharString name="Idotbelow">
          12 callsubr
          -97 callsubr
          -93 callsubr
          -12 callsubr
          -195 -359 -100 callsubr
        </CharString>
        <CharString name="Iecyrillic">
          1158 1337 1444 -89 callsubr
        </CharString>
        <CharString name="Igrave">
          588 590 1805 -102 callgsubr
          -259 -1376 -82 callsubr
          -97 callsubr
          -93 callsubr
          -80 callsubr
        </CharString>
        <CharString name="Ihookabove">
          588 678 1848 112 callsubr
          -246 -1687 -82 callsubr
          -97 callsubr
          -93 callsubr
          -80 callsubr
        </CharString>
        <CharString name="Iicyrillic">
          1490 54 hmoveto
          158 callsubr
        </CharString>
        <CharString name="Iinvertedbreve">
          588 663 1861 -19 callsubr
          -231 -1700 -82 callsubr
          -97 callsubr
          -93 callsubr
          -80 callsubr
        </CharString>
        <CharString name="Iishortcyrillic">
          1490 1075 1605 56 callsubr
          -1021 -1605 rmoveto
          158 callsubr
        </CharString>
        <CharString name="Imacron">
          588 418 1623 -92 callgsubr
          -8 -1565 -82 callsubr
          -97 callsubr
          -93 callsubr
          -80 callsubr
        </CharString>
        <CharString name="Iocyrillic">
          1158 795 -55 callsubr
          251 -138 -89 callsubr
        </CharString>
        <CharString name="Iogonek">
          12 callsubr
          rlineto
          -97 callsubr
          -93 39 callsubr
          -120 -14 -7 -34 rcurveline
          233 hlineto
          -129 -97 -82 -112 -110 vvcurveto
          -91 70 -36 callgsubr
          -38 59 95 76 28 80 61 70 hvcurveto
          213 hlineto
          7 34 -115 14 -13 20 20 93 rlinecurve
          endchar
        </CharString>
        <CharString name="Iotadieresisgreek">
          588 503 1583 10 callsubr
          -362 -1422 -82 callsubr
          -97 callsubr
          -93 callsubr
          -80 callsubr
        </CharString>
        <CharString name="Iotagreek">
          12 callsubr
          -97 callsubr
          -93 callsubr
          -80 callsubr
        </CharString>
        <CharString name="Iotatonosgreek">
          913 757 161 -82 callsubr
          -97 callsubr
          -93 callsubr
          -12 callsubr
          -391 1283 32 callsubr
          endchar
        </CharString>
        <CharString name="Itilde">
          588 738 1591 100 callsubr
          -306 -1430 -82 callsubr
          -97 callsubr
          -93 callsubr
          -80 callsubr
        </CharString>
        <CharString name="Itildebelow">
          12 callsubr
          -97 callsubr
          -93 callsubr
          -12 callsubr
          -103 -556 -20 callsubr
        </CharString>
        <CharString name="J">
          589 450 243 -35 callsubr
        </CharString>
        <CharString name="Jacute">
          589 740 -94 callsubr
          -486 -1562 -35 callsubr
        </CharString>
        <CharString name="Jcircumflex">
          589 427 -75 callsubr
          62 -1294 -35 callsubr
        </CharString>
        <CharString name="Jecyrillic">
          589 450 243 -35 callsubr
        </CharString>
        <CharString name="K">
          1274 435 161 -5 callsubr
        </CharString>
        <CharString name="Kaacutecyrillic">
          1274 1129 -94 callsubr
          -890 -1644 -5 callsubr
        </CharString>
        <CharString name="Kacute">
          1274 1129 -94 callsubr
          -890 -1644 -5 callsubr
        </CharString>
        <CharString name="Kacyrillic">
          1274 435 161 -5 callsubr
        </CharString>
        <CharString name="Kappagreek">
          1274 435 161 -5 callsubr
        </CharString>
        <CharString name="Kcaron">
          1274 1251 -79 callsubr
          -855 -1664 -5 callsubr
        </CharString>
        <CharString name="Kcommaaccent">
          96 callsubr
          191 -607 -77 callsubr
        </CharString>
        <CharString name="Kdotbelow">
          96 callsubr
          212 -359 -100 callsubr
        </CharString>
        <CharString name="Klinebelow">
          96 callsubr
          -30 -502 -81 callsubr
        </CharString>
        <CharString name="L">
          1093 -28 callsubr
          endchar
        </CharString>
        <CharString name="Lacute">
          1093 739 -94 callsubr
          78 -1805 rmoveto
          29 callsubr
          60 callsubr
          endchar
        </CharString>
        <CharString name="Lambdagreek">
          1304 1165 219 rmoveto
          -167 1231 -80 0 -669 -1198 -99 -176 -34 -27 -110 -15 rlinecurve
          -7 -34 375 0 7 34 -143 20 -16 32 108 198 rlinecurve
          497 917 119 -982 15 -129 -20 -41 -135 -15 rlinecurve
          -7 -34 506 0 7 34 -95 12 -34 31 -18 142 rlinecurve
          endchar
        </CharString>
        <CharString name="Lcaron">
          1093 981 1079 79 callsubr
          65 -1079 rmoveto
          29 callsubr
          60 callsubr
          endchar
        </CharString>
        <CharString name="Lcircumflexbelow">
          1093 -28 callsubr
          216 -446 -72 callsubr
        </CharString>
        <CharString name="Lcommaaccent">
          1093 -28 callsubr
          423 -446 -77 callsubr
        </CharString>
        <CharString name="Ldot">
          1093 -28 callsubr
          878 701 70 callsubr
          endchar
        </CharString>
        <CharString name="Ldotbelow">
          1093 -28 callsubr
          444 -198 -100 callsubr
        </CharString>
        <CharString name="Ldotbelowmacron">
          1093 408 -56 callsubr
          583 -1725 rmoveto
          29 callsubr
          60 callsubr
          444 -198 -100 callsubr
        </CharString>
        <CharString name="Ljecyrillic">
          1945 49 109 rmoveto
          -74 53 -57 85 189 107 223 457 126 vhcurveto
          70 249 50 193 65 300 rrcurveto
          468 hlineto
          -263 -1242 rlineto
          -19 -89 -25 -21 -140 -14 -7 -34 rcurveline
          497 hlineto
          438 267 200 276 231 -195 142 -336 hvcurveto
          -127 hlineto
          94 437 19 89 23 22 126 13 rlinecurve
          7 34 -1050 179 callsubr
          vhcurveto
          1740 385 rmoveto
          -262 -181 -178 -320 -11 vhcurveto
          -107 -3 162 765 112 -1 rlineto
          217 -4 117 -109 -197 vvcurveto
          endchar
        </CharString>
        <CharString name="Llinebelow">
          1093 -28 callsubr
          202 -341 -81 callsubr
        </CharString>
        <CharString name="Lslash">
          1093 199 670 rmoveto
          146 44 -118 -553 -19 -92 -22 -21 -120 -14 rlinecurve
          -8 -34 955 0 29 callsubr
          157 739 364 109 10 47 -364 -109 97 457 20 93 24 20 124 14 rlinecurve
          7 34 -483 0 -7 -34 -97 callsubr
          -96 rlinecurve
          -111 -520 -145 -43 rlineto
          endchar
        </CharString>
        <CharString name="M">
          1693 718 1444 20 callsubr
        </CharString>
        <CharString name="Macute">
          1693 1304 -94 callsubr
          -782 -361 20 callsubr
        </CharString>
        <CharString name="Mdotaccent">
          1693 1204 -85 callsubr
          -486 -135 20 callsubr
        </CharString>
        <CharString name="Mdotbelow">
          1693 718 1444 rmoveto
          -333 hlineto
          -7 -34 102 -16 20 -38 -28 -111 rlinecurve
          -243 -993 -40 -160 -30 -38 -124 -20 rlinecurve
          -7 -34 367 0 7 34 -130 20 -10 37 36 161 rlinecurve
          229 1036 212 -1288 77 0 130 234 604 1054 -206 -1130 -16 -89 -24 -19 -121 -16 rlinecurve
          -7 -34 477 0 7 34 -81 callgsubr
          -187 -443 -100 callsubr
        </CharString>
        <CharString name="Mugreek">
          1693 718 1444 20 callsubr
        </CharString>
        <CharString name="N">
          1401 -25 callsubr
          endchar
        </CharString>
        <CharString name="Nacute">
          1401 1141 -94 callsubr
          -680 -361 rmoveto
          -91 callgsubr
          endchar
        </CharString>
        <CharString name="Ncaron">
          1401 1263 -79 callsubr
          -645 -381 rmoveto
          -91 callgsubr
          endchar
        </CharString>
        <CharString name="Ncircumflexbelow">
          1401 -25 callsubr
          -814 -725 -72 callsubr
        </CharString>
        <CharString name="Ncommaaccent">
          1401 -25 callsubr
          -607 -725 -77 callsubr
        </CharString>
        <CharString name="Ndotaccent">
          1401 1041 -85 callsubr
          -384 -135 rmoveto
          -91 callgsubr
          endchar
        </CharString>
        <CharString name="Ndotbelow">
          1401 -25 callsubr
          -586 -477 -100 callsubr
        </CharString>
        <CharString name="Ngrave">
          1401 982 -41 callsubr
          -426 -92 rmoveto
          -91 callgsubr
          endchar
        </CharString>
        <CharString name="Njecyrillic">
          1997 444 161 rmoveto
          128 601 609 0 -127 -601 rlineto
          -20 -94 -22 -19 -119 -14 -7 -34 rcurveline
          473 hlineto
          437 266 192 266 217 -195 133 -338 hvcurveto
          -130 hlineto
          101 478 -97 callgsubr
          -484 0 -7 -34 111 -14 16 -19 -20 -94 rlinecurve
          -101 -475 -609 0 101 475 20 94 24 19 117 -23 callsubr
          111 -14 16 -19 -20 -94 rlinecurve
          -238 -1122 -20 -94 -23 -19 -118 13 callsubr
          -110 13 -18 20 20 94 rlinecurve
          1397 314 rmoveto
          -251 -181 -170 -318 -11 vhcurveto
          -107 -3 155 724 115 -2 rlineto
          223 -4 113 -99 -184 vvcurveto
          endchar
        </CharString>
        <CharString name="Nlinebelow">
          1401 -25 callsubr
          -828 -620 -81 callsubr
        </CharString>
        <CharString name="Ntilde">
          1401 1130 -40 callsubr
          -473 -146 rmoveto
          -91 callgsubr
          endchar
        </CharString>
        <CharString name="Nugreek">
          1401 -25 callsubr
          endchar
        </CharString>
        <CharString name="O">
          1553 864 -19 -96 callsubr
        </CharString>
        <CharString name="OE">
          1920 252 635 rmoveto
          -385 253 -271 385 vhcurveto
          130 62 21 130 hhcurveto
          632 hlineto
          98 379 rlineto
          -29 hlineto
          -105 -250 -100 -68 -284 -11 rrcurveto
          -239 -10 144 677 247 -4 126 -4 19 -48 -4 -154 rlinecurve
          29 hlineto
          96 450 rlineto
          -29 hlineto
          -58 -148 -42 -39 -127 -4 rrcurveto
          -247 -4 136 642 216 -10 259 -11 44 -50 13 -230 rlinecurve
          29 hlineto
          56 341 rlineto
          -647 hlineto
          -166 -68 21 -154 hhcurveto
          -467 -338 -360 -470 hvcurveto
          225 -62 rmoveto
          406 221 437 380 85 62 -13 -20 39 vhcurveto
          -284 -1339 rlineto
          -12 -30 -31 -4 -33 hhcurveto
          -265 -144 222 323 hvcurveto
          endchar
        </CharString>
        <CharString name="Oacute">
          1553 1172 -94 callsubr
          -504 -1824 -96 callsubr
        </CharString>
        <CharString name="Obreve">
          1553 1083 -8 callsubr
          -219 -1603 -96 callsubr
        </CharString>
        <CharString name="Ocaron">
          1553 1294 -79 callsubr
          -469 -1844 -96 callsubr
        </CharString>
        <CharString name="Ocircumflex">
          1553 859 -75 callsubr
          44 -1556 -96 callsubr
        </CharString>
        <CharString name="Ocircumflexacute">
          1553 1353 73 callsubr
          68 -1555 -96 callsubr
        </CharString>
        <CharString name="Ocircumflexdotbelow">
          1553 859 -75 callsubr
          44 -1556 111 callsubr
          -58 -230 -100 callsubr
        </CharString>
        <CharString name="Ocircumflexgrave">
          1553 855 66 callsubr
          68 -1555 -96 callsubr
        </CharString>
        <CharString name="Ocircumflexhookabove">
          1553 1333 54 callsubr
          68 -1555 -96 callsubr
        </CharString>
        <CharString name="Ocircumflextilde">
          1553 1204 61 callsubr
          68 -1555 -96 callsubr
        </CharString>
        <CharString name="Ocyrillic">
          1553 864 -19 -96 callsubr
        </CharString>
        <CharString name="Odblgrave">
          1553 859 41 callsubr
          -336 -1555 -96 callsubr
        </CharString>
        <CharString name="Odieresis">
          1553 926 -55 callsubr
          -353 -1601 -96 callsubr
        </CharString>
        <CharString name="Odieresismacron">
          1553 855 1811 38 callsubr
          33 -327 -61 callsubr
          -320 -1585 -96 callsubr
        </CharString>
        <CharString name="Odotaccent">
          1553 1072 -85 callsubr
          -208 -1598 -96 callsubr
        </CharString>
        <CharString name="Odotaccentmacron">
          1553 850 120 callsubr
          -205 -1583 -96 callsubr
        </CharString>
        <CharString name="Odotbelow">
          1553 864 -19 111 callsubr
          -58 -230 -100 callsubr
        </CharString>
        <CharString name="Ograve">
          1553 1013 -41 callsubr
          -250 -1555 -96 callsubr
        </CharString>
        <CharString name="Ohookabove">
          1553 1101 -9 callsubr
          -237 -1866 -96 callsubr
        </CharString>
        <CharString name="Ohorn">
          1561 245 625 18 callsubr
        </CharString>
        <CharString name="Ohornacute">
          1561 1173 -94 callsubr
          -1124 -1180 18 callsubr
        </CharString>
        <CharString name="Ohorndotbelow">
          1561 245 625 rmoveto
          -387 1 252 -256 367 hhcurveto
          436 314 383 453 284 -139 207 -211 96 hvcurveto
          -6 36 40 -4 47 hhcurveto
          174 147 68 137 78 -46 68 -65 31 hvcurveto
          -31 hlineto
          9 -17 5 -30 -31 vvcurveto
          -145 -108 -115 -188 vhcurveto
          -99 -65 23 -125 hhcurveto
          -436 -316 -384 -453 1 hvcurveto
          226 -73 rmoveto
          417 215 442 329 90 callsubr
          -464 -236 -395 -309 -226 -148 182 338 vhcurveto
          320 -750 -100 callsubr
        </CharString>
        <CharString name="Ohorngrave">
          1561 1014 -41 callsubr
          -870 -911 18 callsubr
        </CharString>
        <CharString name="Ohornhookabove">
          1561 1102 -9 callsubr
          -857 -1222 18 callsubr
        </CharString>
        <CharString name="Ohorntilde">
          1561 1162 -40 callsubr
          -917 -965 18 callsubr
        </CharString>
        <CharString name="Ohungarumlaut">
          1553 1023 1805 119 callsubr
          -629 -1825 -96 callsubr
        </CharString>
        <CharString name="Oinvertedbreve">
          1553 1086 1860 -19 callsubr
          -222 -1879 -96 callsubr
        </CharString>
        <CharString name="Omacron">
          1553 841 -56 callsubr
          1 -1744 -96 callsubr
        </CharString>
        <CharString name="Omacronacute">
          1553 1358 89 callsubr
          138 callsubr
          38 -1697 -96 callsubr
        </CharString>
        <CharString name="Omacrongrave">
          1553 860 35 callsubr
          137 callsubr
          38 -1697 -96 callsubr
        </CharString>
        <CharString name="Omegagreek">
          1667 145 144 callsubr
          endchar
        </CharString>
        <CharString name="Omegatonosgreek">
          1808 286 144 callsubr
          53 1131 32 callsubr
          endchar
        </CharString>
        <CharString name="Omicrongreek">
          1553 864 -19 -96 callsubr
        </CharString>
        <CharString name="Omicrontonosgreek">
          1695 1006 -19 rmoveto
          437 314 384 453 134 callsubr
          hvcurveto
          -388 1 252 -257 366 hhcurveto
          -640 1463 32 callsubr
          418 -1412 1 callgsubr
        </CharString>
        <CharString name="Oogonek">
          -22 callgsubr
          157 callsubr
        </CharString>
        <CharString name="Oogonekmacron">
          1553 841 -56 callsubr
          2 -1743 rmoveto
          436 314 384 452 157 callsubr
        </CharString>
        <CharString name="Oslash">
          -22 callgsubr
          140 callsubr
        </CharString>
        <CharString name="Oslashacute">
          1553 1172 -94 callsubr
          -503 -1823 rmoveto
          436 314 384 452 140 callsubr
        </CharString>
        <CharString name="Otilde">
          1553 1161 -40 callsubr
          -297 -1609 -96 callsubr
        </CharString>
        <CharString name="Otildeacute">
          1553 1358 36 callsubr
          320 -188 -37 callsubr
          -33 callsubr
          -15 callsubr
          -299 -1589 -96 callsubr
        </CharString>
        <CharString name="Otildedieresis">
          1553 951 1782 rmoveto
          45 40 30 40 9 hvcurveto
          40 9 -28 30 -45 hhcurveto
          -5 hlineto
          -45 -41 -30 -40 -8 -94 callgsubr
          122 callsubr
          -66 -212 -37 callsubr
          -33 callsubr
          -15 callsubr
          -299 -1589 -96 callsubr
        </CharString>
        <CharString name="Otildemacron">
          1553 854 1811 rmoveto
          500 hlineto
          17 82 rlineto
          -499 hlineto
          291 -323 -37 callsubr
          -33 callsubr
          -15 callsubr
          -299 -1589 -96 callsubr
        </CharString>
        <CharString name="P">
          1199 557 hmoveto
          19 callsubr
        </CharString>
        <CharString name="Pacute">
          1199 987 -94 callsubr
          -626 -1805 rmoveto
          19 callsubr
        </CharString>
        <CharString name="Pdotaccent">
          1199 887 -85 callsubr
          -330 -1579 rmoveto
          19 callsubr
        </CharString>
        <CharString name="Pecyrillic">
          1469 1314 161 rmoveto
          239 1122 20 95 24 18 117 14 rlinecurve
          7 34 -1361 0 -7 -34 113 -14 16 -19 -20 -94 rlinecurve
          -238 -1122 -20 -95 -23 -18 -120 13 callsubr
          -108 13 -18 20 20 94 rlinecurve
          264 1239 675 0 -263 -1239 -20 -95 -23 -18 -118 13 callsubr
          -110 13 -18 20 20 94 rlinecurve
          endchar
        </CharString>
        <CharString name="Phigreek">
          1786 238 696 rmoveto
          -20 -300 225 -174 387 -23 rrcurveto
          -9 -41 -19 -88 -22 -25 -119 -11 rlinecurve
          -7 -34 477 0 7 34 rlineto
          -115 13 -14 23 18 88 8 39 rcurveline
          437 9 356 187 21 359 20 300 -225 172 -386 23 rrcurveto
          8 39 18 88 23 25 118 11 rlinecurve
          7 34 -477 0 -6 -34 115 -13 14 -23 -19 -88 rlinecurve
          -8 -37 -435 -9 -356 -184 -22 -360 rlinecurve
          224 -21 rmoveto
          16 281 152 236 412 13 rrcurveto
          -203 -961 -285 25 -109 160 17 246 rlinecurve
          1164 97 rmoveto
          -17 -281 -151 -237 -413 -12 rrcurveto
          203 961 285 -26 109 -159 -16 -246 rlinecurve
          endchar
        </CharString>
        <CharString name="Pigreek">
          1504 1335 161 rmoveto
          239 1121 20 95 26 19 123 14 rlinecurve
          8 34 -1385 0 -7 -34 121 -15 15 -18 -20 -94 rlinecurve
          -239 -1124 -19 -92 -24 -18 -126 -17 rlinecurve
          -7 -34 493 0 7 34 -118 16 -18 19 20 92 rlinecurve
          263 1239 683 0 -262 -1237 -20 -94 -24 -18 -125 -15 rlinecurve
          -7 -34 492 0 7 34 -118 14 -18 19 20 94 rlinecurve
          endchar
        </CharString>
        <CharString name="Psigreek">
          1701 566 hmoveto
          526 hlineto
          7 34 rlineto
          -137 16 -16 21 19 87 81 383 rcurveline
          336 10 168 96 126 360 81 231 rcurveline
          45 128 39 28 90 9 8 34 rcurveline
          3 -27 -44 3 -44 hhcurveto
          -144 -71 -41 -162 -57 hvcurveto
          -83 -232 -110 -308 -95 -97 -209 -18 rlinecurve
          148 698 20 93 23 22 109 12 rlinecurve
          7 34 -457 0 -7 -34 rlineto
          105 -12 12 -22 -20 -93 -148 -698 rcurveline
          -203 17 -54 96 23 310 17 224 rcurveline
          162 12 -56 49 -148 hhcurveto
          -40 -47 -3 -3 -27 hvcurveto
          -8 -34 87 -9 31 -28 -10 -128 rlinecurve
          -18 -231 -27 -356 121 -100 338 -10 rlinecurve
          -81 -383 -19 -87 -25 -24 -140 -13 rlinecurve
          endchar
        </CharString>
        <CharString name="Q">
          1557 1252 -359 rmoveto
          81 78 24 43 63 hvcurveto
          6 31 rlineto
          -118 -9 -88 35 -156 124 -128 103 rcurveline
          370 66 255 352 408 vvcurveto
          134 callsubr
          vhcurveto
          1 -336 189 -237 287 -58 186 -169 rcurveline
          -143 160 86 -42 98 hhcurveto
          -407 391 1 callgsubr
        </CharString>
        <CharString name="R">
          1263 997 hmoveto
          17 callsubr
          endchar
        </CharString>
        <CharString name="Racute">
          1263 1027 -94 callsubr
          -226 -1805 rmoveto
          17 callsubr
          endchar
        </CharString>
        <CharString name="Rcaron">
          1263 1149 -79 callsubr
          -191 -1825 rmoveto
          17 callsubr
          endchar
        </CharString>
        <CharString name="Rcommaaccent">
          1263 997 hmoveto
          17 callsubr
          -494 -1530 -77 callsubr
        </CharString>
        <CharString name="Rdblgrave">
          1263 714 41 callsubr
          -58 -1536 rmoveto
          17 callsubr
          endchar
        </CharString>
        <CharString name="Rdotaccent">
          1263 927 -85 callsubr
          70 -1579 rmoveto
          17 callsubr
          endchar
        </CharString>
        <CharString name="Rdotbelow">
          1263 997 hmoveto
          17 callsubr
          -473 -1282 -100 callsubr
        </CharString>
        <CharString name="Rdotbelowmacron">
          1263 696 -56 callsubr
          279 -1725 rmoveto
          17 callsubr
          -473 -1282 -100 callsubr
        </CharString>
        <CharString name="Rhogreek">
          1199 557 hmoveto
          19 callsubr
        </CharString>
        <CharString name="Rinvertedbreve">
          1263 941 1860 -19 callsubr
          56 -1860 rmoveto
          17 callsubr
          endchar
        </CharString>
        <CharString name="Rlinebelow">
          1263 997 hmoveto
          17 callsubr
          -715 -1425 -81 callsubr
        </CharString>
        <CharString name="S">
          1082 570 -21 44 callsubr
          endchar
        </CharString>
        <CharString name="Sacute">
          1082 966 -94 callsubr
          -592 -1826 44 callsubr
          endchar
        </CharString>
        <CharString name="Sacutedotaccent">
          1082 902 1756 71 callsubr
          -19 callgsubr
          -22 -1572 44 callsubr
          endchar
        </CharString>
        <CharString name="Scaron">
          1082 1088 -79 callsubr
          -557 -1846 44 callsubr
          endchar
        </CharString>
        <CharString name="Scarondotaccent">
          1082 906 1775 71 callsubr
          -69 callgsubr
          -564 -1741 44 callsubr
          endchar
        </CharString>
        <CharString name="Scedilla">
          1082 477 2 callsubr
          82 94 rlineto
          250 3 240 149 271 vvcurveto
          152 -71 119 -170 121 vhcurveto
          -114 85 rlineto
          -132 93 -49 83 105 vvcurveto
          156 111 99 175 187 113 -132 -253 8 vhcurveto
          30 hlineto
          48 320 rlineto
          64 -74 -136 51 -183 hhcurveto
          -277 -195 -151 -244 -149 85 -116 157 -112 hvcurveto
          114 -85 rlineto
          133 -94 47 -91 -117 vvcurveto
          -177 -144 -100 -168 -194 -145 113 264 -3 vhcurveto
          -30 hlineto
          -52 -319 75 -56 165 -44 153 -7 rlinecurve
          -128 -146 -69 callsubr
          5 callsubr
          endchar
        </CharString>
        <CharString name="Schwa">
          1444 730 -21 rmoveto
          427 311 372 451 393 -209 270 -398 -176 -169 -43 -76 -95 hvcurveto
          -75 -321 rlineto
          29 hlineto
          261 107 180 129 198 hhcurveto
          269 112 -252 -316 -59 -3 -57 -7 -55 hvcurveto
          -986 hlineto
          -18 -52 -14 -70 -72 vvcurveto
          -244 123 -259 394 vhcurveto
          -318 440 rmoveto
          75 9 79 19 57 vhcurveto
          785 hlineto
          -352 -52 -182 -251 -260 hhcurveto
          -225 -94 175 217 hvcurveto
          endchar
        </CharString>
        <CharString name="Scircumflex">
          1082 653 -75 callsubr
          -44 -1558 44 callsubr
          endchar
        </CharString>
        <CharString name="Scommaaccent">
          1082 570 -21 44 callsubr
          -96 -425 -77 callsubr
        </CharString>
        <CharString name="Sdotaccent">
          1082 866 -85 callsubr
          -296 -1600 44 callsubr
          endchar
        </CharString>
        <CharString name="Sdotbelow">
          1082 570 -21 44 callsubr
          -75 -177 -100 callsubr
        </CharString>
        <CharString name="Sdotbelowdotaccent">
          1082 866 -85 callsubr
          -296 -1600 44 callsubr
          -75 -177 -100 callsubr
        </CharString>
        <CharString name="Shacyrillic">
          2183 461 1283 rmoveto
          -239 -1122 -20 -95 -24 -18 -117 -14 rlinecurve
          -7 -34 2043 0 7 34 -112 14 -16 19 20 94 rlinecurve
          239 1122 20 95 23 18 119 -23 callsubr
          109 -100 callgsubr
          -40 callgsubr
          -58 callgsubr
          263 1238 20 95 23 -29 callgsubr
        </CharString>
        <CharString name="Shchacyrillic">
          2183 131 callsubr
          1756 hlineto
          211 25 -53 -269 18 hvcurveto
          40 hlineto
          63 367 -195 0 263 -59 callgsubr
          -40 callgsubr
          -58 callgsubr
          264 1238 20 95 22 -29 callgsubr
        </CharString>
        <CharString name="Sigmagreek">
          -14 callgsubr
          -32 384 -718 -651 -662 -6 -32 1066 0 99 388 rlineto
          -32 hlineto
          -207 -99 -85 -28 -294 hhcurveto
          -467 hlineto
          639 643 3 16 -317 593 390 -11 285 -8 58 -49 3 -222 rlinecurve
          31 hlineto
          endchar
        </CharString>
        <CharString name="Softsigncyrillic">
          1167 164 callsubr
          -220 18 -79 callgsubr
        </CharString>
        <CharString name="T">
          1253 1493 -22 callsubr
          -58 callsubr
          -51 callsubr
          -49 callsubr
          4 callsubr
          endchar
        </CharString>
        <CharString name="Taugreek">
          1253 1493 -22 callsubr
          -58 callsubr
          -51 callsubr
          -49 callsubr
          4 callsubr
          endchar
        </CharString>
        <CharString name="Tbar">
          1253 403 718 rmoveto
          272 hlineto
          -119 -560 -18 -87 -25 -23 -142 -14 rlinecurve
          -7 -34 -49 callsubr
          119 560 277 0 9 44 -277 0 136 642 55 -3 260 -15 61 -52 2 -231 rlinecurve
          32 hlineto
          55 341 -1120 0 -58 callsubr
          -137 -642 rlineto
          -272 hlineto
          endchar
        </CharString>
        <CharString name="Tcaron">
          1253 1199 -79 callsubr
          255 -381 rmoveto
          -1120 hlineto
          -58 callsubr
          -51 callsubr
          -49 callsubr
          4 callsubr
          endchar
        </CharString>
        <CharString name="Tcedilla">
          1253 549 -446 rmoveto
          -43 callgsubr
          231 0 7 34 -138 16 -16 21 19 87 rlinecurve
          4 callsubr
          55 341 -1120 0 -58 callsubr
          -51 callsubr
          250 -62 callgsubr
          -51 -50 20 30 -30 hvcurveto
          -8 -34 rlineto
          -55 35 60 -42 89 hhcurveto
          endchar
        </CharString>
        <CharString name="Tcircumflexbelow">
          1253 1493 -22 callsubr
          -58 callsubr
          -51 callsubr
          -49 callsubr
          4 callsubr
          -1099 -1549 -72 callsubr
        </CharString>
        <CharString name="Tcommaaccent">
          1253 1493 -22 callsubr
          -58 callsubr
          -51 callsubr
          -49 callsubr
          4 callsubr
          -892 -1549 -77 callsubr
        </CharString>
        <CharString name="Tdotaccent">
          1253 977 -85 callsubr
          516 -135 rmoveto
          -1120 hlineto
          -58 callsubr
          -51 callsubr
          -49 callsubr
          4 callsubr
          endchar
        </CharString>
        <CharString name="Tdotbelow">
          1253 1493 -22 callsubr
          -58 callsubr
          -51 callsubr
          -49 callsubr
          4 callsubr
          -871 -1301 -100 callsubr
        </CharString>
        <CharString name="Tecyrillic">
          1253 1493 -22 callsubr
          -58 callsubr
          -51 callsubr
          -49 callsubr
          4 callsubr
          endchar
        </CharString>
        <CharString name="Thetagreek">
          1582 857 -21 rmoveto
          440 330 369 450 2 hvcurveto
          3 375 -226 294 -381 -2 -442 -1 -325 -373 -2 -450 rrcurveto
          -371 -3 224 -291 380 hhcurveto
          4 47 rmoveto
          -252 -130 232 322 3 hvcurveto
          392 3 167 446 368 hhcurveto
          259 127 -231 -328 -3 hvcurveto
          -392 -4 -172 -441 -366 hhcurveto
          -274 468 rmoveto
          30 hlineto
          148 51 48 58 116 hhcurveto
          197 hlineto
          116 22 -58 -148 -12 hvcurveto
          29 hlineto
          97 451 rlineto
          -29 hlineto
          -147 -55 -46 -53 -113 hhcurveto
          -197 hlineto
          -113 -23 53 147 8 hvcurveto
          -29 hlineto
          endchar
        </CharString>
        <CharString name="Thorn">
          1211 236 161 rmoveto
          -20 -95 -23 -18 -118 -14 rrcurveto
          -7 -34 476 0 7 34 rlineto
          -110 13 -18 19 20 95 38 180 rcurveline
          144 hlineto
          353 300 164 270 220 -189 138 -301 hvcurveto
          -138 hlineto
          32 150 20 95 24 18 117 -23 callsubr
          111 -14 16 -18 -20 -95 rlinecurve
          590 -490 rmoveto
          -211 -140 -186 -321 -11 vhcurveto
          -113 -4 151 712 110 -3 rlineto
          201 -8 112 -124 -165 vvcurveto
          endchar
        </CharString>
        <CharString name="Tlinebelow">
          1253 1493 -22 callsubr
          -58 callsubr
          -51 callsubr
          -49 callsubr
          4 callsubr
          -1113 -1444 -81 callsubr
        </CharString>
        <CharString name="Tsecyrillic">
          1500 131 callsubr
          1072 hlineto
          212 24 -53 -269 19 hvcurveto
          39 hlineto
          64 367 -195 0 262 -59 callgsubr
          -675 0 263 1238 20 95 23 -29 callgsubr
        </CharString>
        <CharString name="Tshecyrillic">
          1710 1500 1444 rmoveto
          -1129 hlineto
          -83 -341 rlineto
          31 hlineto
          95 224 72 58 -90 callgsubr
          25 77 84 17 103 hhcurveto
          230 88 -139 -252 -54 hvcurveto
          -79 -374 342 0 7 34 rlineto
          -112 14 -16 18 20 95 44 208 rcurveline
          304 63 -165 149 -325 hhcurveto
          -121 -91 -20 -33 -85 hvcurveto
          -33 callgsubr
          endchar
        </CharString>
        <CharString name="U">
          1442 757 -21 -83 callsubr
        </CharString>
        <CharString name="Uacute">
          1442 1210 -94 callsubr
          -649 -1826 -83 callsubr
        </CharString>
        <CharString name="Ubreve">
          1442 1121 -8 callsubr
          -364 -1605 -83 callsubr
        </CharString>
        <CharString name="Ubrevecyrillic">
          1373 1089 1605 56 callsubr
          -860 -1502 148 callsubr
        </CharString>
        <CharString name="Ucaron">
          1442 1332 -79 callsubr
          -614 -1846 -83 callsubr
        </CharString>
        <CharString name="Ucircumflex">
          1442 897 -75 callsubr
          -101 -1558 -83 callsubr
        </CharString>
        <CharString name="Ucircumflexbelow">
          51 callsubr
          -284 -425 -72 callsubr
        </CharString>
        <CharString name="Ucyrillic">
          1374 229 103 148 callsubr
        </CharString>
        <CharString name="Udblgrave">
          1442 897 41 callsubr
          -481 -1557 -83 callsubr
        </CharString>
        <CharString name="Udieresis">
          1442 964 -55 callsubr
          -498 -1603 -83 callsubr
        </CharString>
        <CharString name="Udieresisacute">
          1442 1396 36 callsubr
          62 -192 -61 callsubr
          -465 -1587 -83 callsubr
        </CharString>
        <CharString name="Udieresisbelow">
          51 callsubr
          -235 -357 106 callsubr
        </CharString>
        <CharString name="Udieresiscaron">
          1442 1421 1948 rmoveto
          -268 -87 -231 87 -7 -31 201 -161 31 0 268 161 rlineto
          -472 -351 -61 callsubr
          -465 -1587 -83 callsubr
        </CharString>
        <CharString name="Udieresisgrave">
          1442 897 1833 rmoveto
          483 -75 7 32 -467 156 rlineto
          23 -380 -61 callsubr
          -465 -1587 -83 callsubr
        </CharString>
        <CharString name="Udieresismacron">
          1442 893 1811 38 callsubr
          33 -327 -61 callsubr
          -465 -1587 -83 callsubr
        </CharString>
        <CharString name="Udotbelow">
          51 callsubr
          -56 -177 -100 callsubr
        </CharString>
        <CharString name="Ugrave">
          1442 1051 -41 callsubr
          -395 -1557 -83 callsubr
        </CharString>
        <CharString name="Uhookabove">
          1442 1139 -9 callsubr
          -382 -1868 -83 callsubr
        </CharString>
        <CharString name="Uhorn">
          1518 308 592 30 callsubr
        </CharString>
        <CharString name="Uhornacute">
          1518 1223 -94 callsubr
          -1111 -1213 30 callsubr
        </CharString>
        <CharString name="Uhorndotbelow">
          1518 308 592 rmoveto
          -432 -93 244 -181 298 hhcurveto
          149 callsubr
          227 -1473 -100 callsubr
        </CharString>
        <CharString name="Uhorngrave">
          1518 1064 -41 callsubr
          -857 -944 30 callsubr
        </CharString>
        <CharString name="Uhornhookabove">
          1518 1152 -9 callsubr
          -844 -1255 30 callsubr
        </CharString>
        <CharString name="Uhorntilde">
          1518 1212 -40 callsubr
          -904 -998 30 callsubr
        </CharString>
        <CharString name="Uhungarumlaut">
          1442 1061 1805 119 callsubr
          -774 -1827 -83 callsubr
        </CharString>
        <CharString name="Uinvertedbreve">
          1442 1124 1860 -19 callsubr
          -367 -1881 -83 callsubr
        </CharString>
        <CharString name="Umacron">
          1442 879 -56 callsubr
          -144 -1746 -83 callsubr
        </CharString>
        <CharString name="Umacrondieresis">
          1442 990 175 callsubr
          -125 -1699 -83 callsubr
        </CharString>
        <CharString name="Uogonek">
          1442 708 -57 callgsubr
          91 71 27 73 54 65 hvcurveto
          319 8 195 219 77 336 rrcurveto
          146 641 39 169 25 39 125 19 rlinecurve
          7 34 -366 0 -7 -34 rlineto
          132 -20 8 -38 -33 -169 -128 -631 rcurveline
          -320 -64 -191 -177 69 callsubr
          -8 callgsubr
          103 -16 15 -22 -21 -97 rlinecurve
          -145 -683 -90 -423 232 -183 290 -7 rlinecurve
          -121 -92 -78 -103 -103 vvcurveto
          -91 71 -65 97 vhcurveto
          endchar
        </CharString>
        <CharString name="Upsilondieresisgreek">
          1238 883 -55 callsubr
          -707 -380 -59 callsubr
        </CharString>
        <CharString name="Upsilongreek">
          1238 467 1202 -59 callsubr
        </CharString>
        <CharString name="Upsilontonosgreek">
          1589 818 -87 callgsubr
          -452 242 32 callsubr
          endchar
        </CharString>
        <CharString name="Uring">
          1442 919 1710 110 callsubr
          -281 -1706 -83 callsubr
        </CharString>
        <CharString name="Utilde">
          1442 1199 -40 callsubr
          -442 -1611 -83 callsubr
        </CharString>
        <CharString name="Utildeacute">
          1442 1396 36 callsubr
          320 -188 -37 callsubr
          -33 callsubr
          -15 callsubr
          -444 -1591 -83 callsubr
        </CharString>
        <CharString name="Utildebelow">
          51 callsubr
          36 -374 -20 callsubr
        </CharString>
        <CharString name="V">
          -15 callgsubr
          endchar
        </CharString>
        <CharString name="Vdotbelow">
          -15 callgsubr
          162 -1405 -100 callsubr
        </CharString>
        <CharString name="Vecyrillic">
          1238 1241 444 57 callsubr
        </CharString>
        <CharString name="Vtilde">
          1288 1150 -40 callsubr
          -716 -383 rmoveto
          163 callsubr
          endchar
        </CharString>
        <CharString name="W">
          2004 431 1207 -1 callsubr
        </CharString>
        <CharString name="Wacute">
          2004 1529 -94 callsubr
          -1294 -598 -1 callsubr
        </CharString>
        <CharString name="Wcircumflex">
          2004 1216 -75 callsubr
          -746 -330 -1 callsubr
        </CharString>
        <CharString name="Wdieresis">
          2004 1283 -55 callsubr
          -1143 -375 -1 callsubr
        </CharString>
        <CharString name="Wdotaccent">
          2004 1429 -85 callsubr
          -998 -372 -1 callsubr
        </CharString>
        <CharString name="Wdotbelow">
          2004 431 1207 rmoveto
          120 -1214 82 0 628 1211 103 -1211 83 0 621 1185 100 189 41 28 103 15 rlinecurve
          7 34 -370 0 -7 -34 160 callsubr
          516 -1405 -100 callsubr
        </CharString>
        <CharString name="Wgrave">
          2004 1370 -41 callsubr
          -1040 -329 -1 callsubr
        </CharString>
        <CharString name="X">
          1244 306 264 16 callsubr
        </CharString>
        <CharString name="Xdieresis">
          1244 902 -55 callsubr
          -887 -1318 16 callsubr
        </CharString>
        <CharString name="Xdotaccent">
          1244 1048 -85 callsubr
          -742 -1315 16 callsubr
        </CharString>
        <CharString name="Xigreek">
          1281 1519 -22 callsubr
          -89 -348 rlineto
          31 hlineto
          171 90 90 33 265 hhcurveto
          285 hlineto
          265 76 -33 -171 17 hvcurveto
          32 hlineto
          -794 -386 rmoveto
          272 -46 callgsubr
          -54 -57 -140 hhcurveto
          -271 hlineto
          -140 -30 57 137 10 hvcurveto
          -30 hlineto
          -94 -440 rlineto
          30 hlineto
          141 49 55 60 140 hhcurveto
          561 -710 rmoveto
          99 386 rlineto
          -32 hlineto
          -208 -99 -85 -29 -294 hhcurveto
          -267 hlineto
          -294 -71 29 208 -12 hvcurveto
          -31 hlineto
          -65 -386 rlineto
          endchar
        </CharString>
        <CharString name="Xigreek.1">
          1305 56 hmoveto
          1173 hlineto
          99 386 rlineto
          -32 hlineto
          -208 -100 -84 -29 -294 hhcurveto
          -123 hlineto
          119 561 rlineto
          126 -46 callgsubr
          -55 -57 -139 hhcurveto
          -126 hlineto
          115 545 rlineto
          134 hlineto
          265 76 -33 -171 17 hvcurveto
          32 hlineto
          58 348 -1143 0 -89 -348 rlineto
          32 hlineto
          171 90 90 33 265 hhcurveto
          131 hlineto
          -115 -545 rlineto
          -126 hlineto
          -139 -30 57 137 9 hvcurveto
          -29 hlineto
          -94 -440 rlineto
          29 hlineto
          141 50 54 60 141 hhcurveto
          126 hlineto
          -119 -561 rlineto
          -125 hlineto
          -293 -72 29 208 -11 hvcurveto
          -32 hlineto
          endchar
        </CharString>
        <CharString name="Y">
          1238 467 1202 -59 callsubr
        </CharString>
        <CharString name="Yacute">
          1238 1129 -94 callsubr
          -858 -603 -59 callsubr
        </CharString>
        <CharString name="Ycircumflex">
          1238 816 -75 callsubr
          -310 -335 -59 callsubr
        </CharString>
        <CharString name="Ydieresis">
          1238 883 -55 callsubr
          -707 -380 -59 callsubr
        </CharString>
        <CharString name="Ydotaccent">
          1238 1029 -85 callsubr
          -562 -377 -59 callsubr
        </CharString>
        <CharString name="Ydotbelow">
          1238 467 -87 callgsubr
          95 -1400 -100 callsubr
        </CharString>
        <CharString name="Yericyrillic">
          1722 164 callsubr
          336 -315 -82 callsubr
          -97 callsubr
          -93 callsubr
          -12 callsubr
          -556 333 -79 callgsubr
        </CharString>
        <CharString name="Ygrave">
          1238 970 -41 callsubr
          -604 -334 -59 callsubr
        </CharString>
        <CharString name="Yhookabove">
          1238 1058 -9 callsubr
          -591 -645 -59 callsubr
        </CharString>
        <CharString name="Yicyrillic">
          588 503 1583 10 callsubr
          -362 -1422 -82 callsubr
          -97 callsubr
          -93 callsubr
          -80 callsubr
        </CharString>
        <CharString name="Ymacron">
          1238 798 -56 callsubr
          -353 -523 -59 callsubr
        </CharString>
        <CharString name="Ytilde">
          1238 1118 -40 callsubr
          -651 -388 -59 callsubr
        </CharString>
        <CharString name="Z">
          1169 1083 hmoveto
          -65 callsubr
          24 callsubr
          endchar
        </CharString>
        <CharString name="Zacute">
          1169 1055 -94 callsubr
          -168 -1805 rmoveto
          -65 callsubr
          24 callsubr
          endchar
        </CharString>
        <CharString name="Zcaron">
          1169 1177 -79 callsubr
          -133 -1825 rmoveto
          -65 callsubr
          24 callsubr
          endchar
        </CharString>
        <CharString name="Zcircumflex">
          1169 742 -75 callsubr
          380 -1537 rmoveto
          -65 callsubr
          24 callsubr
          endchar
        </CharString>
        <CharString name="Zdotaccent">
          1169 955 -85 callsubr
          128 -1579 rmoveto
          -65 callsubr
          24 callsubr
          endchar
        </CharString>
        <CharString name="Zdotbelow">
          1169 1083 hmoveto
          -65 callsubr
          24 callsubr
          468 -198 -100 callsubr
        </CharString>
        <CharString name="Zecyrillic">
          1221 585 -21 rmoveto
          384 258 183 286 198 -168 90 -233 16 hvcurveto
          267 31 213 127 235 vvcurveto
          208 -170 113 -281 -151 -151 -42 -66 -102 vhcurveto
          -79 -328 rlineto
          30 hlineto
          291 107 166 96 177 hhcurveto
          156 80 -114 -149 -222 -140 -162 -250 hvcurveto
          -147 hlineto
          -10 -45 rlineto
          147 hlineto
          208 106 -102 -184 -209 -131 -201 -287 -2 hvcurveto
          -218 -1 -98 176 -11 197 rrcurveto
          -30 hlineto
          -41 -300 rlineto
          -69 87 137 -51 175 hhcurveto
          endchar
        </CharString>
        <CharString name="Zetagreek">
          1169 1083 hmoveto
          -65 callsubr
          24 callsubr
          endchar
        </CharString>
        <CharString name="Zhecyrillic">
          1996 298 hmoveto
          649 725 116 1 -120 -565 -20 -95 -24 -17 -126 -15 rlinecurve
          -7 -34 494 0 7 34 -118 14 -19 18 20 95 rlinecurve
          120 565 118 -1 332 -725 278 0 7 32 -60 24 -39 43 -97 206 rlinecurve
          -260 560 364 328 161 147 80 52 110 18 rlinecurve
          7 34 -398 0 -7 -34 137 -15 -12 -51 -128 -124 rlinecurve
          -463 -447 -120 -1 109 511 20 95 26 18 124 14 rlinecurve
          7 34 -494 0 -7 -34 120 -14 17 -18 -21 -95 rlinecurve
          -109 -512 -116 1 -278 448 -82 129 27 47 135 14 rlinecurve
          7 34 -407 0 -7 -34 106 -20 58 -48 104 -148 rlinecurve
          217 -311 -512 -577 rlineto
          -183 -205 -56 -46 -68 -23 -7 -32 rcurveline
          endchar
        </CharString>
        <CharString name="Zlinebelow">
          1169 1083 hmoveto
          -65 callsubr
          24 callsubr
          226 -341 -81 callsubr
        </CharString>
        <CharString name="a">
          1043 -73 callsubr
          -105 callsubr
          -106 callsubr
          -107 callsubr
          -98 callsubr
        </CharString>
        <CharString name="a.dnum">
          632 111 174 97 callsubr
        </CharString>
        <CharString name="a.numr">
          632 263 891 97 callsubr
        </CharString>
        <CharString name="a.sups">
          632 304 1081 97 callsubr
        </CharString>
        <CharString name="aacute">
          1043 891 -91 callsubr
          -928 -1108 -102 callsubr
          -105 callsubr
          -106 callsubr
          -107 callsubr
          -98 callsubr
        </CharString>
        <CharString name="abreve">
          1043 779 -48 callsubr
          -601 -796 -102 callsubr
          -105 callsubr
          -106 callsubr
          -107 callsubr
          -98 callsubr
        </CharString>
        <CharString name="abreveacute">
          1043 1055 -45 callsubr
          188 -264 -34 callsubr
          -560 -748 -102 callsubr
          -105 callsubr
          -106 callsubr
          -107 callsubr
          -98 callsubr
        </CharString>
        <CharString name="abrevecyrillic">
          1043 747 55 callsubr
          -569 -811 -102 callsubr
          -105 callsubr
          -106 callsubr
          -107 callsubr
          -98 callsubr
        </CharString>
        <CharString name="abrevedotbelow">
          1043 779 -48 callsubr
          -601 -796 -102 callsubr
          -105 callsubr
          -106 callsubr
          -107 callsubr
          23 callsubr
          177 -701 -101 callsubr
        </CharString>
        <CharString name="abrevegrave">
          1043 569 -29 callsubr
          141 -484 -34 callsubr
          -560 -748 -102 callsubr
          -105 callsubr
          -106 callsubr
          -107 callsubr
          -98 callsubr
        </CharString>
        <CharString name="abrevehookabove">
          1043 814 8 callsubr
          41 hhcurveto
          56 132 callsubr
          16 75 rlinecurve
          75 16 -64 42 -79 hhcurveto
          -76 -465 -34 callsubr
          -560 -748 -102 callsubr
          -105 callsubr
          -106 callsubr
          -107 callsubr
          -98 callsubr
        </CharString>
        <CharString name="abrevetilde">
          1043 906 -3 callsubr
          -168 -287 -34 callsubr
          -560 -748 -102 callsubr
          -105 callsubr
          -106 callsubr
          -107 callsubr
          -98 callsubr
        </CharString>
        <CharString name="acaron">
          1043 1025 -68 callsubr
          -891 -1127 -102 callsubr
          -105 callsubr
          -106 callsubr
          -107 callsubr
          -98 callsubr
        </CharString>
        <CharString name="acircumflex">
          1043 532 -76 callsubr
          -310 -756 -102 callsubr
          -105 callsubr
          -106 callsubr
          -107 callsubr
          -98 callsubr
        </CharString>
        <CharString name="acircumflexacute">
          1043 1055 -45 callsubr
          -58 -275 -71 callsubr
          -322 -775 -102 callsubr
          -105 callsubr
          -106 callsubr
          -107 callsubr
          -98 callsubr
        </CharString>
        <CharString name="acircumflexdotbelow">
          1043 532 -76 callsubr
          -310 -756 -102 callsubr
          -105 callsubr
          -106 callsubr
          -107 callsubr
          23 callsubr
          177 -701 -101 callsubr
        </CharString>
        <CharString name="acircumflexgrave">
          1043 569 -29 callsubr
          -105 -495 -71 callsubr
          -322 -775 -102 callsubr
          -105 callsubr
          -106 callsubr
          -107 callsubr
          -98 callsubr
        </CharString>
        <CharString name="acircumflexhookabove">
          1043 1009 8 callsubr
          65 callsubr
          -322 -775 -102 callsubr
          -105 callsubr
          -106 callsubr
          -107 callsubr
          -98 callsubr
        </CharString>
        <CharString name="acircumflextilde">
          1043 906 -3 callsubr
          -414 -298 -71 callsubr
          -322 -775 -102 callsubr
          -105 callsubr
          -106 callsubr
          -107 callsubr
          -98 callsubr
        </CharString>
        <CharString name="acute">
          1024 895 -91 callsubr
          endchar
        </CharString>
        <CharString name="acutecmb">
          0 383 -91 callsubr
          endchar
        </CharString>
        <CharString name="acutecmb.short">
          0 352 1329 31 callsubr
          endchar
        </CharString>
        <CharString name="acutedotaccentcmb">
          0 302 67 callsubr
          191 -156 rmoveto
          29 132 -526 -183 -8 -38 rlineto
          endchar
        </CharString>
        <CharString name="acutedotaccentcmb.short">
          0 390 1756 71 callsubr
          -19 callgsubr
          endchar
        </CharString>
        <CharString name="acyrillic">
          1043 -73 callsubr
          -105 callsubr
          -106 callsubr
          -107 callsubr
          -98 callsubr
        </CharString>
        <CharString name="adblgrave">
          1043 519 -32 callsubr
          -733 -756 -102 callsubr
          -105 callsubr
          -106 callsubr
          -107 callsubr
          -98 callsubr
        </CharString>
        <CharString name="adieresis">
          1043 587 -70 callsubr
          -784 -835 -102 callsubr
          -105 callsubr
          -106 callsubr
          -107 callsubr
          -98 callsubr
        </CharString>
        <CharString name="adieresismacron">
          1043 559 11 callsubr
          9 -381 -62 callsubr
          -704 -771 -102 callsubr
          -105 callsubr
          -106 callsubr
          -107 callsubr
          -98 callsubr
        </CharString>
        <CharString name="adotaccent">
          1043 774 -74 callsubr
          -596 -829 -102 callsubr
          -105 callsubr
          -106 callsubr
          -107 callsubr
          -98 callsubr
        </CharString>
        <CharString name="adotbelow">
          1043 -73 callsubr
          -105 callsubr
          -106 callsubr
          -107 callsubr
          23 callsubr
          177 -701 -101 callsubr
        </CharString>
        <CharString name="adotmacron">
          1043 557 1377 -10 callsubr
          128 callsubr
          -583 -773 -102 callsubr
          -105 callsubr
          -106 callsubr
          -107 callsubr
          -98 callsubr
        </CharString>
        <CharString name="ae">
          1411 264 784 94 callsubr
        </CharString>
        <CharString name="aeacute">
          1411 1089 -91 callsubr
          -1040 -656 94 callsubr
        </CharString>
        <CharString name="aemacron">
          1411 714 -57 callsubr
          -475 -533 94 callsubr
        </CharString>
        <CharString name="agrave">
          1043 715 -66 callsubr
          -639 -756 -102 callsubr
          -105 callsubr
          -106 callsubr
          -107 callsubr
          -98 callsubr
        </CharString>
        <CharString name="ahookabove">
          1043 807 -47 callsubr
          -629 -1114 -102 callsubr
          -105 callsubr
          -106 callsubr
          -107 callsubr
          -98 callsubr
        </CharString>
        <CharString name="ainvertedbreve">
          1043 781 -4 callsubr
          -603 -1090 -102 callsubr
          -105 callsubr
          -106 callsubr
          -107 callsubr
          -98 callsubr
        </CharString>
        <CharString name="alphagreek">
          1143 455 -18 142 callsubr
        </CharString>
        <CharString name="alphatonosgreek">
          1143 870 14 callsubr
          -618 -1510 142 callsubr
        </CharString>
        <CharString name="amacron">
          1043 516 -57 callsubr
          -363 -985 -102 callsubr
          -105 callsubr
          -106 callsubr
          -107 callsubr
          -98 callsubr
        </CharString>
        <CharString name="ampersand">
          1430 145 328 rmoveto
          -195 153 -154 236 168 141 99 164 145 vhcurveto
          199 -242 294 0 7 30 -83 36 -80 80 -91 110 rlinecurve
          -119 145 170 231 126 172 48 36 106 16 rlinecurve
          7 35 -381 0 -7 -35 139 -14 19 -43 -106 -156 rlinecurve
          -145 -213 -292 356 -11 13 -11 14 -10 12 rlinecurve
          270 104 110 123 134 vvcurveto
          154 -122 125 -225 -235 -141 -162 -186 -3 vhcurveto
          -2 -99 39 -104 93 -133 rrcurveto
          -246 -90 -160 -152 -211 vvcurveto
          452 869 rmoveto
          140 81 80 122 123 63 -109 -123 -140 -86 -117 -153 -77 vhcurveto
          -113 150 -37 99 97 vvcurveto
          -268 -783 rmoveto
          185 135 97 109 55 vhcurveto
          19 -27 23 -28 24 -30 327 -397 rcurveline
          -111 -101 -98 -67 -128 hhcurveto
          -172 -138 133 190 hvcurveto
          endchar
        </CharString>
        <CharString name="anoteleiagreek">
          454 411 745 rmoveto
          135 callsubr
          endchar
        </CharString>
        <CharString name="aogonek">
          1043 -73 callsubr
          -105 callsubr
          23 23 4 6 23 hvcurveto
          -192 -136 -70 -104 -90 vvcurveto
          -85 63 -54 90 76 58 38 53 32 vhcurveto
          7 34 rlineto
          -19 -22 -30 -12 -32 hhcurveto
          -47 -37 33 65 107 88 111 170 144 hvcurveto
          6 36 rlineto
          -26 -32 -46 -14 -33 hhcurveto
          -45 -22 29 63 -98 callsubr
        </CharString>
        <CharString name="approxequal">
          1155 960 711 rmoveto
          -162 -76 217 -188 hhcurveto
          -125 -121 -80 -213 -45 hvcurveto
          60 -2 rlineto
          164 39 95 60 92 163 75 -217 188 hhcurveto
          125 121 80 213 45 hvcurveto
          -60 hlineto
          -160 -37 -97 -62 -92 hhcurveto
          -99 -467 rmoveto
          -163 -76 216 -188 hhcurveto
          -124 -122 -79 -214 -44 hvcurveto
          59 -1 rlineto
          164 39 96 60 92 162 76 -25 callgsubr
          -161 -37 -98 -61 -91 hhcurveto
          endchar
        </CharString>
        <CharString name="aring">
          1043 553 -2 callsubr
          -507 -901 -102 callsubr
          -105 callsubr
          -106 callsubr
          -107 callsubr
          -98 callsubr
        </CharString>
        <CharString name="aringacute">
          1043 1056 1434 -99 callgsubr
          166 callsubr
          -584 -779 -102 callsubr
          -105 callsubr
          -106 callsubr
          -107 callsubr
          -98 callsubr
        </CharString>
        <CharString name="aringbelow">
          1043 -73 callsubr
          -105 callsubr
          -106 callsubr
          -107 callsubr
          23 callsubr
          -47 -616 103 callsubr
        </CharString>
        <CharString name="asciicircum">
          1156 857 1444 rmoveto
          -524 -573 41 -38 500 535 270 -533 51 36 -280 573 rlineto
          endchar
        </CharString>
        <CharString name="asciitilde">
          1155 915 499 rmoveto
          -162 -76 217 -189 hhcurveto
          -124 -121 -80 -214 -45 hvcurveto
          60 -1 rlineto
          164 38 96 60 92 163 75 -25 callgsubr
          -160 -37 -97 -62 -92 hhcurveto
          endchar
        </CharString>
        <CharString name="asterisk">
          707 644 1472 rmoveto
          -49 -29 -33 -53 -15 0 -17 2 -29 hvcurveto
          19 -180 14 0 93 189 rlineto
          16 34 3 18 16 vvcurveto
          39 -28 31 -41 vhcurveto
          -277 -120 rmoveto
          -43 -24 -35 -34 -31 18 -30 58 -24 hvcurveto
          190 -72 8 13 -97 139 rlineto
          59 -42 -37 15 -31 hhcurveto
          495 -54 rmoveto
          -33 -25 -11 -39 -52 hvcurveto
          -140 -111 5 -13 205 23 rlineto
          77 8 35 30 47 vvcurveto
          38 -30 28 -42 vhcurveto
          -542 -361 rmoveto
          32 24 12 38 53 hvcurveto
          140 112 -5 14 -204 -25 rlineto
          -77 -9 -35 -30 -46 vvcurveto
          -38 30 -28 42 vhcurveto
          562 14 rmoveto
          32 -18 31 -59 22 vhcurveto
          -189 74 -8 -13 97 -140 rlineto
          -60 41 38 -14 31 hhcurveto
          42 25 35 33 hvcurveto
          -344 -189 rmoveto
          48 29 34 53 15 0 17 -2 29 hvcurveto
          -18 179 -14 0 -93 -188 rlineto
          -17 -35 -2 -17 -16 vvcurveto
          -39 28 -32 41 vhcurveto
          endchar
        </CharString>
        <CharString name="at">
          1975 1436 -308 rmoveto
          36 vlineto
          -81 -128 -145 -23 -154 hhcurveto
          -402 -328 304 467 605 459 342 460 406 324 -249 -428 -406 -276 -202 -179 -60 -57 40 120 25 hvcurveto
          157 735 -47 0 -150 -138 rlineto
          97 -29 -66 58 -107 hhcurveto
          -267 -184 -316 -297 -187 78 -136 154 117 122 96 168 69 hvcurveto
          -6 -28 -6 -33 -12 vvcurveto
          -148 -19 99 -72 149 hhcurveto
          242 296 238 426 442 -343 280 -444 -487 -485 -358 -645 -482 350 -330 424 157 171 34 83 110 hvcurveto
          -566 641 rmoveto
          257 117 321 189 81 50 -55 -84 17 vhcurveto
          -78 -370 rlineto
          -140 -30 -110 -156 -117 hhcurveto
          -93 -26 101 126 hvcurveto
          endchar
        </CharString>
        <CharString name="atilde">
          1043 878 -63 callsubr
          -700 -819 -102 callsubr
          -105 callsubr
          -106 callsubr
          -107 callsubr
          -98 callsubr
        </CharString>
        <CharString name="austral">
          1267 84 396 rmoveto
          242 hlineto
          -84 -153 -91 -165 -38 -30 -106 -14 rlinecurve
          -7 -34 358 0 8 34 -128 17 -16 33 84 159 rlinecurve
          81 153 533 0 20 -178 14 -130 -24 -39 -133 -15 rlinecurve
          -7 -34 470 0 8 34 -92 12 -26 31 -18 141 rlinecurve
          -22 178 241 0 8 36 -253 0 -30 246 335 0 8 36 -347 0 -90 737 -79 0 -403 -737 -348 0 -8 -36 336 0 -135 -246 rlineto
          -253 hlineto
          465 282 rmoveto
          271 509 57 -509 rlineto
          -478 -282 rmoveto
          131 246 351 0 27 -246 rlineto
          endchar
        </CharString>
        <CharString name="austral.tnum">
          1167 93 432 rmoveto
          -8 -36 226 0 -78 -153 -86 -167 -41 -29 -98 -13 rlinecurve
          -7 -34 338 0 7 34 -121 16 -11 30 81 163 rlinecurve
          76 153 469 0 13 -178 10 -131 -23 -39 -122 -14 rlinecurve
          -7 -34 455 0 7 34 -83 11 -28 30 -14 143 rlinecurve
          -16 178 218 0 8 36 -230 0 -22 245 304 0 8 37 -316 0 -68 737 -83 0 -377 -737 -321 0 -8 -37 310 0 -125 -245 rlineto
          199 282 rmoveto
          249 502 38 -502 rlineto
          -427 -282 rmoveto
          121 245 308 0 19 -245 rlineto
          endchar
        </CharString>
        <CharString name="b">
          -101 callgsubr
          endchar
        </CharString>
        <CharString name="backslash">
          620 467 -291 rmoveto
          67 hlineto
          -104 1882 rlineto
          -67 hlineto
          endchar
        </CharString>
        <CharString name="baht">
          -78 callgsubr
          149 -124 109 -234 29 rrcurveto
          48 226 -36 0 -47 -222 rlineto
          3 -32 -34 1 -35 hhcurveto
          -414 hlineto
          -7 -34 rlineto
          115 -3 callgsubr
          -120 -12 -7 -34 rcurveline
          444 hlineto
          24 24 1 1 23 hvcurveto
          -47 -221 36 0 47 223 rlineto
          372 26 209 165 222 vvcurveto
          -523 929 rmoveto
          98 -4 rlineto
          33 -1 31 -4 27 -6 -122 -574 rcurveline
          -1 -13 -13 -1 -13 hhcurveto
          -153 -1 rlineto
          520 331 rmoveto
          -161 -102 -134 -189 -29 vhcurveto
          119 561 rlineto
          115 -36 57 -84 -117 vvcurveto
          -528 -370 rmoveto
          151 -1 rlineto
          14 13 -1 -1 12 hvcurveto
          -141 -663 rlineto
          -30 -4 -31 -3 -33 -1 -100 -3 rcurveline
          596 379 rmoveto
          -172 -111 -146 -254 -45 vhcurveto
          139 653 rlineto
          146 -30 80 -115 -145 vvcurveto
          endchar
        </CharString>
        <CharString name="baht.tnum">
          -76 callgsubr
          151 -116 105 -220 30 vhcurveto
          48 226 -36 0 -47 -222 rlineto
          3 -32 -33 1 -35 hhcurveto
          -407 hlineto
          -7 -34 rlineto
          114 -3 callgsubr
          -119 -12 -7 -34 rcurveline
          438 hlineto
          24 23 1 1 22 hvcurveto
          -47 -221 36 0 47 223 rlineto
          359 26 201 165 222 vvcurveto
          -496 929 rmoveto
          93 -3 rlineto
          33 -1 30 -4 27 -6 -122 -575 rcurveline
          -1 -13 -13 -1 -13 hhcurveto
          -147 -1 rlineto
          495 333 rmoveto
          -160 -95 -135 -177 -31 vhcurveto
          119 561 rlineto
          103 -38 50 -83 -114 vvcurveto
          -503 -372 rmoveto
          146 -1 rlineto
          13 13 -1 -1 12 hvcurveto
          -141 -664 rlineto
          -29 -4 -31 -2 -32 -1 -96 -3 rcurveline
          571 381 rmoveto
          -172 -106 -149 -240 -44 vhcurveto
          139 652 rlineto
          134 -31 73 -114 -142 vvcurveto
          endchar
        </CharString>
        <CharString name="bar">
          620 215 -291 rmoveto
          67 hlineto
          400 1882 rlineto
          -67 hlineto
          endchar
        </CharString>
        <CharString name="bdotaccent">
          1043 627 1637 70 callsubr
          444 -1002 154 callsubr
          endchar
        </CharString>
        <CharString name="bdotbelow">
          -101 callgsubr
          -363 -1039 -101 callsubr
        </CharString>
        <CharString name="becyrillic">
          1071 1085 555 rmoveto
          220 -125 208 -237 -204 -161 -135 -209 -77 vhcurveto
          13 350 120 194 358 31 21 3 75 6 25 1 243 18 81 79 38 175 rrcurveto
          -34 hlineto
          -22 -56 -48 -20 -166 -7 rrcurveto
          -539 -19 -243 -412 -515 vvcurveto
          -324 145 -162 235 320 182 285 289 vhcurveto
          -199 74 rmoveto
          -276 -105 -327 -197 -123 -60 111 198 276 104 327 200 120 61 -112 -197 vhcurveto
          endchar
        </CharString>
        <CharString name="betagreek">
          1121 73 -460 rmoveto
          200 hlineto
          103 561 rlineto
          -68 47 110 -51 115 hhcurveto
          295 190 206 258 3 hvcurveto
          2 201 -117 172 -243 19 281 39 120 153 1 176 rrcurveto
          184 2 -140 103 -193 hhcurveto
          -246 -144 -150 -328 -71 hvcurveto
          204 84 rmoveto
          243 53 59 103 139 hhcurveto
          95 68 -71 -155 -1 hvcurveto
          -1 -191 -99 -160 -237 -4 rrcurveto
          -30 -141 206 -8 101 -111 -1 -207 rlinecurve
          -215 -1 -147 -140 -186 hhcurveto
          -93 -81 39 65 -51 hvcurveto
          29 134 177 813 1 6 rrcurveto
          endchar
        </CharString>
        <CharString name="bitcoin">
          -78 callgsubr
          121 -81 94 -155 47 rrcurveto
          54 251 -36 0 -52 -242 rlineto
          16 -63 -75 8 -86 hhcurveto
          -6 hlineto
          46 218 -36 0 -46 -218 -372 0 -7 -34 115 -2 callgsubr
          -120 -12 rlinecurve
          -7 -34 372 0 -47 -219 37 0 46 219 rlineto
          36 hlineto
          73 67 5 9 62 hvcurveto
          -50 -233 37 0 50 239 rlineto
          289 52 160 150 195 vvcurveto
          -128 668 rmoveto
          -181 -130 -148 -237 -1 vhcurveto
          -153 -1 125 592 98 -4 rlineto
          200 -7 97 -96 -154 vvcurveto
          -77 -668 rmoveto
          -199 -149 -165 -347 -12 vhcurveto
          -100 -3 145 677 151 -1 rlineto
          193 -1 107 -128 -168 vvcurveto
          endchar
        </CharString>
        <CharString name="bitcoin.tnum">
          -76 callgsubr
          123 -76 92 -147 46 vhcurveto
          53 251 -36 0 -51 -241 rlineto
          15 -61 -72 8 -81 hhcurveto
          -17 hlineto
          46 218 -36 0 -46 -218 -354 0 -7 -34 114 -2 callgsubr
          -119 -12 rlinecurve
          -7 -34 354 0 -47 -219 36 0 47 219 rlineto
          48 hlineto
          68 63 4 9 59 hvcurveto
          -50 -232 37 0 50 238 rlineto
          282 52 156 150 196 vvcurveto
          -126 670 rmoveto
          -182 -123 -149 -225 -1 vhcurveto
          -147 -1 125 592 93 -4 rlineto
          186 -7 91 -95 -153 vvcurveto
          -77 -668 rmoveto
          -200 -144 -166 -331 -11 vhcurveto
          -96 -4 145 677 146 -1 rlineto
          181 -2 99 -127 -166 vvcurveto
          endchar
        </CharString>
        <CharString name="blinebelow">
          -101 callgsubr
          -600 -994 -81 callsubr
        </CharString>
        <CharString name="braceleft">
          620 618 1038 rmoveto
          65 302 rlineto
          145 31 48 70 172 hhcurveto
          7 36 rlineto
          -48 hlineto
          -204 -135 -98 -188 -40 hvcurveto
          -73 -344 rlineto
          -154 -33 -102 -83 -105 hhcurveto
          -6 -31 rlineto
          104 67 -79 -177 -38 hvcurveto
          -83 -392 rlineto
          -190 -40 83 -146 204 hhcurveto
          48 hlineto
          8 36 rlineto
          -173 -6 125 165 35 hvcurveto
          69 319 rlineto
          46 216 -68 114 -176 25 200 25 98 98 45 206 rrcurveto
          endchar
        </CharString>
        <CharString name="braceright">
          620 443 1038 rmoveto
          -43 -206 56 -98 190 -25 -187 -25 -117 -114 -44 -216 -68 -319 rcurveline
          -165 -35 -59 -125 -173 hhcurveto
          -8 -36 rlineto
          48 hlineto
          205 146 146 190 40 hvcurveto
          83 392 rlineto
          177 37 101 79 105 hhcurveto
          6 31 rlineto
          -104 -67 83 154 33 hvcurveto
          73 344 rlineto
          188 39 -93 98 -204 hhcurveto
          -48 hlineto
          -8 -36 rlineto
          172 18 -70 -145 -30 hvcurveto
          endchar
        </CharString>
        <CharString name="bracketleft">
          620 129 -291 rmoveto
          411 hlineto
          8 37 -257 0 386 1808 257 0 7 37 rlineto
          -411 hlineto
          endchar
        </CharString>
        <CharString name="bracketright">
          620 767 1591 rmoveto
          -411 hlineto
          -8 -37 257 0 -386 -1808 -257 0 -7 -37 rlineto
          411 hlineto
          endchar
        </CharString>
        <CharString name="breve">
          1024 783 -48 callsubr
          endchar
        </CharString>
        <CharString name="breveacutecmb">
          91 callsubr
          188 -264 -34 callsubr
          endchar
        </CharString>
        <CharString name="breveacutecmb.short">
          0 639 1834 -98 callgsubr
          203 -215 -16 callsubr
          endchar
        </CharString>
        <CharString name="brevebelowcmb">
          0 -63 -431 104 callsubr
        </CharString>
        <CharString name="brevecmb">
          0 271 -48 callsubr
          endchar
        </CharString>
        <CharString name="brevecmb.short">
          0 263 1108 107 callsubr
          endchar
        </CharString>
        <CharString name="brevecyrilliccmb">
          0 239 55 callsubr
          endchar
        </CharString>
        <CharString name="brevecyrilliccmb.short">
          0 324 1593 56 callsubr
          endchar
        </CharString>
        <CharString name="brevegravecmb">
          0 61 -29 callsubr
          141 -484 -34 callsubr
          endchar
        </CharString>
        <CharString name="brevegravecmb.short">
          0 141 35 callsubr
          155 rlineto
          164 -402 -16 callsubr
          endchar
        </CharString>
        <CharString name="brevehookabovecmb">
          0 306 8 callsubr
          41 hhcurveto
          56 132 callsubr
          16 75 rlinecurve
          75 16 -64 42 -79 hhcurveto
          -76 -465 -34 callsubr
          endchar
        </CharString>
        <CharString name="brevehookabovecmb.short">
          0 389 171 callsubr
          endchar
        </CharString>
        <CharString name="brevetildecmb">
          0 398 -3 callsubr
          -168 -287 -34 callsubr
          endchar
        </CharString>
        <CharString name="brevetildecmb.short">
          0 490 1786 -37 callsubr
          -38 hlineto
          -47 -10 -33 -18 -45 hhcurveto
          -27 -26 7 12 -37 hvcurveto
          -27 10 rlineto
          12 -37 -39 9 -44 hhcurveto
          -82 -68 -49 -99 -21 hvcurveto
          37 hlineto
          47 12 -6 callgsubr
          37 38 -9 45 hhcurveto
          -162 -242 -16 callsubr
          endchar
        </CharString>
        <CharString name="brokenbar">
          620 445 791 rmoveto
          67 hlineto
          170 800 rlineto
          -67 hlineto
          -400 -1882 rmoveto
          67 hlineto
          170 800 rlineto
          -67 hlineto
          endchar
        </CharString>
        <CharString name="bullet">
          810 526 -54 callgsubr
        </CharString>
        <CharString name="c">
          835 543 -18 1 callsubr
        </CharString>
        <CharString name="cacute">
          835 884 -91 callsubr
          -556 -1458 1 callsubr
        </CharString>
        <CharString name="caret">
          454 203 hmoveto
          -320 -348 31 -32 303 321 167 -321 37 31 -171 348 rlineto
          endchar
        </CharString>
        <CharString name="caron">
          1024 1029 -68 callsubr
          endchar
        </CharString>
        <CharString name="caroncmb">
          0 517 -68 callsubr
          endchar
        </CharString>
        <CharString name="caroncmb.short">
          0 474 1349 129 callsubr
          endchar
        </CharString>
        <CharString name="carondotaccentcmb">
          0 302 67 callsubr
          -20 callgsubr
          endchar
        </CharString>
        <CharString name="carondotaccentcmb.short">
          0 394 1775 71 callsubr
          -69 callgsubr
          endchar
        </CharString>
        <CharString name="caronslovak">
          1024 670 1078 79 callsubr
          endchar
        </CharString>
        <CharString name="caronslovakcmb">
          0 265 1078 79 callsubr
          endchar
        </CharString>
        <CharString name="ccaron">
          835 1018 -68 callsubr
          -519 -1477 1 callsubr
        </CharString>
        <CharString name="ccedilla">
          835 475 2 callsubr
          86 99 rlineto
          115 10 106 57 56 78 7 38 rcurveline
          101 callsubr
          -260 158 -134 186 -6 hvcurveto
          -130 -148 -69 callsubr
          5 callsubr
          endchar
        </CharString>
        <CharString name="ccedillaacute">
          835 884 -91 callsubr
          -624 -1886 rmoveto
          74 callsubr
          86 99 rlineto
          115 10 106 57 56 78 7 38 rcurveline
          101 callsubr
          -260 158 -134 186 -6 hvcurveto
          -130 -148 -69 callsubr
          5 callsubr
          endchar
        </CharString>
        <CharString name="ccircumflex">
          835 525 -76 callsubr
          62 -1106 1 callsubr
        </CharString>
        <CharString name="cdotaccent">
          835 767 -74 callsubr
          -224 -1179 1 callsubr
        </CharString>
        <CharString name="cedi">
          1273 681 -189 rmoveto
          36 hlineto
          44 206 rlineto
          -3 27 28 -2 29 hhcurveto
          139 149 34 58 91 hvcurveto
          64 291 rlineto
          -31 hlineto
          -248 -103 -145 -87 -162 hhcurveto
          -27 -25 3 5 -23 hvcurveto
          279 1315 rlineto
          223 91 -146 -185 7 hvcurveto
          30 hlineto
          41 281 -91 59 -129 37 -162 2 rlinecurve
          43 201 -36 0 -43 -201 rlineto
          -451 -14 -330 -335 -441 vvcurveto
          -315 179 -252 303 -52 vhcurveto
          -265 583 rmoveto
          365 197 389 357 23 vhcurveto
          -278 -1305 rlineto
          -183 60 -93 213 255 vvcurveto
          endchar
        </CharString>
        <CharString name="cedi.tnum">
          1167 626 -189 rmoveto
          36 hlineto
          44 205 rlineto
          -3 24 26 -1 26 hhcurveto
          123 121 32 51 91 hvcurveto
          64 288 rlineto
          -31 hlineto
          -238 -99 -122 -85 -145 hhcurveto
          -24 -22 2 5 -22 hvcurveto
          280 1316 rlineto
          187 76 -144 -179 6 hvcurveto
          30 hlineto
          42 277 -82 48 -110 43 -139 3 rlinecurve
          43 201 -36 0 -43 -201 rlineto
          -418 -14 -306 -339 -463 vvcurveto
          -330 158 -217 267 -47 vhcurveto
          -208 559 rmoveto
          393 177 386 320 23 vhcurveto
          -277 -1304 rlineto
          -146 55 -74 181 266 vvcurveto
          endchar
        </CharString>
        <CharString name="cedilla">
          1024 435 -13 callgsubr
          -3 -2 0 -3 hhcurveto
          95 115 3 18 -35 0 -154 -184 -69 callsubr
          -38 -33 -61 -51 -50 20 30 -30 hvcurveto
          -8 -34 rlineto
          -55 35 61 -42 88 hhcurveto
          endchar
        </CharString>
        <CharString name="cedillacmb">
          0 -77 2 callsubr
          94 108 3 17 -35 0 -154 -176 -69 callsubr
          5 callsubr
          endchar
        </CharString>
        <CharString name="cent">
          1164 656 hmoveto
          46 216 rlineto
          -1 7 7 0 7 -35 callgsubr
          -34 -30 5 9 -27 hvcurveto
          183 861 rlineto
          2 3 0 2 hhcurveto
          -67 callgsubr
          109 -106 90 -158 7 hvcurveto
          47 220 -37 0 -47 -220 rlineto
          -303 -10 -241 -242 -341 vvcurveto
          -253 156 -89 callgsubr
        </CharString>
        <CharString name="cent.1">
          1164 664 hmoveto
          45 215 rlineto
          5 4 0 5 -35 callgsubr
          -188 -89 153 190 273 141 259 235 -67 callgsubr
          108 -103 89 -153 8 hvcurveto
          47 221 -36 0 -47 -220 rlineto
          -307 -4 callgsubr
          177 -21 vhcurveto
          -46 -218 rlineto
          endchar
        </CharString>
        <CharString name="cent.1.tnum">
          1167 666 hmoveto
          45 215 rlineto
          5 4 0 5 -34 callgsubr
          -189 -88 153 190 273 141 259 235 -66 callgsubr
          108 -102 88 -153 9 hvcurveto
          47 221 -37 0 -46 -220 rlineto
          -308 -4 callgsubr
          178 -21 vhcurveto
          -47 -218 rlineto
          endchar
        </CharString>
        <CharString name="cent.tnum">
          1167 657 hmoveto
          46 216 rlineto
          -1 7 8 0 7 -34 callgsubr
          -34 -31 5 9 -27 hvcurveto
          183 861 rlineto
          2 3 0 3 hhcurveto
          -66 callgsubr
          110 -106 90 -158 6 hvcurveto
          47 220 -36 0 -47 -220 rlineto
          -304 -10 -241 -242 -341 vvcurveto
          -253 157 -89 callgsubr
        </CharString>
        <CharString name="checyrillic">
          1046 847 -70 callgsubr
          808 -196 -23 -65 -305 rlineto
          -131 -33 -99 -98 -109 hhcurveto
          -111 -31 83 132 28 hvcurveto
          73 346 -331 -44 80 callsubr
          -29 -138 rcurveline
          -200 -43 58 -128 187 hhcurveto
          150 106 78 133 59 hvcurveto
          -30 -141 rlineto
          -2 -12 -49 -236 -9 vvcurveto
          -120 -18 49 -50 95 hhcurveto
          endchar
        </CharString>
        <CharString name="chigreek">
          1007 171 -460 rmoveto
          337 631 86 -422 rlineto
          -182 37 58 -39 97 hhcurveto
          69 68 30 33 44 hvcurveto
          7 33 rlineto
          -10 -17 -21 -6 -28 hhcurveto
          -52 -31 25 106 -26 hvcurveto
          -140 567 168 221 191 236 179 205 rlinecurve
          -220 hlineto
          -330 -608 -89 395 rlineto
          180 -41 -54 42 -98 hhcurveto
          -68 -69 -30 -33 -44 hvcurveto
          -7 -33 rlineto
          10 17 21 6 28 hhcurveto
          52 30 -26 -105 27 hvcurveto
          144 -544 -175 -235 -194 -243 -176 -204 rlinecurve
          endchar
        </CharString>
        <CharString name="circumflex">
          1024 536 -76 callsubr
          endchar
        </CharString>
        <CharString name="circumflexacutecmb">
          91 callsubr
          -58 -275 -71 callsubr
          endchar
        </CharString>
        <CharString name="circumflexacutecmb.short">
          0 634 73 callsubr
          endchar
        </CharString>
        <CharString name="circumflexbelowcmb">
          0 -287 -446 -72 callsubr
        </CharString>
        <CharString name="circumflexcmb">
          0 24 -76 callsubr
          endchar
        </CharString>
        <CharString name="circumflexcmb.short">
          0 39 1061 130 callsubr
          endchar
        </CharString>
        <CharString name="circumflexgravecmb">
          0 61 -29 callsubr
          -105 -495 -71 callsubr
          endchar
        </CharString>
        <CharString name="circumflexgravecmb.short">
          0 136 66 callsubr
          endchar
        </CharString>
        <CharString name="circumflexhookabovecmb">
          0 501 8 callsubr
          65 callsubr
          endchar
        </CharString>
        <CharString name="circumflexhookabovecmb.short">
          0 614 54 callsubr
          endchar
        </CharString>
        <CharString name="circumflextildecmb">
          0 398 -3 callsubr
          -414 -298 -71 callsubr
          endchar
        </CharString>
        <CharString name="circumflextildecmb.short">
          0 485 61 callsubr
          endchar
        </CharString>
        <CharString name="colon">
          454 401 698 rmoveto
          135 callsubr
          -152 -715 rmoveto
          135 callsubr
          endchar
        </CharString>
        <CharString name="colon.uc">
          454 456 957 rmoveto
          135 callsubr
          -152 -715 rmoveto
          135 callsubr
          endchar
        </CharString>
        <CharString name="coloncurrency">
          1283 318 -189 rmoveto
          36 hlineto
          130 309 57 -40 65 -31 74 -18 rlinecurve
          -93 -220 37 0 90 213 rlineto
          -8 40 44 -4 45 hhcurveto
          140 148 34 58 91 hvcurveto
          64 291 rlineto
          -30 hlineto
          -248 -104 -144 -87 -162 hhcurveto
          -40 -36 6 11 -34 hvcurveto
          523 1240 74 -60 33 -95 4 -110 rlinecurve
          30 hlineto
          42 281 -42 27 -50 22 -57 17 rlinecurve
          98 232 -37 0 -94 -223 rlineto
          15 -63 -70 8 -78 -4 -4 0 -3 hhcurveto
          84 200 -37 0 -85 -201 rlineto
          -439 -25 -319 -331 -433 vvcurveto
          -206 77 -180 138 -114 vhcurveto
          589 1242 rmoveto
          76 61 -17 -28 47 hvcurveto
          -526 -1249 rlineto
          -70 32 -55 55 -40 73 478 1133 rcurveline
          1 10 9 0 10 hhcurveto
          -587 -778 rmoveto
          353 185 376 335 45 vhcurveto
          -460 -1091 rlineto
          -40 89 -20 110 118 vvcurveto
          endchar
        </CharString>
        <CharString name="coloncurrency.tnum">
          1167 263 -189 rmoveto
          36 hlineto
          135 319 53 -46 64 -33 74 -20 rlinecurve
          -93 -220 37 0 90 213 rlineto
          -8 39 41 -4 44 hhcurveto
          122 122 32 51 90 hvcurveto
          64 288 rlineto
          -31 hlineto
          -237 -99 -121 -86 -144 hhcurveto
          -38 -35 6 12 -31 hvcurveto
          512 1216 46 -59 22 -83 3 -92 rlinecurve
          30 hlineto
          42 277 -31 18 -34 17 -39 15 rlinecurve
          103 244 -37 0 -98 -232 rlineto
          19 -60 -70 13 -78 -3 -4 0 -3 hhcurveto
          84 200 -37 0 -85 -202 rlineto
          -405 -26 -294 -335 -453 vvcurveto
          -200 58 -157 104 -104 vhcurveto
          582 1229 rmoveto
          77 59 -23 -39 42 hvcurveto
          -517 -1228 rlineto
          -68 37 -50 69 -31 94 460 1089 rcurveline
          1 9 10 0 9 hhcurveto
          -527 -803 rmoveto
          378 163 371 297 49 vhcurveto
          -435 -1034 rlineto
          -17 68 -8 79 89 vvcurveto
          endchar
        </CharString>
        <CharString name="combiningcircle">
          50 callsubr
          endchar
        </CharString>
        <CharString name="comma">
          454 46 -247 117 callsubr
          endchar
        </CharString>
        <CharString name="commaaccentcmb">
          0 -80 -446 -77 callsubr
        </CharString>
        <CharString name="copyright">
          50 callsubr
          -135 643 rmoveto
          196 -1 106 199 170 hhcurveto
          103 61 -66 -106 5 hvcurveto
          19 -1 23 147 rlineto
          34 -44 -81 24 -95 hhcurveto
          -245 -164 -161 -234 -1 hvcurveto
          -198 -1 130 -131 193 hhcurveto
          78 74 17 30 46 hvcurveto
          34 153 rlineto
          -20 hlineto
          -115 -47 -77 -52 -81 hhcurveto
          -121 -64 118 146 hvcurveto
          endchar
        </CharString>
        <CharString name="cruzeiro">
          1288 461 605 rmoveto
          393 209 419 377 1 vhcurveto
          -52 callgsubr
          -167 hhcurveto
          -463 -1 -342 -360 -468 vvcurveto
          -373 226 -284 375 140 149 33 58 91 vhcurveto
          64 291 rlineto
          -31 hlineto
          -102 -245 -144 -89 -160 -1 93 448 rcurveline
          129 75 117 67 105 hhcurveto
          30 32 -5 -5 20 hvcurveto
          10 18 6 25 22 vvcurveto
          41 -25 40 -62 -93 -83 -72 -222 -128 vhcurveto
          62 291 -162 -28 -153 -713 rlineto
          -156 81 -79 213 249 vvcurveto
          endchar
        </CharString>
        <CharString name="cruzeiro.tnum">
          1165 751 -21 rmoveto
          147 -1 132 39 69 38 73 277 rcurveline
          -32 hlineto
          -96 -209 -117 -88 -146 -9 95 450 rcurveline
          127 75 113 67 104 hhcurveto
          30 32 -6 -4 20 hvcurveto
          9 18 7 25 22 vvcurveto
          41 -25 40 -62 -92 -80 -72 -220 -127 vhcurveto
          62 290 -162 -29 -155 -723 rlineto
          -128 60 -60 164 258 vvcurveto
          486 241 397 349 178 91 -102 -202 5 vhcurveto
          32 hlineto
          44 277 rlineto
          40 -77 -108 34 -165 hhcurveto
          -456 -346 -364 -517 -384 245 -220 281 hvcurveto
          endchar
        </CharString>
        <CharString name="currency">
          1112 538 195 rmoveto
          91 90 31 52 75 hvcurveto
          111 -149 56 46 -110 148 rlineto
          72 66 53 87 21 96 20 96 -16 88 -44 66 rrcurveto
          173 150 -37 45 -174 -149 rlineto
          52 -54 -76 31 -90 hhcurveto
          -90 -89 -31 -52 -76 hvcurveto
          -111 149 -55 -45 110 -149 rlineto
          -72 -67 -54 -87 -21 -97 -21 -96 17 -88 45 -66 rrcurveto
          -174 -147 37 -46 173 149 rlineto
          -52 54 76 -31 90 hhcurveto
          13 60 rmoveto
          -172 -110 138 179 38 hvcurveto
          181 39 168 137 172 hhcurveto
          173 110 -137 -181 -38 hvcurveto
          -179 -39 -168 -138 -173 hhcurveto
          endchar
        </CharString>
        <CharString name="d">
          1049 -73 callsubr
          -105 callsubr
          -106 callsubr
          -107 callsubr
          -46 callsubr
          -7 callsubr
          6 callsubr
          endchar
        </CharString>
        <CharString name="dagger">
          -11 callgsubr
          -6 -310 rlineto
          2 3 5 2 4 hhcurveto
          6 4 -2 -3 3 hvcurveto
          123 303 rlineto
          72 31 -35 47 -53 hhcurveto
          -452 -507 rmoveto
          347 53 rlineto
          -1 2 -1 3 4 vvcurveto
          5 1 7 6 4 vhcurveto
          -326 48 rlineto
          687 -126 rmoveto
          26 126 -348 -49 rlineto
          2 -2 1 -3 -4 vvcurveto
          -5 -2 -6 -5 -5 vhcurveto
          9 -153 rmoveto
          47 -6 48 -12 51 vhcurveto
          -3 -3 -5 -1 -4 hhcurveto
          -5 -5 2 3 -2 hvcurveto
          -133 -182 -12 -138 -68 -704 rrcurveto
          14 hlineto
          221 686 19 56 1 135 rrcurveto
          endchar
        </CharString>
        <CharString name="daggerdbl">
          -11 callgsubr
          -5 -302 rlineto
          3 3 5 1 4 hhcurveto
          6 4 -2 -3 3 hvcurveto
          122 295 rlineto
          72 31 -35 47 -53 hhcurveto
          -451 -499 rmoveto
          348 54 rlineto
          -2 2 -1 3 4 vvcurveto
          4 2 7 5 5 vhcurveto
          -326 48 rlineto
          687 -127 rmoveto
          26 127 -347 -49 rlineto
          1 -2 1 -4 -3 vvcurveto
          -5 -2 -7 -5 -4 vhcurveto
          -159 -370 rmoveto
          -10 -60 -1 -67 15 -81 rrcurveto
          2 3 5 2 4 hhcurveto
          6 4 -2 -3 3 hvcurveto
          82 141 36 114 9 109 10 60 0 66 -15 81 rrcurveto
          -2 -3 -6 -2 -4 hhcurveto
          -5 -5 2 3 -2 hvcurveto
          -82 -140 -35 -114 -9 -109 rrcurveto
          -330 -163 rmoveto
          -26 -127 347 50 rlineto
          -1 1 -2 3 4 vvcurveto
          5 2 7 5 4 vhcurveto
          388 53 rmoveto
          -348 -54 rlineto
          1 -1 2 -4 -4 vvcurveto
          -4 -2 -7 -5 -4 vhcurveto
          325 -49 rlineto
          -425 -372 rmoveto
          54 31 41 70 hvcurveto
          6 302 rlineto
          -3 -4 -5 -1 -4 hhcurveto
          -5 -5 2 3 -2 hvcurveto
          -122 -295 rlineto
          -72 -32 35 -47 53 hhcurveto
          endchar
        </CharString>
        <CharString name="dbar">
          1046 175 332 -102 callsubr
          117 100 183 60 vhcurveto
          -1 -17 -84 -1 vvcurveto
          -132 -29 46 -62 98 hhcurveto
          83 98 41 53 43 hvcurveto
          7 36 rlineto
          -28 -30 -47 -15 -34 hhcurveto
          -46 -22 30 62 14 hvcurveto
          228 1074 156 0 9 44 -156 0 40 186 -193 -14 -37 -172 -264 0 -8 -44 263 0 -74 -347 rlineto
          46 -24 -60 48 -118 hhcurveto
          -303 -194 -323 -330 hvcurveto
          -7 callsubr
          -102 -476 rlineto
          -187 -46 -103 -109 -98 hhcurveto
          -90 -52 70 178 1 hvcurveto
          endchar
        </CharString>
        <CharString name="dblgrave">
          1024 523 -32 callsubr
          endchar
        </CharString>
        <CharString name="dblgravecmb">
          0 11 -32 callsubr
          endchar
        </CharString>
        <CharString name="dblgravecmb.short">
          0 39 1328 121 callsubr
          endchar
        </CharString>
        <CharString name="dcaron">
          1049 -73 callsubr
          -105 callsubr
          -106 callsubr
          -107 callsubr
          -46 callsubr
          1105 735 79 callsubr
          -874 -752 75 callsubr
          6 callsubr
          endchar
        </CharString>
        <CharString name="dcircumflexbelow">
          1049 -73 callsubr
          -105 callsubr
          -106 callsubr
          -107 callsubr
          -46 callsubr
          -7 callsubr
          6 callsubr
          -86 -761 -72 callsubr
        </CharString>
        <CharString name="dcommaaccent">
          1049 -73 callsubr
          -105 callsubr
          -106 callsubr
          -107 callsubr
          -46 callsubr
          -7 callsubr
          6 callsubr
          121 -761 -77 callsubr
        </CharString>
        <CharString name="ddotaccent">
          1049 1121 1580 7 callsubr
          -943 -1248 -102 callsubr
          -105 callsubr
          -106 callsubr
          -107 callsubr
          -46 callsubr
          -7 callsubr
          6 callsubr
          endchar
        </CharString>
        <CharString name="ddotbelow">
          1049 -73 callsubr
          -105 callsubr
          -106 callsubr
          -107 callsubr
          -46 callsubr
          -7 callsubr
          6 callsubr
          137 -701 -101 callsubr
        </CharString>
        <CharString name="decyrillic">
          1078 191 414 rmoveto
          -232 120 -201 270 337 179 359 438 427 -141 259 -304 -106 -74 -37 -54 -55 vhcurveto
          -8 -39 rlineto
          46 60 52 24 78 hhcurveto
          237 79 -263 -412 -12 hvcurveto
          147 -21 -76 109 -157 hhcurveto
          -268 -190 -265 -306 hvcurveto
          202 -30 rmoveto
          264 112 277 181 146 59 -132 -176 -291 -140 -300 -168 -131 -59 139 219 vhcurveto
          endchar
        </CharString>
        <CharString name="degree">
          697 635 1396 rmoveto
          -190 -153 -148 -165 -148 101 -101 143 187 154 148 166 148 -102 100 -140 hvcurveto
          -6 -50 rmoveto
          107 81 -81 -116 -140 -128 -125 -148 -108 -81 83 115 140 127 124 150 hvcurveto
          endchar
        </CharString>
        <CharString name="deltagreek">
          1005 515 -16 rmoveto
          386 118 316 204 2 hvcurveto
          1 196 -63 130 -147 148 -134 136 rcurveline
          -112 114 -22 36 56 vvcurveto
          57 35 47 82 117 129 -89 -173 124 vhcurveto
          124 171 rlineto
          -77 86 -142 74 -157 1 -217 0 -121 -96 -3 -159 -1 -83 19 -88 153 -139 32 -29 rcurveline
          -265 -15 -230 -204 -288 vvcurveto
          -223 -1 138 -186 232 hhcurveto
          -179 343 rmoveto
          2 306 154 199 188 31 105 -106 36 -135 -2 -142 rrcurveto
          -234 -1 -114 -215 -183 hhcurveto
          -121 -65 115 181 1 hvcurveto
          endchar
        </CharString>
</ttFont>
